<svg width="400" height="550" viewBox="0 0 700 550" fill="none" xmlns="http://www.w3.org/2000/svg">
<path d="M344.028 115.251C345.066 115.263 346.101 115.164 347.118 114.956C348.11 114.817 349.026 114.349 349.721 113.627C349.989 113.245 350.132 112.789 350.132 112.322C350.132 111.854 349.988 111.399 349.72 111.016C349.162 110.214 348.366 109.606 347.445 109.28C345.538 108.577 343.494 108.328 341.474 108.553C340.466 108.646 339.472 108.852 338.511 109.167C337.56 109.495 336.655 109.946 335.82 110.507C334.958 111.057 334.143 111.694 333.265 112.301C332.378 112.968 331.35 113.422 330.26 113.627C329.158 113.763 328.04 113.607 327.018 113.173C326.517 112.983 326.028 112.765 325.553 112.518L324.175 111.75C322.844 110.957 321.36 110.457 319.821 110.282C318.283 110.107 316.724 110.26 315.249 110.733C314.756 110.887 314.27 111.067 313.795 111.272L313.08 111.586C312.826 111.718 312.555 111.814 312.275 111.872C312.233 111.878 312.191 111.868 312.158 111.843C312.124 111.818 312.102 111.781 312.096 111.739L312.095 111.737L312.093 111.717C311.795 109.515 311.727 107.287 311.89 105.071C312.029 102.832 312.519 100.629 313.342 98.543C314.188 96.4112 315.598 94.5496 317.421 93.1572C319.288 91.8143 321.473 90.9806 323.76 90.7383C328.306 90.2075 332.892 91.3199 336.69 93.8745C338.549 95.1859 340.124 96.8587 341.321 98.7928C341.892 99.7639 342.382 100.78 342.785 101.832C343.218 102.879 343.542 103.928 343.862 104.981L343.597 104.747C344.538 104.982 345.456 105.297 346.344 105.687C347.236 106.062 348.082 106.539 348.866 107.106C349.66 107.669 350.341 108.378 350.872 109.193C351.377 110.022 351.652 110.97 351.672 111.94C351.672 111.947 351.671 111.953 351.668 111.96C351.666 111.966 351.662 111.972 351.658 111.977C351.653 111.982 351.647 111.986 351.641 111.988C351.635 111.991 351.628 111.993 351.621 111.993C351.608 111.992 351.595 111.987 351.585 111.978C351.575 111.968 351.569 111.956 351.568 111.942C351.492 111.011 351.171 110.116 350.638 109.349C350.084 108.604 349.394 107.971 348.605 107.483C347.826 106.973 346.993 106.552 346.121 106.227C345.257 105.891 344.365 105.627 343.457 105.439C343.397 105.427 343.341 105.4 343.295 105.36C343.249 105.32 343.214 105.269 343.194 105.211L343.192 105.205C342.537 103.136 341.652 101.148 340.553 99.2769C339.366 97.4965 337.854 95.9563 336.096 94.7373C332.49 92.3668 328.172 91.3224 323.881 91.7824C321.763 91.9729 319.73 92.7119 317.984 93.9267C316.265 95.1943 314.916 96.8975 314.074 98.8606C313.212 100.852 312.662 102.964 312.441 105.123C312.192 107.296 312.197 109.489 312.455 111.66L312.273 111.506C312.654 111.411 313.193 111.135 313.662 110.952C314.149 110.748 314.647 110.571 315.154 110.42C316.169 110.115 317.217 109.932 318.276 109.874C320.412 109.805 322.529 110.302 324.413 111.312L325.804 112.013C326.267 112.228 326.741 112.417 327.226 112.578C328.152 112.932 329.156 113.036 330.136 112.879C332.039 112.488 333.532 110.891 335.324 109.749C336.214 109.125 337.191 108.635 338.224 108.294C339.256 107.973 340.32 107.77 341.398 107.688C343.554 107.478 345.729 107.785 347.743 108.585C348.787 109.006 349.671 109.746 350.269 110.7C350.419 110.945 350.526 111.214 350.588 111.495C350.668 111.771 350.706 112.057 350.7 112.344C350.696 112.636 350.652 112.925 350.569 113.205C350.459 113.477 350.305 113.729 350.114 113.951C349.319 114.72 348.281 115.189 347.178 115.276C346.133 115.432 345.073 115.458 344.021 115.355C344.007 115.354 343.995 115.347 343.986 115.336C343.977 115.326 343.973 115.312 343.974 115.298C343.976 115.285 343.982 115.273 343.992 115.265C344.002 115.256 344.015 115.251 344.028 115.251Z" fill="black"/>
<path d="M339.293 103.227C338 101.283 336.824 99.3317 335.508 97.4925C334.866 96.5755 334.155 95.7092 333.38 94.9014C332.637 94.0548 331.663 93.4427 330.577 93.1397C331.181 93.105 331.785 93.1909 332.354 93.3926C332.924 93.5943 333.447 93.9077 333.894 94.3143C334.819 95.0632 335.636 95.9369 336.321 96.9104C337.682 98.8206 338.689 100.96 339.293 103.227Z" fill="black"/>
<path d="M326.468 92.2681L324.978 95.775C324.502 96.9416 324.035 98.1046 323.621 99.2843C323.202 100.462 322.85 101.656 322.528 102.864C322.235 104.091 322.012 105.334 321.861 106.587C321.625 105.312 321.591 104.007 321.761 102.721C321.945 101.438 322.252 100.176 322.678 98.9516C323.531 96.5145 324.815 94.2507 326.468 92.2681Z" fill="black"/>
<path d="M339.293 105.217C337.776 105.177 336.259 105.265 334.757 105.482C333.257 105.673 331.76 105.884 330.266 106.138C327.271 106.608 324.293 107.203 321.239 107.583C322.665 107.014 324.124 106.529 325.607 106.13C327.087 105.726 328.59 105.408 330.106 105.151C331.627 104.901 333.162 104.753 334.703 104.706C336.251 104.619 337.802 104.791 339.293 105.217Z" fill="black"/>
<path d="M326.966 91.6766C327.168 91.6696 327.359 91.5846 327.499 91.4394C327.64 91.2942 327.718 91.1003 327.718 90.8984C327.718 90.6966 327.64 90.5026 327.499 90.3575C327.359 90.2123 327.168 90.1272 326.966 90.1202C326.765 90.1272 326.574 90.2123 326.433 90.3575C326.293 90.5026 326.215 90.6966 326.215 90.8984C326.215 91.1003 326.293 91.2942 326.433 91.4394C326.574 91.5846 326.765 91.6696 326.966 91.6766Z" fill="black"/>
<path d="M342.78 109.451C343.301 110.751 343.744 112.081 344.106 113.434C344.195 113.782 344.261 114.135 344.306 114.491C344.33 114.681 344.337 114.873 344.328 115.065L344.305 115.575C344.297 116.258 344.332 116.941 344.411 117.619C344.474 118.335 344.463 119.057 344.378 119.771L344.191 121.851C344.064 123.231 343.944 124.612 343.879 125.989C343.844 127.4 343.739 128.808 343.563 130.208C343.436 130.952 343.175 131.667 342.792 132.317C342.39 132.928 341.911 133.485 341.367 133.975C340.351 134.987 339.161 135.807 337.854 136.398C336.548 136.935 335.162 137.254 333.752 137.342C336.465 136.841 338.939 135.463 340.793 133.421C341.249 132.941 341.656 132.417 342.008 131.857C342.312 131.293 342.511 130.678 342.594 130.043C342.786 128.738 342.768 127.333 342.843 125.934C342.93 124.531 343.055 123.136 343.217 121.749C343.429 120.397 343.563 119.033 343.618 117.664C343.585 116.955 343.597 116.244 343.654 115.536L343.714 115.006C343.731 114.85 343.735 114.694 343.726 114.538C343.704 114.201 343.666 113.865 343.611 113.532C343.417 112.168 343.08 110.813 342.78 109.451Z" fill="black"/>
<path d="M331.827 136.782C330.619 136.739 329.434 136.445 328.347 135.919C327.239 135.413 326.22 134.731 325.329 133.9C324.439 133.072 323.684 132.109 323.092 131.047C322.497 130.003 322.074 128.87 321.841 127.692C322.488 128.7 323.067 129.697 323.771 130.605C324.444 131.519 325.202 132.368 326.035 133.14C326.861 133.918 327.764 134.61 328.728 135.208C329.71 135.827 330.748 136.353 331.827 136.782Z" fill="black"/>
<path d="M324.155 111.444C324.155 111.444 321.697 117.544 321.841 119.474L320.678 119.163C320.678 119.163 320.917 112.156 317.306 112.99C316.734 113.139 316.214 113.445 315.806 113.873C315.398 114.302 315.118 114.835 314.997 115.414C314.642 116.656 314.661 117.976 315.051 119.207C315.441 120.438 316.186 121.527 317.192 122.338L317.628 125.389C317.628 125.389 314.079 127.623 312.274 111.689C314.067 110.633 316.102 110.055 318.182 110.013C320.263 109.97 322.32 110.463 324.155 111.444Z" fill="black"/>
<path d="M319.745 121.778C319.77 122.09 319.686 122.402 319.508 122.659C319.327 122.936 319.062 123.147 318.753 123.261C318.578 123.322 318.393 123.343 318.21 123.323C318.026 123.303 317.85 123.243 317.693 123.146C317.552 123.06 317.433 122.942 317.346 122.802C317.259 122.661 317.206 122.503 317.192 122.338C317.446 122.383 317.702 122.408 317.96 122.413C318.12 122.405 318.277 122.372 318.427 122.317C318.748 122.215 319.136 121.985 319.745 121.778Z" fill="black"/>
<path d="M343.464 114.929C342.437 115.016 341.544 115.001 340.644 115.06C340.194 115.068 339.753 115.12 339.298 115.16C338.838 115.196 338.39 115.286 337.861 115.323C338.204 114.934 338.624 114.621 339.094 114.404C339.564 114.187 340.075 114.07 340.593 114.061C341.103 114.038 341.615 114.095 342.108 114.232C342.607 114.36 343.07 114.598 343.464 114.929Z" fill="black"/>
<path d="M333.752 114.935C332.516 115.058 331.382 115.058 330.25 115.135C329.686 115.163 329.132 115.231 328.568 115.295C328.006 115.375 327.455 115.492 326.834 115.614C327.249 115.138 327.773 114.77 328.362 114.542C328.947 114.316 329.562 114.18 330.187 114.137C330.804 114.105 331.424 114.151 332.029 114.275C332.639 114.39 333.223 114.613 333.752 114.935Z" fill="black"/>
<path d="M338.895 120.844C339.284 121.103 339.579 121.48 339.738 121.92C339.839 122.168 339.883 122.435 339.868 122.702C339.853 122.968 339.778 123.229 339.65 123.463C339.505 123.688 339.312 123.878 339.085 124.021C338.859 124.163 338.604 124.254 338.338 124.287C337.878 124.344 337.412 124.273 336.99 124.081C337.18 123.971 337.378 123.875 337.583 123.794L338.112 123.54C338.384 123.407 338.617 123.206 338.789 122.956C339.016 122.275 339.053 121.544 338.895 120.844Z" fill="black"/>
<path d="M339.916 118.509C340.118 118.502 340.309 118.417 340.449 118.272C340.589 118.127 340.668 117.933 340.668 117.731C340.668 117.529 340.589 117.335 340.449 117.19C340.309 117.045 340.118 116.96 339.916 116.953C339.714 116.96 339.523 117.045 339.383 117.19C339.242 117.335 339.164 117.529 339.164 117.731C339.164 117.933 339.242 118.127 339.383 118.272C339.523 118.417 339.714 118.502 339.916 118.509Z" fill="black"/>
<path d="M331.075 118.571C331.277 118.564 331.468 118.479 331.608 118.334C331.749 118.189 331.827 117.995 331.827 117.793C331.827 117.591 331.749 117.397 331.608 117.252C331.468 117.107 331.277 117.022 331.075 117.015C330.874 117.022 330.683 117.107 330.542 117.252C330.402 117.397 330.324 117.591 330.324 117.793C330.324 117.995 330.402 118.189 330.542 118.334C330.683 118.479 330.874 118.564 331.075 118.571Z" fill="black"/>
<path d="M338.202 126.447C337.965 126.901 337.585 127.265 337.121 127.481C336.672 127.706 336.185 127.844 335.686 127.89C335.195 127.933 334.701 127.898 334.222 127.786C333.74 127.678 333.285 127.477 332.881 127.194C333.343 127.098 333.812 127.035 334.284 127.008C334.731 126.955 335.166 126.951 335.592 126.895C336.475 126.835 337.349 126.685 338.202 126.447Z" fill="black"/>
<path d="M318.227 140.244C319.217 142.464 320.107 144.714 320.957 146.984C322.297 146.204 323.667 145.484 325.017 144.744C326.467 143.984 327.917 143.224 329.407 142.524C324.387 144.144 318.527 140.434 318.227 140.244ZM393.207 184.034C365.097 118.304 355.777 137.644 352.927 133.204C353.225 133.789 353.376 134.437 353.367 135.094C353.353 135.911 353.072 136.701 352.567 137.344C351.424 138.481 349.975 139.263 348.397 139.594C347.637 139.787 346.866 139.927 346.087 140.014L344.947 140.154C344.597 140.214 344.217 140.294 343.857 140.374C342.384 140.709 340.943 141.167 339.547 141.744C338.163 142.306 336.854 143.034 335.647 143.914L334.777 144.614L333.977 145.384L332.517 147.144C331.938 147.792 331.287 148.373 330.577 148.874C330.576 150.547 330.747 152.215 331.087 153.854C331.424 155.611 331.947 157.327 332.647 158.974C333.327 160.624 334.307 162.084 335.087 163.814C335.804 165.532 336.256 167.349 336.427 169.204C336.58 171.041 336.564 172.889 336.377 174.724C336.109 176.481 335.975 178.256 335.977 180.034C336.143 181.816 336.523 183.572 337.107 185.264C337.637 186.984 338.287 188.674 338.897 190.384C337.317 187.144 335.667 183.824 335.187 180.134C335.064 179.205 335.06 178.264 335.177 177.334L335.397 174.634C335.557 172.861 335.557 171.077 335.397 169.304C335.248 167.55 334.84 165.828 334.187 164.194C333.537 162.604 332.507 161.014 331.907 159.264C330.654 155.963 330.185 152.416 330.537 148.904C329.97 149.316 329.364 149.671 328.727 149.964C327.294 150.605 325.718 150.856 324.157 150.694C325.682 150.658 327.176 150.249 328.507 149.504C329.825 148.79 330.982 147.813 331.907 146.634L332.567 145.724L333.307 144.774L334.137 143.914L335.047 143.134C336.311 142.183 337.688 141.393 339.147 140.784C340.603 140.195 342.109 139.736 343.647 139.414C344.037 139.344 344.407 139.274 344.827 139.214L345.977 139.114C346.747 139.074 347.477 138.934 348.217 138.824C349.684 138.606 351.06 137.978 352.187 137.014C352.691 136.481 353.01 135.801 353.097 135.074C353.166 134.318 353.043 133.558 352.737 132.864C350.127 127.134 343.337 126.444 343.337 126.444C343.217 128.334 342.707 131.474 342.707 131.474C340.717 136.254 334.747 137.164 334.747 137.164C333.417 140.274 331.477 141.854 329.407 142.524C328.037 143.434 326.627 144.274 325.227 145.114C323.807 145.924 322.397 146.774 320.957 147.554H320.947C320.89 147.584 320.823 147.59 320.761 147.572C320.699 147.553 320.648 147.511 320.617 147.454L320.607 147.424C319.747 145.044 318.917 142.664 318.217 140.234C316.864 137.166 316.7 133.705 317.757 130.524C318.317 129.034 317.627 125.384 317.627 125.384C313.397 125.484 312.037 130.614 312.037 130.614C311.858 131.407 311.885 132.234 312.117 133.014C312.306 133.79 312.577 134.545 312.927 135.264C313.625 136.717 314.465 138.097 315.437 139.384C316.411 140.748 317.235 142.213 317.897 143.754C318.621 145.278 318.958 146.958 318.877 148.644C318.565 147.045 317.987 145.511 317.167 144.104C316.857 143.524 316.517 142.964 316.177 142.404C315.576 144.078 315.069 145.784 314.657 147.514C314.172 149.434 313.844 151.39 313.677 153.364C313.494 155.314 313.558 157.279 313.867 159.214C314.227 161.134 314.737 163.104 315.157 165.054C316.042 168.98 316.555 172.981 316.687 177.004C316.723 179.03 316.521 181.054 316.087 183.034C315.678 184.842 314.943 186.56 313.917 188.104C314.076 188.204 314.194 188.359 314.248 188.54C314.302 188.721 314.289 188.915 314.211 189.087C314.133 189.258 313.995 189.396 313.823 189.474C313.652 189.552 313.457 189.565 313.277 189.511C313.096 189.457 312.941 189.339 312.841 189.179C312.74 189.02 312.701 188.829 312.73 188.643C312.759 188.456 312.855 188.287 313 188.166C313.144 188.044 313.328 187.98 313.517 187.984C313.642 187.985 313.766 188.016 313.877 188.074C314.734 186.47 315.312 184.731 315.587 182.934C315.917 180.985 316.017 179.005 315.887 177.034C315.637 173.068 315.052 169.13 314.137 165.264C313.757 163.304 313.287 161.384 312.937 159.374C312.625 157.357 312.608 155.305 312.887 153.284C313.395 149.485 314.488 145.788 316.127 142.324C315.647 141.524 315.137 140.744 314.597 139.984C313.582 138.634 312.767 137.146 312.177 135.564C311.875 134.767 311.687 133.932 311.617 133.084C311.518 132.237 311.664 131.38 312.037 130.614C283.527 133.234 285.997 155.274 285.997 155.274C275.547 227.734 297.577 238.824 297.577 238.824C298.827 238.324 301.197 232.844 301.197 232.844C302.26 229.123 303.009 225.32 303.437 221.474C303.89 217.652 303.864 213.789 303.357 209.974C303.047 208.104 302.597 206.204 302.237 204.294C301.877 202.384 301.537 200.464 301.257 198.534C300.687 194.704 300.303 190.847 300.107 186.964L297.517 174.144L296.147 167.734C295.677 165.604 295.197 163.474 294.597 161.374C295.347 163.424 295.937 165.544 296.517 167.644C297.097 169.754 297.627 171.884 298.137 174.004C299.167 178.254 300.147 182.524 301.027 186.804L301.037 186.864V186.884C301.257 190.724 301.727 194.574 302.267 198.394C302.527 200.304 302.834 202.21 303.187 204.114C303.517 206.014 303.947 207.894 304.247 209.854C304.505 211.796 304.598 213.756 304.527 215.714C304.478 217.666 304.307 219.613 304.017 221.544C303.751 223.474 303.374 225.387 302.887 227.274C302.428 229.161 301.864 231.02 301.197 232.844C311.157 251.894 334.807 246.664 337.927 243.924C340.227 241.904 348.767 237.574 353.087 235.434C349.273 237.212 345.367 238.787 341.387 240.154C336.84 241.807 332.114 242.922 327.307 243.474C326.707 243.544 326.077 243.494 325.467 243.514C325.167 243.514 324.857 243.534 324.547 243.504L323.617 243.404L322.697 243.294C322.397 243.234 322.097 243.144 321.797 243.074C321.201 242.942 320.613 242.775 320.037 242.574C317.732 241.805 315.516 240.793 313.427 239.554C309.273 237.108 305.417 234.189 301.937 230.854C303.817 232.354 305.727 233.794 307.717 235.124C309.678 236.48 311.711 237.728 313.807 238.864C317.997 241.054 322.527 242.984 327.227 242.434C331.962 241.923 336.628 240.907 341.147 239.404C343.437 238.714 345.707 237.944 347.957 237.144C350.207 236.374 352.417 235.534 354.637 234.684C354.657 234.674 354.687 234.664 354.707 234.654C355.277 234.374 355.607 234.214 355.607 234.214L359.097 224.584C360.227 221.374 361.377 218.164 362.457 214.934C363.547 211.714 364.577 208.464 365.567 205.214C366.037 203.574 366.547 201.944 366.947 200.294C367.397 198.744 367.727 197.164 368.127 195.584C366.927 193.894 365.777 192.154 364.697 190.384C362.87 187.454 361.298 184.372 359.997 181.174C359.407 179.514 358.877 177.964 358.157 176.424C357.45 174.883 356.662 173.381 355.797 171.924C354.947 170.454 354.017 169.024 353.037 167.624C352.087 166.204 351.057 164.844 349.997 163.494C352.432 165.929 354.604 168.614 356.477 171.504C357.436 172.943 358.295 174.446 359.047 176.004C359.77 177.569 360.411 179.171 360.967 180.804C362.251 183.951 363.727 187.017 365.387 189.984C366.197 191.484 367.047 192.964 367.917 194.434C368.767 195.924 369.657 197.384 370.547 198.854C369.717 197.804 368.927 196.714 368.147 195.624C367.758 198.926 367.154 202.2 366.337 205.424C365.527 208.744 364.507 212.014 363.437 215.264C362.337 218.504 361.147 221.714 359.837 224.874C358.527 228.034 357.157 231.164 355.607 234.214C358.837 242.684 371.547 251.644 371.547 251.644C404.037 200.844 393.207 184.034 393.207 184.034V184.034ZM339.167 190.604C339.369 190.611 339.561 190.696 339.701 190.841C339.842 190.987 339.921 191.181 339.921 191.384C339.921 191.586 339.842 191.78 339.701 191.926C339.561 192.071 339.369 192.157 339.167 192.164C338.965 192.157 338.773 192.071 338.633 191.926C338.492 191.78 338.414 191.586 338.414 191.384C338.414 191.181 338.492 190.987 338.633 190.842C338.773 190.696 338.965 190.611 339.167 190.604L339.167 190.604ZM350.437 225.324C352.247 224.864 354.067 224.474 355.917 224.194C354.833 223.142 353.916 221.932 353.197 220.604C352.79 219.869 352.442 219.103 352.157 218.314C351.906 217.512 351.712 216.693 351.577 215.864C351.319 214.208 351.305 212.523 351.537 210.864C351.757 209.213 352.205 207.601 352.867 206.074C352.266 207.621 351.876 209.242 351.707 210.894C351.523 212.533 351.58 214.191 351.877 215.814C352.03 216.619 352.244 217.411 352.517 218.184C352.813 218.946 353.168 219.685 353.577 220.394C354.414 221.8 355.455 223.074 356.667 224.174C356.693 224.199 356.714 224.229 356.728 224.263C356.742 224.296 356.749 224.332 356.749 224.369C356.749 224.405 356.742 224.441 356.728 224.475C356.714 224.508 356.693 224.538 356.667 224.564C356.626 224.612 356.569 224.644 356.507 224.654C354.518 224.979 352.548 225.413 350.607 225.954C348.657 226.494 346.727 227.104 344.837 227.804C341.05 229.202 337.395 230.935 333.917 232.984H333.907C333.873 233.006 333.836 233.023 333.797 233.034C331.538 233.526 329.245 233.847 326.937 233.994C324.632 234.139 322.32 234.129 320.017 233.964C317.709 233.799 315.418 233.448 313.167 232.914C310.909 232.38 308.706 231.637 306.587 230.694C306.492 230.657 306.411 230.59 306.357 230.503C306.303 230.417 306.279 230.315 306.287 230.214V230.204L307.597 205.424C307.604 205.306 307.657 205.195 307.745 205.117C307.834 205.038 307.949 204.997 308.067 205.004C308.084 205.006 308.101 205.009 308.117 205.014C311.577 205.604 315.097 206.044 318.607 206.344C322.117 206.644 325.647 206.814 329.177 206.784C332.704 206.769 336.228 206.538 339.727 206.094C343.227 205.609 346.668 204.768 349.997 203.584C346.707 204.905 343.279 205.854 339.777 206.414C336.272 206.965 332.734 207.282 329.187 207.364C325.637 207.454 322.087 207.334 318.547 207.094C315.177 206.844 311.817 206.514 308.467 205.964L307.327 229.894C309.293 230.74 311.327 231.419 313.407 231.924C315.599 232.466 317.834 232.821 320.087 232.984C322.346 233.167 324.615 233.19 326.877 233.054C329.113 232.929 331.337 232.632 333.527 232.164C335.287 231.174 337.057 230.194 338.907 229.384C340.761 228.529 342.656 227.768 344.587 227.104C346.507 226.424 348.467 225.834 350.437 225.324L350.437 225.324ZM357.617 140.684C356.704 141.136 355.851 141.701 355.077 142.364C354.301 143.021 353.618 143.782 353.047 144.624C352.467 145.478 351.968 146.386 351.557 147.334C351.697 146.834 351.827 146.324 352.007 145.824C352.208 145.335 352.442 144.861 352.707 144.404C353.24 143.481 353.93 142.658 354.747 141.974C356.359 140.572 358.393 139.748 360.527 139.634C359.519 139.869 358.543 140.222 357.617 140.684H357.617Z" fill="black"/>
<path d="M371.636 251.64C372.004 256.767 372.352 261.894 372.62 267.025C372.9 272.154 373.204 277.283 373.41 282.416L374.081 297.812C374.278 302.945 374.408 308.081 374.498 313.218L374.498 313.257C374.5 313.348 374.48 313.438 374.44 313.521C374.401 313.604 374.343 313.676 374.271 313.732C371.514 315.849 368.541 317.666 365.4 319.154C362.279 320.654 358.989 321.774 355.6 322.489C352.196 323.186 348.69 323.232 345.269 322.624C341.844 321.96 338.612 320.535 335.81 318.456L336.091 318.523C332.443 319.18 328.759 319.621 325.058 319.843C321.348 320.096 317.624 320.071 313.918 319.767C310.171 319.488 306.476 318.727 302.924 317.503C299.26 316.288 295.986 314.119 293.438 311.219C293.363 311.129 293.307 311.024 293.273 310.912C293.239 310.8 293.228 310.681 293.241 310.565L293.243 310.543C293.909 304.602 294.486 298.632 295.018 292.668C295.571 286.703 296.023 280.73 296.459 274.755C296.862 268.778 297.135 262.795 297.373 256.808C297.541 250.82 297.609 244.829 297.487 238.829C297.487 238.805 297.495 238.782 297.512 238.765C297.528 238.747 297.55 238.737 297.574 238.737C297.597 238.736 297.619 238.744 297.636 238.76C297.653 238.775 297.664 238.796 297.666 238.818C298.594 250.806 298.737 262.841 298.094 274.847C297.837 280.851 297.421 286.847 296.929 292.835C296.406 298.823 295.791 304.794 295.014 310.766L294.819 310.09C297.139 312.782 300.133 314.81 303.494 315.966C306.903 317.2 310.451 318.005 314.058 318.364C317.695 318.75 321.354 318.889 325.01 318.78C328.677 318.682 332.334 318.36 335.961 317.814L335.977 317.811C336.024 317.804 336.072 317.807 336.117 317.818C336.163 317.83 336.205 317.851 336.243 317.88C338.925 319.96 342.052 321.391 345.379 322.06C348.721 322.69 352.157 322.624 355.472 321.863C358.794 321.137 362 319.952 364.996 318.343C367.999 316.779 370.83 314.905 373.443 312.751L373.215 313.266C372.92 308.136 372.665 303.006 372.477 297.872L371.993 282.469C371.815 277.336 371.733 272.198 371.628 267.062C371.512 261.926 371.475 256.787 371.457 251.647C371.457 251.624 371.466 251.601 371.482 251.584C371.498 251.567 371.52 251.557 371.544 251.556C371.567 251.555 371.59 251.564 371.607 251.579C371.624 251.595 371.635 251.617 371.636 251.64L371.636 251.64Z" fill="black"/>
<path d="M326.835 259.693C325.324 259.611 323.824 259.388 322.354 259.026C320.875 258.682 319.428 258.214 318.027 257.629C316.609 257.052 315.266 256.308 314.026 255.412C312.767 254.532 311.723 253.38 310.971 252.04C312 253.106 313.174 254.022 314.458 254.762C315.728 255.505 317.05 256.155 318.414 256.707C319.768 257.294 321.165 257.791 322.57 258.28C323.98 258.753 325.395 259.238 326.835 259.693Z" fill="black"/>
<path d="M336.026 318.168L334.759 310.645L333.465 303.132C332.577 298.129 331.689 293.127 330.642 288.158C330.171 285.663 329.623 283.185 329.098 280.701C328.523 278.23 327.948 275.758 327.325 273.299C326.739 270.829 326.028 268.394 325.305 265.962L324.154 262.333L322.823 258.76C324.999 263.373 326.754 268.172 328.068 273.099C329.477 277.999 330.583 282.976 331.621 287.961C332.589 292.96 333.494 297.971 334.221 303.01C334.949 308.047 335.6 313.096 336.026 318.168Z" fill="black"/>
<path d="M327.177 319.191C326.418 314.772 325.837 310.327 325.321 305.875C324.804 301.423 324.431 296.955 324.097 292.483C323.845 288.006 323.624 283.521 323.69 279.029C323.733 276.784 323.815 274.537 324.027 272.297C324.185 270.049 324.68 267.838 325.496 265.737C324.869 267.881 324.54 270.1 324.516 272.334C324.404 274.561 324.409 276.795 324.459 279.027C324.553 283.492 324.764 287.955 325.094 292.417C325.343 296.882 325.731 301.34 326.083 305.801L327.177 319.191Z" fill="black"/>
<path d="M371.728 270.934C368.855 271.377 365.961 271.67 363.057 271.812L363.721 271.106C363.795 272.575 363.876 274.044 363.857 275.517C363.842 276.989 363.766 278.463 363.717 279.936C363.597 282.879 363.688 285.828 363.99 288.758C364.113 290.226 364.281 291.692 364.389 293.161C364.498 294.629 364.573 296.098 364.655 297.567C364.848 300.505 364.926 303.446 364.922 306.39L364.252 305.645C365.028 305.773 365.864 305.851 366.675 305.907C367.489 305.954 368.305 305.959 369.12 305.923C369.923 305.886 370.716 305.737 371.478 305.482C372.253 305.261 372.914 304.75 373.321 304.054C373.33 304.036 373.345 304.023 373.364 304.016C373.382 304.009 373.402 304.009 373.421 304.016C373.439 304.023 373.455 304.036 373.464 304.053C373.473 304.071 373.476 304.091 373.471 304.11C373.336 304.54 373.114 304.937 372.821 305.279C372.528 305.62 372.168 305.899 371.764 306.098C370.977 306.51 370.133 306.801 369.259 306.961C368.402 307.129 367.532 307.227 366.659 307.253C365.785 307.287 364.91 307.264 364.039 307.183C363.865 307.168 363.703 307.092 363.58 306.967C363.458 306.842 363.385 306.678 363.373 306.504L363.369 306.438C363.18 303.501 363.073 300.561 363.081 297.617C363.071 296.146 363.053 294.674 363.069 293.202C363.085 291.73 363.16 290.256 363.191 288.783C363.308 285.84 363.214 282.892 362.909 279.962C362.768 278.494 362.599 277.028 362.492 275.559C362.38 274.091 362.369 272.62 362.35 271.149L362.35 271.119C362.349 271.031 362.365 270.944 362.398 270.862C362.43 270.781 362.479 270.706 362.54 270.644C362.601 270.581 362.675 270.53 362.755 270.496C362.836 270.461 362.923 270.443 363.011 270.442H363.014C365.921 270.401 368.828 270.512 371.723 270.774C371.743 270.775 371.761 270.784 371.774 270.799C371.788 270.813 371.796 270.832 371.796 270.852C371.797 270.871 371.79 270.89 371.778 270.906C371.765 270.921 371.748 270.931 371.728 270.934H371.728Z" fill="black"/>
<path d="M372.044 277.187C370.678 277.817 369.239 278.274 367.76 278.547C366.289 278.863 364.784 278.99 363.281 278.928C364.646 278.295 366.085 277.838 367.565 277.567C369.036 277.254 370.541 277.126 372.044 277.187Z" fill="black"/>
<path d="M372.89 313.999C373.258 315.388 373.603 316.784 373.924 318.186C374.064 318.874 374.26 319.55 374.508 320.207C374.815 320.829 375.188 321.417 375.62 321.961C376.046 322.527 376.456 323.16 376.876 323.696C377.288 324.249 377.764 324.794 378.22 325.34C379.149 326.429 380.091 327.519 381 328.636C384.718 333.068 388.056 337.805 390.978 342.798C392.466 345.282 393.773 347.872 395.01 350.491C395.621 351.804 396.176 353.143 396.754 354.471L398.278 358.54L399.599 362.675C399.997 364.044 400.423 365.405 400.877 366.758C401.77 369.469 402.798 372.134 403.906 374.773L403.894 374.75L403.946 374.867L403.958 374.889L405.395 378.208C405.894 379.307 406.323 380.441 406.752 381.568C405.653 379.419 404.466 377.324 403.342 375.184L403.353 375.206L403.291 375.094L403.279 375.071C401.932 372.515 400.734 369.882 399.691 367.187C399.17 365.839 398.678 364.48 398.214 363.11L396.784 359.082C394.749 353.764 392.299 348.613 389.457 343.678C388.059 341.197 386.51 338.805 384.949 336.42C383.355 334.055 381.685 331.739 379.97 329.449L377.372 326.016C376.487 324.866 375.68 323.658 374.956 322.4C374.545 321.78 374.202 321.118 373.934 320.425C373.73 319.719 373.584 318.997 373.498 318.268L372.89 313.999Z" fill="black"/>
<path d="M392.667 396.209C390.678 393.015 388.719 389.811 386.667 386.665C384.658 383.494 382.613 380.349 380.493 377.259C378.35 374.177 376.239 371.097 373.946 368.148C371.745 365.17 369.285 362.392 366.596 359.846C365.294 358.671 363.65 357.535 362.288 356.206C361.57 355.571 360.893 354.897 360.233 354.207C359.553 353.536 358.918 352.826 358.296 352.105C355.803 349.234 353.562 346.155 351.596 342.901C349.627 339.664 347.911 336.28 346.464 332.779C345.025 329.283 344.011 325.627 343.442 321.89C344.344 325.527 345.626 329.059 347.268 332.427C348.85 335.806 350.685 339.061 352.759 342.162C354.809 345.262 357.084 348.209 359.563 350.978C360.189 351.661 360.803 352.355 361.468 352.996C362.112 353.66 362.771 354.307 363.467 354.912C364.806 356.202 366.291 357.185 367.791 358.513C370.551 361.149 373.063 364.033 375.295 367.129C377.534 370.175 379.66 373.307 381.64 376.507C383.632 379.707 385.557 382.944 387.415 386.217C389.219 389.521 391.031 392.819 392.667 396.209Z" fill="black"/>
<path d="M332.356 318.284C331.822 318.456 331.354 318.785 331.011 319.229C330.653 319.652 330.351 320.121 330.115 320.623C329.625 321.62 329.251 322.67 329 323.753C328.741 324.836 328.548 325.934 328.422 327.04C328.36 327.595 328.283 328.146 328.235 328.701L328.137 330.372C327.93 334.839 328.017 339.315 328.396 343.77L329.659 357.19C330.032 361.679 330.32 366.178 330.482 370.691C330.652 375.218 330.566 379.752 330.224 384.269C330.019 386.539 329.686 388.796 329.227 391.028C328.994 392.143 328.736 393.248 328.453 394.343C328.182 395.406 327.972 396.484 327.823 397.571C327.296 402.013 327.011 406.48 326.968 410.953C326.81 415.442 326.817 419.937 326.794 424.437C325.965 415.448 325.852 406.407 326.455 397.4C326.571 396.255 326.751 395.116 326.994 393.991C327.242 392.9 327.482 391.814 327.687 390.724C328.093 388.543 328.376 386.341 328.534 384.128C328.828 379.674 328.881 375.208 328.693 370.748C328.567 366.273 328.286 361.796 327.973 357.32C327.683 352.843 327.246 348.375 327.027 343.855C326.803 339.336 326.883 334.808 327.267 330.3L327.467 328.613C327.549 328.052 327.661 327.494 327.757 326.935C327.953 325.817 328.216 324.712 328.545 323.625C328.867 322.533 329.315 321.481 329.88 320.492C330.164 319.996 330.511 319.541 330.913 319.136C331.298 318.714 331.8 318.417 332.356 318.284Z" fill="black"/>
<path d="M299.401 314.984C298.874 316.585 298.56 318.248 298.469 319.93C298.361 321.604 298.386 323.284 298.545 324.954C298.706 326.62 298.96 328.276 299.305 329.914C299.471 330.734 299.686 331.544 299.873 332.358L300.565 334.77C300.573 334.799 300.579 334.829 300.583 334.86L302.01 345.934L303.34 357.022C304.162 364.421 305.094 371.813 305.733 379.224C306.413 386.638 306.992 394.064 307.367 401.506C307.542 405.227 307.747 408.948 307.752 412.678C307.767 414.541 307.756 416.407 307.686 418.271C307.664 420.138 307.47 421.999 307.105 423.83C307.311 421.983 307.371 420.124 307.287 418.268C307.246 416.412 307.148 414.557 307.023 412.704C306.758 408.998 306.51 405.291 306.174 401.589C305.496 394.186 304.757 386.788 304.011 379.39L303.45 373.837L302.829 368.294L301.634 357.204L300.506 346.106L299.474 334.995L299.493 335.084L298.875 332.6C298.713 331.761 298.525 330.928 298.386 330.086C298.103 328.402 297.935 326.701 297.881 324.994C297.819 323.291 297.894 321.585 298.103 319.893C298.297 318.203 298.734 316.549 299.401 314.984Z" fill="black"/>
<path d="M364.903 330.507C365.423 331.194 365.845 331.949 366.158 332.751C366.482 333.555 366.711 334.394 366.84 335.25C366.983 336.13 366.948 337.03 366.737 337.896C366.646 338.337 366.462 338.754 366.197 339.118C365.933 339.482 365.593 339.786 365.202 340.009C365.662 339.344 365.927 338.565 365.969 337.759C366.021 336.967 365.981 336.172 365.851 335.389C365.631 333.788 365.218 332.196 364.903 330.507Z" fill="black"/>
<path d="M313.056 328.062C313.325 329.878 313.178 331.731 312.625 333.482C312.343 334.386 311.888 335.227 311.286 335.958C310.993 336.344 310.604 336.646 310.158 336.834C309.712 337.022 309.224 337.089 308.743 337.029C309.562 336.788 310.253 336.233 310.665 335.484C311.087 334.755 311.426 333.98 311.675 333.174C312.199 331.53 312.562 329.816 313.056 328.062Z" fill="black"/>
<path d="M373.823 312.167C374.203 314.173 374.417 316.206 374.462 318.247C374.547 320.287 374.462 322.33 374.206 324.355C373.824 322.35 373.61 320.316 373.567 318.275C373.484 316.236 373.569 314.193 373.823 312.167Z" fill="black"/>
<path d="M428.827 395.234C428.268 393.913 427.409 392.741 426.316 391.812C425.224 390.883 423.93 390.223 422.537 389.884C419.147 389.024 416.167 384.864 416.167 384.864C416.167 384.864 412.417 377.014 408.547 379.134C406.127 380.454 406.247 384.234 406.687 386.884C406.931 388.182 406.909 389.516 406.622 390.805C406.335 392.094 405.789 393.312 405.017 394.384C401.627 398.784 396.797 397.644 394.687 396.854C393.7 396.451 392.6 396.426 391.597 396.784C386.867 398.564 391.417 405.634 391.417 405.634C391.928 404.774 392.621 404.037 393.447 403.474C394.279 402.881 395.22 402.459 396.217 402.234C397.21 401.999 398.241 401.969 399.247 402.144C400.248 402.288 401.194 402.695 401.987 403.324C400.165 403.174 398.331 403.298 396.547 403.694C395.683 403.897 394.837 404.168 394.017 404.504C393.157 404.824 392.347 405.254 391.417 405.634C391.417 405.634 390.467 408.554 389.117 412.634C389.87 412.011 390.717 411.512 391.627 411.154C392.524 410.772 393.464 410.5 394.427 410.344C395.426 410.186 396.447 410.213 397.437 410.424C397.955 410.501 398.445 410.711 398.858 411.034C399.272 411.356 399.595 411.78 399.797 412.264C399.054 411.766 398.169 411.527 397.277 411.584C396.399 411.614 395.524 411.697 394.657 411.834L391.947 412.274C391.037 412.424 390.107 412.564 389.117 412.634C388.397 414.834 387.557 417.364 386.687 419.964C387.383 419.245 388.207 418.662 389.117 418.244C390.022 417.795 390.995 417.498 391.997 417.364C393.023 417.215 394.069 417.283 395.067 417.564C396.064 417.853 396.943 418.452 397.577 419.274C396.695 418.981 395.782 418.793 394.857 418.714C393.968 418.682 393.078 418.725 392.197 418.844C390.417 419.084 388.647 419.574 386.687 419.964C385.237 424.324 383.707 428.864 382.507 432.284C379.277 441.524 383.016 442.914 383.016 442.914C382.676 442.505 382.436 442.024 382.314 441.506C382.193 440.989 382.194 440.45 382.317 439.934C382.542 439.43 382.889 438.992 383.328 438.658C383.766 438.324 384.282 438.106 384.827 438.024C385.368 437.92 385.924 437.917 386.467 438.014C386.988 438.121 387.498 438.282 387.987 438.494C388.908 438.809 389.886 438.928 390.857 438.844C392.806 438.595 394.635 437.766 396.107 436.464C397.604 435.173 398.931 433.698 400.057 432.074L400.097 432.014C401.967 428.724 403.977 425.514 406.087 422.354C407.157 420.774 408.267 419.214 409.437 417.694C410.027 416.934 410.637 416.184 411.297 415.464C411.627 415.104 411.997 414.764 412.337 414.414C412.717 414.094 413.177 413.724 413.507 413.474C414.941 412.306 416.261 411.003 417.447 409.584C418.667 408.164 419.817 406.664 420.897 405.124C421.973 403.574 422.971 401.972 423.887 400.324C424.851 398.698 425.48 396.896 425.737 395.024C425.678 396.945 425.196 398.829 424.327 400.544C423.549 402.294 422.643 403.986 421.617 405.604C420.597 407.214 419.497 408.78 418.317 410.304C417.15 411.868 415.804 413.291 414.307 414.544C412.894 415.717 411.643 417.072 410.587 418.574C409.447 420.074 408.377 421.624 407.327 423.184C405.217 426.324 403.207 429.544 401.247 432.764L401.237 432.794L401.207 432.824C399.971 434.543 398.503 436.084 396.847 437.404C395.146 438.763 393.077 439.582 390.907 439.754C389.817 439.793 388.731 439.605 387.717 439.204C387.276 438.976 386.814 438.791 386.337 438.654C385.871 438.531 385.385 438.497 384.907 438.554C384.427 438.589 383.963 438.745 383.558 439.005C383.153 439.265 382.819 439.622 382.587 440.044C382.44 440.524 382.403 441.031 382.478 441.527C382.552 442.024 382.736 442.497 383.017 442.914C391.047 451.444 402.727 436.124 409.877 422.874C417.027 409.624 422.537 407.314 422.537 407.314C430.097 403.474 430.297 398.784 428.827 395.234ZM415.297 401.834C415.067 405.524 411.097 406.874 409.567 405.904C408.037 404.944 408.117 401.554 409.747 398.344C411.377 395.134 413.947 393.314 415.477 394.274C417.007 395.234 415.557 397.544 415.297 401.834V401.834Z" fill="black"/>
<path d="M333.697 442.654C331.777 439.404 332.277 434.154 332.277 434.154C332.277 434.154 334.587 425.664 330.387 424.164C327.767 423.214 325.427 426.004 324.037 428.224C323.406 429.315 322.532 430.245 321.483 430.943C320.433 431.64 319.237 432.085 317.987 432.244C312.667 432.734 309.867 428.184 308.837 425.984C308.387 424.945 307.611 424.082 306.627 423.524C302.017 421.124 300.787 429.664 300.787 429.664C301.81 429.482 302.862 429.526 303.867 429.794C304.892 430.041 305.857 430.489 306.707 431.114C307.566 431.719 308.303 432.483 308.877 433.364C309.474 434.218 309.862 435.201 310.007 436.234C308.776 434.773 307.376 433.464 305.837 432.334C305.087 431.785 304.291 431.303 303.457 430.894C302.627 430.444 301.727 430.114 300.787 429.664C300.787 429.664 298.217 430.994 294.607 432.844C295.614 433.025 296.59 433.349 297.507 433.804C298.428 434.249 299.297 434.796 300.097 435.434C300.921 436.087 301.622 436.883 302.167 437.784C302.478 438.228 302.684 438.737 302.769 439.272C302.854 439.807 302.815 440.355 302.657 440.874C302.405 439.959 301.911 439.13 301.227 438.474C300.571 437.806 299.877 437.178 299.147 436.594L296.887 434.794C296.094 434.183 295.333 433.532 294.607 432.844C292.667 433.844 290.417 434.984 288.117 436.164C289.159 436.228 290.182 436.479 291.137 436.904C292.11 437.314 293.016 437.867 293.827 438.544C294.651 439.237 295.339 440.078 295.857 441.024C296.36 441.976 296.585 443.05 296.507 444.124C296.036 443.261 295.491 442.441 294.877 441.674C294.249 440.966 293.574 440.301 292.857 439.684C291.397 438.454 289.797 437.404 288.117 436.164H288.107C284.237 438.134 280.187 440.164 277.107 441.664C268.787 445.714 270.627 449.594 270.627 449.594C270.666 449.068 270.798 448.553 271.017 448.074C271.228 447.556 271.629 447.138 272.137 446.904C272.668 446.707 273.251 446.7 273.787 446.884C274.318 447.036 274.814 447.29 275.247 447.634C276.09 448.337 276.738 449.246 277.127 450.274C277.568 451.165 278.164 451.97 278.887 452.654C279.606 453.331 280.43 453.888 281.327 454.304C282.241 454.697 283.197 454.982 284.177 455.154C286.148 455.457 288.154 455.46 290.127 455.164H290.147C293.687 454.294 297.26 453.557 300.867 452.954C302.677 452.664 304.487 452.414 306.327 452.244C307.247 452.164 308.177 452.124 309.117 452.114C309.587 452.124 310.067 452.164 310.537 452.184C311.007 452.254 311.577 452.344 311.967 452.414C313.708 452.701 315.475 452.801 317.237 452.714C319.038 452.654 320.834 452.494 322.617 452.234C324.403 451.975 326.173 451.611 327.917 451.144C328.784 450.9 329.632 450.596 330.457 450.234C331.294 449.886 332.063 449.392 332.727 448.774C331.436 450.094 329.834 451.067 328.067 451.604C326.343 452.238 324.571 452.729 322.767 453.074C320.959 453.432 319.133 453.685 317.297 453.834C315.432 454.023 313.551 453.983 311.697 453.714C309.961 453.443 308.195 453.433 306.457 453.684C304.677 453.864 302.887 454.124 301.107 454.414C297.547 455.024 293.977 455.734 290.447 456.524H290.427L290.377 456.534C288.234 456.818 286.06 456.758 283.937 456.354C282.869 456.12 281.834 455.754 280.857 455.264C279.881 454.758 278.994 454.1 278.227 453.314C277.471 452.518 276.859 451.598 276.417 450.594C276.245 450.117 276.041 449.652 275.807 449.204C275.561 448.778 275.255 448.39 274.897 448.054C274.537 447.722 274.115 447.464 273.657 447.294C273.213 447.099 272.716 447.06 272.247 447.184C271.8 447.422 271.418 447.766 271.136 448.186C270.853 448.606 270.678 449.09 270.627 449.594C271.007 461.884 289.417 460.074 303.177 456.224C316.947 452.374 322.467 455.014 322.467 455.014C330.477 458.154 333.637 454.994 334.847 451.324C335.28 449.879 335.402 448.36 335.204 446.865C335.005 445.37 334.492 443.935 333.697 442.654ZM320.697 445.504C318.157 447.944 314.387 445.824 313.887 443.954C313.387 442.074 315.627 439.744 318.897 438.724C322.157 437.714 325.207 438.414 325.707 440.284C326.207 442.154 323.657 442.674 320.697 445.504V445.504Z" fill="black"/>
<path d="M359.838 261.606C358.943 261.477 358.075 261.203 357.269 260.793C356.448 260.394 355.687 259.882 355.007 259.273C354.324 258.644 353.759 257.896 353.341 257.067C352.945 256.232 352.781 255.305 352.865 254.384C353.158 255.192 353.545 255.962 354.018 256.679C354.511 257.351 355.068 257.973 355.682 258.536C356.311 259.104 356.974 259.635 357.667 260.125C358.368 260.623 359.088 261.108 359.838 261.606Z" fill="black"/>
<path d="M306.795 245.033C306.866 245.786 306.805 246.545 306.616 247.277C306.444 248.022 306.156 248.736 305.764 249.393C305.365 250.073 304.82 250.656 304.168 251.098C303.511 251.533 302.723 251.726 301.939 251.645C302.582 251.359 303.172 250.967 303.685 250.485C304.159 250.002 304.57 249.461 304.909 248.875C305.605 247.629 306.235 246.346 306.795 245.033Z" fill="black"/>
<path d="M420.319 373.651C414.534 373.604 408.75 373.578 402.965 373.573C403.172 374.024 403.38 374.476 403.593 374.922C409.17 374.906 414.742 374.891 420.319 374.844L455.478 374.626C467.198 374.497 478.918 374.424 490.638 374.248C478.918 374.071 467.198 373.999 455.478 373.869L420.319 373.651Z" fill="black"/>
<path d="M350 373.469L329.658 373.511C329.663 374.014 329.668 374.507 329.673 374.984L350 375.026L379.795 374.963C379.479 374.481 379.152 374.004 378.83 373.526L350 373.469Z" fill="black"/>
<path d="M209.362 374.248C221.082 374.424 232.802 374.502 244.522 374.631L279.681 374.844C287.935 374.912 296.19 374.922 304.444 374.938C304.397 374.476 304.351 374.019 304.309 373.557C296.096 373.573 287.889 373.583 279.681 373.651L244.522 373.864C232.802 373.993 221.082 374.071 209.362 374.248Z" fill="black"/>
</svg>
