<svg width="400" height="550" viewBox="0 0 700 550" fill="none" xmlns="http://www.w3.org/2000/svg">
<path d="M340.078 398.813C338.325 398.965 336.56 398.844 334.844 398.454C333.111 398.018 331.455 397.321 329.931 396.387C328.415 395.413 327.05 394.223 325.877 392.856C324.728 391.462 323.809 389.895 323.153 388.212C322.561 386.522 322.211 384.758 322.113 382.97C322.072 381.208 322.233 379.448 322.593 377.723C322.981 376.016 323.568 374.36 324.342 372.789C325.152 371.223 326.152 369.763 327.318 368.441C328.53 367.127 329.925 365.994 331.46 365.078C333.03 364.185 334.723 363.529 336.484 363.131C338.263 362.769 340.082 362.647 341.893 362.768C343.708 362.94 345.488 363.377 347.176 364.066C348.84 364.801 350.392 365.767 351.785 366.937C353.137 368.134 354.312 369.518 355.274 371.047C356.184 372.584 356.869 374.243 357.307 375.974C357.699 377.687 357.828 379.449 357.691 381.201H357.497C357.315 379.515 356.937 377.856 356.37 376.258C355.775 374.708 354.981 373.241 354.008 371.895C353.018 370.589 351.872 369.411 350.594 368.386C349.3 367.406 347.885 366.595 346.386 365.973C344.879 365.381 343.304 364.978 341.698 364.776C340.079 364.608 338.444 364.655 336.838 364.917C335.229 365.225 333.666 365.734 332.185 366.431C330.705 367.179 329.322 368.106 328.067 369.19C326.836 370.335 325.776 371.652 324.921 373.1C324.105 374.582 323.527 376.183 323.209 377.844C322.944 379.507 322.936 381.201 323.185 382.866C323.46 384.499 323.95 386.089 324.641 387.595C325.341 389.074 326.2 390.474 327.201 391.768C329.286 394.35 332.03 396.32 335.143 397.468C336.739 398.037 338.395 398.424 340.078 398.62V398.813Z" fill="#020202"/>
<path d="M233.9 398.717C243.574 398.717 251.416 390.875 251.416 381.201C251.416 371.527 243.574 363.685 233.9 363.685C224.226 363.685 216.384 371.527 216.384 381.201C216.384 390.875 224.226 398.717 233.9 398.717Z" fill="#020202"/>
<path d="M466.905 405.412C473.59 405.412 479.01 399.992 479.01 393.306C479.01 386.621 473.59 381.201 466.905 381.201C460.219 381.201 454.799 386.621 454.799 393.306C454.799 399.992 460.219 405.412 466.905 405.412Z" fill="#020202"/>
<path d="M340.953 234.106C335.651 239.039 330.4 244.001 325.202 248.991C320.006 253.991 314.947 259.107 309.937 264.264C307.406 266.82 304.955 269.453 302.586 272.163C300.198 274.856 298.01 277.718 296.038 280.729C294.043 283.709 292.439 286.932 291.265 290.321C290.158 293.673 289.688 297.343 290.767 300.538L290.722 300.42C294.174 306.392 297.97 312.16 302.09 317.693C303.092 319.1 304.161 320.459 305.216 321.827C306.257 323.205 307.341 324.551 308.443 325.883C310.577 328.601 312.852 331.205 315.055 333.868C317.335 336.467 319.578 339.1 321.931 341.638C323.101 342.912 324.248 344.209 325.438 345.467L329.024 349.228L330.81 351.119L332.644 352.963L336.315 356.656C338.787 359.097 341.32 361.476 343.783 363.949C343.797 363.962 343.808 363.978 343.816 363.995C343.824 364.012 343.828 364.031 343.829 364.05C343.829 364.069 343.826 364.088 343.819 364.106C343.812 364.124 343.802 364.141 343.789 364.155C343.764 364.18 343.731 364.195 343.696 364.198C343.66 364.201 343.625 364.192 343.596 364.171C342.199 363.129 340.821 362.061 339.443 360.989C338.077 359.906 336.652 358.885 335.342 357.733L331.36 354.329L329.367 352.625L327.442 350.846L323.608 347.266C322.351 346.051 321.14 344.789 319.903 343.552C317.394 341.109 315.112 338.451 312.729 335.885C310.457 333.221 308.174 330.564 306.048 327.778C304.969 326.398 303.909 325.004 302.891 323.577C301.861 322.16 300.817 320.755 299.839 319.299C297.833 316.427 295.909 313.496 294.134 310.47C292.307 307.461 290.652 304.351 289.177 301.155L289.158 301.115C289.147 301.089 289.138 301.063 289.131 301.036C288.675 299.174 288.581 297.242 288.854 295.344C289.137 293.509 289.617 291.71 290.285 289.977C291.627 286.578 293.293 283.316 295.26 280.236C299.123 274.062 303.444 268.187 308.185 262.659C313.001 257.211 318.172 252.088 323.665 247.324C329.097 242.508 334.81 238.018 340.774 233.878C340.806 233.856 340.845 233.847 340.883 233.854C340.921 233.861 340.954 233.883 340.976 233.915C340.996 233.944 341.004 233.98 341 234.014C340.996 234.049 340.979 234.082 340.953 234.106Z" fill="#020202"/>
<path d="M422.261 226.444C423.921 228.756 424.932 231.47 425.19 234.305C425.356 237.214 424.684 240.109 423.254 242.648C420.454 247.744 415.976 251.501 411.369 254.658C406.713 257.769 401.758 260.406 396.578 262.53C391.425 264.639 386.144 266.42 380.766 267.862L381.276 267.322C379.559 274.362 378.936 281.623 379.428 288.852C379.621 292.473 379.995 296.082 380.551 299.665C380.805 301.458 381.134 303.242 381.443 305.026C381.807 306.802 382.122 308.584 382.534 310.348C383.3 313.885 384.127 317.409 385.085 320.89L385.823 323.488C386.105 324.378 386.285 325.27 386.508 326.152L387.792 331.465L390.362 342.093L392.822 352.749L392.825 352.761C392.904 353.104 392.863 353.464 392.707 353.78C392.552 354.097 392.292 354.349 391.972 354.496L385.148 357.626C384.003 358.134 382.892 358.706 381.76 359.239L378.377 360.86L379.004 359.059L382.133 366.132L382.166 366.208C382.226 366.344 382.257 366.49 382.258 366.639C382.258 366.787 382.228 366.934 382.169 367.07C381.877 367.702 381.439 368.256 380.891 368.686C380.462 369.037 380.01 369.357 379.537 369.644C378.649 370.184 377.729 370.669 376.781 371.095C374.922 371.937 373.041 372.656 371.149 373.33C369.257 374 367.354 374.622 365.443 375.211C363.523 375.776 361.601 376.313 359.662 376.812L359.629 376.821C359.577 376.834 359.523 376.835 359.47 376.823C359.418 376.812 359.369 376.789 359.327 376.755C358.159 375.813 357.006 374.853 355.854 373.893C355.825 373.868 355.806 373.832 355.803 373.794C355.799 373.756 355.811 373.718 355.836 373.688C355.859 373.661 355.892 373.643 355.927 373.638C355.963 373.633 355.999 373.641 356.029 373.661C357.284 374.482 358.537 375.302 359.776 376.14L359.441 376.083C361.309 375.414 363.17 374.705 365.015 373.972C366.868 373.26 368.707 372.519 370.522 371.735C372.335 370.949 374.127 370.121 375.84 369.201C376.69 368.734 377.531 368.261 378.294 367.736C378.661 367.489 379.011 367.217 379.34 366.921C379.571 366.725 379.762 366.486 379.903 366.218L379.939 367.156L376.526 360.216C376.372 359.901 376.346 359.539 376.456 359.206C376.566 358.873 376.802 358.596 377.113 358.436L377.153 358.415C379.387 357.263 381.595 356.049 383.863 354.966L390.655 351.694L389.805 353.442L387.378 342.814L385.061 332.159L383.902 326.83C383.7 325.943 383.539 325.045 383.29 324.193C383.046 323.301 382.846 322.406 382.631 321.513C381.818 317.934 381.069 314.348 380.518 310.726C379.377 303.498 378.699 296.205 378.488 288.891C378.174 281.564 378.629 274.224 379.847 266.992C379.869 266.874 379.921 266.764 380 266.672C380.079 266.581 380.18 266.513 380.294 266.474L380.358 266.453C385.539 264.66 390.622 262.595 395.586 260.269C398.067 259.117 400.535 257.945 402.938 256.662C405.358 255.424 407.714 254.064 409.996 252.586C414.512 249.649 418.873 246.24 421.684 241.749C423.12 239.535 423.928 236.973 424.022 234.337C424.001 231.631 423.311 228.972 422.014 226.596C422.004 226.58 421.999 226.561 421.997 226.542C421.995 226.523 421.997 226.504 422.002 226.486C422.007 226.468 422.016 226.45 422.028 226.436C422.041 226.421 422.055 226.409 422.072 226.399C422.104 226.383 422.14 226.379 422.175 226.387C422.209 226.395 422.24 226.416 422.261 226.444Z" fill="#020202"/>
<path d="M340.787 234.113C338.532 232.864 336.345 231.498 334.232 230.022C332.127 228.512 330.125 226.865 328.237 225.092C324.533 221.497 321.032 217.7 317.748 213.717C314.424 209.781 311.221 205.741 308.205 201.549C305.054 197.385 302.305 192.932 299.993 188.25L301.793 188.851C295.785 192.346 289.852 195.967 283.995 199.713C278.144 203.465 272.323 207.275 266.649 211.307C260.976 215.335 255.369 219.473 249.964 223.868C244.545 228.245 239.299 232.837 234.211 237.595C234.141 237.66 234.052 237.702 233.957 237.714C233.862 237.726 233.765 237.708 233.681 237.662C233.597 237.617 233.529 237.545 233.488 237.459C233.446 237.373 233.433 237.275 233.45 237.181L233.452 237.168C234.058 234.056 233.492 230.83 231.862 228.11C231.039 226.786 229.944 225.653 228.651 224.784C227.363 223.916 225.921 223.3 224.404 222.968C224.302 222.945 224.206 222.899 224.125 222.832C224.044 222.766 223.98 222.682 223.938 222.586C223.896 222.49 223.877 222.385 223.882 222.281C223.888 222.176 223.918 222.075 223.971 221.984L223.982 221.965C230.072 211.451 236.832 201.34 244.222 191.694C251.646 182.056 259.671 172.897 268.251 164.271C272.53 159.946 276.993 155.806 281.556 151.782C283.834 149.766 286.17 147.816 288.525 145.891C290.864 143.959 293.317 142.054 295.815 140.312C300.827 136.805 305.924 133.591 311.045 130.305C313.621 128.689 316.22 127.104 318.897 125.618C320.237 124.876 321.596 124.16 323.011 123.507C323.732 123.173 324.471 122.878 325.224 122.625C325.628 122.49 326.039 122.381 326.456 122.298C327 122.174 327.566 122.187 328.103 122.333C328.257 122.377 328.394 122.462 328.502 122.58L328.518 122.598L332.404 126.881L332.08 126.662L345.744 132.328L359.366 138.102C359.401 138.116 359.428 138.144 359.443 138.179C359.458 138.214 359.458 138.253 359.445 138.288C359.431 138.323 359.404 138.352 359.37 138.367C359.335 138.383 359.296 138.385 359.261 138.372L345.325 133.403L331.431 128.326C331.319 128.285 331.218 128.22 331.134 128.136L331.106 128.107L327.052 123.982L327.466 124.246C327.264 124.248 327.063 124.272 326.866 124.318C326.544 124.398 326.228 124.497 325.918 124.614C325.265 124.856 324.605 125.17 323.946 125.487C322.629 126.134 321.325 126.86 320.036 127.617C317.456 129.132 314.924 130.761 312.413 132.424C307.418 135.784 302.38 139.196 297.52 142.696C295.072 144.445 292.763 146.282 290.456 148.229C288.139 150.152 285.875 152.136 283.607 154.116C279.07 158.075 274.698 162.217 270.384 166.418C261.788 174.866 253.701 183.816 246.164 193.22C238.587 202.616 231.566 212.447 225.134 222.661L224.713 221.658C226.376 222.076 227.944 222.806 229.335 223.808C230.721 224.813 231.888 226.088 232.766 227.557C233.636 229.018 234.209 230.637 234.451 232.321C234.693 233.992 234.658 235.691 234.348 237.351L233.589 236.925C238.73 232.197 243.966 227.577 249.299 223.065C254.641 218.566 260.031 214.112 265.591 209.87C271.156 205.637 276.795 201.484 282.635 197.625C288.457 193.74 294.438 190.094 300.528 186.645C300.823 186.479 301.172 186.436 301.499 186.526C301.826 186.617 302.103 186.833 302.27 187.128C302.291 187.166 302.311 187.206 302.329 187.246C303.369 189.522 304.566 191.723 305.911 193.833C307.243 195.988 308.639 198.115 310.097 200.212C313.012 204.397 316.044 208.507 319.194 212.543C322.348 216.567 325.603 220.516 329.117 224.201C330.869 226.047 332.742 227.775 334.721 229.374C336.713 230.962 338.817 232.425 340.94 233.867C340.971 233.888 340.993 233.92 341.001 233.957C341.009 233.994 341.002 234.032 340.982 234.064C340.962 234.096 340.931 234.119 340.894 234.128C340.858 234.137 340.819 234.132 340.787 234.113L340.787 234.113Z" fill="#020202"/>
<path d="M332.222 147.579C325.449 143.141 301.915 137.951 301.915 137.951L292.286 144.776C292.286 144.776 322.465 149.914 332.274 160.423L332.222 147.579" fill="#020202"/>
<path d="M307.7 151.549C309.064 152.046 310.263 152.91 311.165 154.047C312.099 155.168 312.816 156.455 313.277 157.84C313.715 159.217 313.922 160.658 313.89 162.103C313.882 163.529 313.604 164.94 313.072 166.262C312.9 165.557 312.833 164.876 312.727 164.204C312.59 163.534 312.523 162.87 312.384 162.223C312.143 160.946 311.827 159.685 311.439 158.445C310.623 155.938 309.356 153.601 307.7 151.549Z" fill="#020202"/>
<path d="M314.239 135.434C315.523 134.439 316.884 133.546 318.308 132.764C319.709 131.973 321.139 131.246 322.598 130.583C324.055 129.916 325.547 129.325 327.064 128.791C328.591 128.235 330.16 127.801 331.755 127.494C330.472 128.491 329.112 129.385 327.688 130.167C326.286 130.956 324.858 131.688 323.397 132.345C321.938 133.008 320.448 133.605 318.929 134.134C317.402 134.69 315.834 135.124 314.239 135.434Z" fill="#020202"/>
<path d="M301.161 187.748C302.216 186.259 303.374 184.845 304.627 183.518C305.856 182.188 307.133 180.909 308.458 179.681C309.78 178.451 311.158 177.282 312.579 176.159C313.999 175.013 315.5 173.969 317.068 173.035C316.015 174.526 314.858 175.94 313.604 177.268C312.374 178.597 311.101 179.879 309.771 181.102C308.447 182.329 307.072 183.503 305.648 184.622C304.227 185.768 302.728 186.812 301.161 187.748Z" fill="#020202"/>
<path d="M377.3 137.95C367.487 134.863 331.989 140.805 329.183 151.547C326.386 162.289 354.17 199.191 354.17 199.191L363.751 210.165C371.503 222.378 405.637 208.21 417.018 203.033C418.18 202.52 419.161 201.67 419.836 200.594C420.51 199.517 420.847 198.263 420.802 196.994C419.456 170.254 386.6 140.882 377.3 137.95ZM396.685 161.825C395.262 162.425 393.83 162.996 392.388 163.557C390.955 164.119 389.533 164.699 388.091 165.241C385.575 166.199 383.039 167.119 380.513 168.038C381.675 169.48 382.82 170.932 383.949 172.393C385.294 174.154 386.629 175.935 387.936 177.735C389.242 179.545 390.51 181.374 391.73 183.251C392.349 184.19 392.93 185.148 393.481 186.145C393.752 186.648 394.043 187.122 394.275 187.674C394.401 187.945 394.536 188.197 394.643 188.487L394.701 188.69C396.065 188.555 397.449 188.381 398.823 188.148C400.41 187.868 401.998 187.568 403.556 187.152C405.116 186.759 406.639 186.228 408.104 185.564C409.601 184.94 410.9 183.92 411.859 182.613C411.077 184.093 409.871 185.306 408.395 186.097C406.968 186.955 405.453 187.656 403.875 188.187C402.31 188.737 400.714 189.193 399.094 189.552C397.478 189.91 395.862 190.229 394.188 190.432L393.559 190.5L393.288 189.745L393.065 189.116C392.968 188.903 392.833 188.661 392.717 188.429C392.504 187.965 392.204 187.5 391.933 187.035C391.372 186.116 390.771 185.197 390.162 184.277C388.952 182.448 387.665 180.658 386.378 178.867C385.1 177.067 383.784 175.277 382.468 173.506C381.162 171.716 379.855 169.935 378.52 168.164L377.813 167.225L378.907 166.886C381.849 165.996 384.8 165.096 387.762 164.254C389.233 163.819 390.723 163.432 392.213 163.015C393.694 162.599 395.185 162.193 396.685 161.825V161.825ZM384.249 157.063C385.583 156.889 386.931 156.84 388.275 156.918C387.099 157.57 385.864 158.111 384.588 158.535C383.339 158.961 382.07 159.323 380.784 159.618C379.494 159.911 378.189 160.13 376.874 160.277C375.543 160.451 374.198 160.5 372.858 160.422C374.035 159.773 375.269 159.235 376.545 158.815C377.792 158.384 379.062 158.023 380.349 157.731C381.635 157.436 382.937 157.213 384.249 157.063L384.249 157.063ZM361.913 152.65C363.597 151.876 365.303 151.167 367.032 150.521C368.764 149.883 370.523 149.308 372.306 148.799C374.094 148.263 375.919 147.855 377.765 147.579C376.181 148.568 374.532 149.448 372.829 150.212C371.145 150.986 369.442 151.702 367.71 152.341C365.977 152.98 364.216 153.551 362.435 154.063C360.647 154.598 358.823 155.006 356.977 155.283C358.56 154.294 360.209 153.415 361.913 152.65L361.913 152.65ZM374.871 208.123C373.216 207.15 371.654 206.026 370.206 204.765C367.383 202.178 364.792 199.347 362.464 196.307C357.859 190.233 353.742 183.803 350.154 177.077C348.354 173.719 346.641 170.312 345.054 166.857C344.27 165.115 343.506 163.373 342.799 161.593C342.441 160.702 342.093 159.812 341.783 158.902C341.618 158.447 341.483 157.983 341.328 157.518C341.185 157.032 341.071 156.538 340.989 156.038C340.642 153.993 341.04 151.891 342.112 150.115C343.163 148.434 344.562 146.999 346.215 145.905C347.812 144.832 349.518 143.934 351.306 143.224C353.063 142.488 354.884 141.911 356.745 141.502C353.161 142.661 349.793 144.404 346.777 146.66C345.319 147.752 344.106 149.136 343.215 150.725C342.378 152.268 342.114 154.057 342.47 155.776C342.565 156.205 342.681 156.628 342.818 157.044C342.983 157.48 343.118 157.915 343.302 158.351C343.641 159.212 343.99 160.083 344.357 160.944C345.093 162.677 345.896 164.38 346.709 166.083C348.335 169.48 350.038 172.848 351.848 176.148C353.638 179.477 355.516 182.748 357.48 185.961C359.426 189.194 361.506 192.329 363.674 195.397C365.845 198.465 368.246 201.363 370.855 204.068C372.166 205.405 373.601 206.614 375.142 207.678C376.675 208.774 378.459 209.47 380.329 209.701C378.402 209.672 376.517 209.127 374.871 208.123L374.871 208.123ZM411.462 198.339C408.801 199.933 405.799 200.871 402.704 201.078C399.622 201.332 396.518 201.054 393.53 200.255C392.019 199.86 390.555 199.302 389.165 198.591C388.45 198.224 387.77 197.793 387.133 197.303C386.432 196.796 385.831 196.163 385.362 195.436C385.23 195.236 385.123 195.022 385.042 194.797C384.931 194.575 384.856 194.336 384.82 194.09L384.713 193.471C384.701 193.318 384.675 193.165 384.636 193.016C384.465 192.346 384.235 191.692 383.949 191.061C383.355 189.725 382.693 188.42 381.965 187.152C380.533 184.568 378.916 182.061 377.32 179.545C374.068 174.551 370.729 169.587 367.371 164.632C371.319 169.132 375.074 173.816 378.568 178.703C380.329 181.142 381.987 183.655 383.542 186.242C384.339 187.551 385.053 188.908 385.681 190.306C386.016 191.037 386.288 191.795 386.494 192.571C386.548 192.785 386.59 193.001 386.62 193.219L386.668 193.539L386.707 193.703C386.72 193.829 386.76 193.951 386.823 194.061C386.868 194.19 386.934 194.311 387.017 194.42C387.806 195.487 388.847 196.345 390.046 196.916C391.315 197.575 392.648 198.104 394.023 198.494C396.813 199.304 399.713 199.669 402.617 199.578C405.526 199.516 408.386 198.808 410.988 197.507C412.295 196.852 413.493 196 414.54 194.981C415.583 193.922 416.487 192.735 417.23 191.448C416.083 194.297 414.064 196.708 411.463 198.339L411.462 198.339Z" fill="#020202"/>
<path d="M305.531 183.706C305.531 183.706 330.587 194.521 354.175 199.192L361.902 208.049C361.902 208.049 330.489 203.006 301.161 187.748L305.531 183.706Z" fill="#020202"/>
<path d="M340.232 142.765C339.985 140.957 340.346 139.119 341.258 137.539C341.751 136.677 342.423 135.93 343.23 135.35C344.036 134.77 344.957 134.369 345.932 134.175C347.762 133.836 349.654 134.079 351.338 134.872C353.023 135.664 354.417 136.966 355.323 138.592C353.88 137.833 352.351 137.249 350.77 136.853C349.351 136.501 347.873 136.456 346.435 136.72C345.075 137.005 343.838 137.71 342.901 138.737C341.829 139.949 340.931 141.305 340.232 142.765Z" fill="#020202"/>
<path d="M283.813 116.993L284.913 120.945C285.106 121.596 285.278 122.252 285.487 122.888C285.665 123.489 285.896 124.072 286.178 124.631C286.247 124.749 286.277 124.887 286.263 125.023C286.249 125.16 286.191 125.288 286.099 125.39L286.07 125.422C285.426 126.133 284.795 126.88 284.178 127.613C283.575 128.326 283.024 129.081 282.529 129.872C282.429 130.037 282.343 130.21 282.273 130.389C282.257 130.433 282.245 130.478 282.236 130.524C282.243 130.516 282.253 130.413 282.123 130.23C282.082 130.179 282.029 130.139 281.97 130.112L282.125 130.173L282.432 130.296C282.638 130.357 282.844 130.439 283.047 130.478C283.423 130.581 283.813 130.623 284.202 130.603C284.364 130.592 284.524 130.558 284.676 130.5C284.74 130.477 284.802 130.447 284.86 130.411C284.903 130.396 284.985 130.305 284.934 130.37L286.462 130.886C286.492 132.057 286.6 133.225 286.787 134.382C286.973 135.546 287.255 136.694 287.629 137.812C287.997 138.931 288.512 139.996 289.16 140.98C289.832 141.979 290.694 142.836 291.697 143.503C290.506 143.083 289.435 142.379 288.579 141.45C287.714 140.512 287.005 139.441 286.478 138.278C285.949 137.125 285.544 135.919 285.27 134.68C284.979 133.439 284.806 132.173 284.756 130.899L286.284 131.415C286.146 131.584 285.981 131.73 285.797 131.847C285.649 131.944 285.492 132.027 285.328 132.094C285.024 132.219 284.703 132.299 284.376 132.33C283.785 132.388 283.189 132.336 282.617 132.175C282.339 132.111 282.088 132.009 281.827 131.922L281.454 131.766L281.268 131.687C281.097 131.609 280.945 131.496 280.821 131.355C280.708 131.219 280.623 131.062 280.573 130.893C280.523 130.723 280.508 130.545 280.529 130.37C280.553 130.172 280.601 129.979 280.673 129.793C280.784 129.516 280.92 129.25 281.079 128.998C281.65 128.14 282.298 127.335 283.014 126.594C283.692 125.853 284.406 125.169 285.149 124.491L285.041 125.282C284.748 124.601 284.543 123.886 284.432 123.154C284.308 122.468 284.199 121.788 284.12 121.103C283.961 119.736 283.844 118.369 283.813 116.993Z" fill="#020202"/>
<path d="M313.65 93.5389C298.737 93.2486 295.553 96.1422 283.397 113.233C283.397 113.233 269.723 119.456 270.41 122.059C271.107 124.662 283.91 117.646 283.91 117.646L328.989 117.936C328.989 117.936 328.573 93.8293 313.65 93.5389ZM313.65 113.659C315.623 112.993 317.66 112.533 319.728 112.285C321.788 111.991 323.874 111.919 325.95 112.072C321.986 113.37 317.813 113.908 313.65 113.659V113.659Z" fill="#020202"/>
<path d="M291.697 117.695C292.499 118.832 293.398 119.896 294.385 120.877C295.23 121.804 296.318 122.477 297.525 122.819C298.056 122.899 298.599 122.841 299.101 122.651C299.603 122.462 300.049 122.148 300.396 121.738C301.561 120.554 303.085 119.787 304.73 119.558C305.211 119.508 305.697 119.537 306.168 119.644C306.693 119.769 307.179 120.02 307.584 120.376C308.276 121.039 308.723 121.915 308.855 122.863C309.059 124.385 308.973 125.931 308.601 127.42C308.527 127.787 308.433 128.15 308.317 128.507L308.157 129.047L307.919 129.584C307.613 130.353 307.102 131.023 306.44 131.52C306.081 131.756 305.666 131.892 305.238 131.917C304.809 131.941 304.381 131.853 303.998 131.659C303.334 131.332 302.76 130.848 302.325 130.248C302.892 130.633 303.528 130.902 304.198 131.041C304.469 131.113 304.754 131.11 305.024 131.035C305.293 130.96 305.538 130.814 305.732 130.612C306.113 130.165 306.37 129.627 306.479 129.05L306.597 128.596L306.672 128.111C306.733 127.788 306.773 127.462 306.794 127.134C306.953 125.862 306.915 124.574 306.681 123.313C306.607 122.862 306.392 122.446 306.066 122.125C305.91 122.012 305.732 121.933 305.544 121.893C305.356 121.852 305.161 121.851 304.972 121.889C303.818 122.069 302.742 122.587 301.882 123.378C301.241 123.939 300.491 124.363 299.679 124.623C298.818 124.887 297.896 124.871 297.045 124.577C295.574 124 294.331 122.958 293.505 121.609C292.702 120.407 292.092 119.086 291.697 117.695Z" fill="#020202"/>
<path d="M298.654 189.594C298.941 190.803 299.153 192.029 299.287 193.264C299.429 194.487 299.513 195.711 299.57 196.934L299.072 196.119C300.917 196.972 302.704 197.946 304.42 199.036C305.287 199.578 306.126 200.164 306.934 200.792C307.345 201.1 307.736 201.441 308.123 201.788C308.536 202.119 308.874 202.535 309.115 203.006C308.701 202.72 308.248 202.493 307.771 202.333L306.372 201.748C305.437 201.361 304.518 200.948 303.605 200.52C301.774 199.678 299.987 198.741 298.236 197.749L298.166 197.71C298.03 197.633 297.918 197.519 297.843 197.382C297.767 197.246 297.731 197.09 297.738 196.934C297.794 195.711 297.878 194.487 298.02 193.264C298.155 192.029 298.367 190.803 298.654 189.594Z" fill="#020202"/>
<path d="M284.295 212.431C284.18 211.146 283.966 209.626 283.86 208.049C283.856 207.986 283.866 207.923 283.89 207.865C283.914 207.806 283.95 207.754 283.997 207.711L284.048 207.666C286.306 205.651 288.618 203.704 290.982 201.826C292.157 200.877 293.345 199.945 294.56 199.048C295.77 198.145 297.031 197.306 298.272 196.443L298.328 196.405C298.421 196.34 298.532 196.305 298.646 196.303C298.759 196.302 298.871 196.334 298.966 196.397C300.653 197.505 302.322 198.646 304.043 199.698C305.768 200.742 307.518 201.741 309.295 202.696C309.373 202.737 309.432 202.808 309.46 202.892C309.488 202.976 309.483 203.068 309.445 203.148L309.435 203.17C308.734 204.661 307.91 206.09 306.971 207.443C306.479 208.144 305.917 208.793 305.294 209.38C304.566 210.102 303.584 210.509 302.559 210.511L303.432 209.915C303.187 210.921 302.874 211.91 302.496 212.874C302.121 213.865 301.656 214.818 301.106 215.723C300.809 216.211 300.459 216.664 300.061 217.073C299.597 217.568 299.013 217.933 298.365 218.133C297.994 218.23 297.608 218.253 297.228 218.199C296.849 218.146 296.484 218.018 296.155 217.822C295.62 217.491 295.146 217.072 294.752 216.582C294.615 216.424 294.532 216.226 294.514 216.018C294.496 215.809 294.545 215.6 294.654 215.421L294.694 215.356C295.105 214.696 295.441 213.992 295.693 213.256C295.938 212.585 296.022 211.866 295.937 211.156C295.89 210.842 295.774 210.541 295.596 210.278C295.417 210.015 295.182 209.795 294.907 209.635C294.604 209.43 294.279 209.261 293.938 209.129C293.57 209.007 293.176 208.918 292.793 208.805L293.252 208.732C291.697 209.441 290.117 210.068 288.606 210.689C287.09 211.301 285.645 211.857 284.295 212.431ZM284.396 212.266C285.9 211.406 287.31 210.529 288.649 209.708C289.992 208.896 291.267 208.091 292.566 207.366C292.703 207.29 292.863 207.264 293.017 207.293L293.025 207.294C293.493 207.382 293.965 207.449 294.438 207.564C294.93 207.702 295.402 207.902 295.842 208.161C296.32 208.437 296.743 208.798 297.091 209.225C297.244 209.465 297.392 209.712 297.533 209.962C297.642 210.222 297.72 210.494 297.806 210.764C298.003 211.791 297.938 212.85 297.615 213.845C297.345 214.783 296.942 215.678 296.418 216.502L296.359 215.276C296.592 215.567 296.867 215.821 297.176 216.029C297.274 216.095 297.385 216.139 297.501 216.16C297.617 216.181 297.737 216.178 297.852 216.15C298.549 215.851 299.127 215.329 299.497 214.667C300.017 213.883 300.463 213.053 300.831 212.187C301.207 211.308 301.564 210.384 301.861 209.488L301.892 209.394C301.948 209.223 302.064 209.078 302.219 208.986C302.374 208.894 302.556 208.86 302.734 208.892C303.341 208.888 303.927 208.66 304.377 208.252C304.978 207.789 305.534 207.269 306.037 206.7C307.074 205.503 307.998 204.212 308.795 202.843L308.934 203.317C307.224 202.247 305.488 201.223 303.726 200.243C301.959 199.271 300.141 198.387 298.342 197.472L299.035 197.425C297.892 198.415 296.768 199.429 295.593 200.378C294.424 201.334 293.227 202.255 292.017 203.158C289.608 204.979 287.15 206.737 284.643 208.432L284.831 208.049C284.725 209.339 284.511 210.685 284.396 212.266Z" fill="#020202"/>
<path d="M224.565 222.409C221.395 223.051 218.313 224.073 215.387 225.452C212.58 226.853 210.17 229.008 209.729 231.995C209.557 233.552 209.758 235.128 210.315 236.592L210.718 237.739C210.876 238.109 211.067 238.464 211.247 238.825C211.603 239.544 212.041 240.219 212.552 240.838L213.379 241.69L214.334 242.365C215.005 242.724 215.748 242.926 216.508 242.957C218.007 242.954 219.452 242.402 220.572 241.407L220.706 242.657C219.461 242.049 218.299 241.286 217.246 240.386C216.074 239.448 215.191 238.199 214.697 236.781C214.575 236.379 214.514 235.96 214.515 235.54C214.532 235.111 214.596 234.684 214.704 234.269C214.864 233.885 215.046 233.512 215.249 233.149L215.973 232.257C217.067 231.159 218.496 230.456 220.033 230.259C220.757 230.146 221.492 230.124 222.222 230.193L222.759 230.253C222.949 230.286 223.154 230.341 223.348 230.387C223.734 230.489 224.108 230.634 224.462 230.819C225.642 231.589 226.682 232.555 227.538 233.674C228.306 234.667 229.231 235.528 230.277 236.222C231.368 236.87 232.62 237.197 233.889 237.164L233.911 237.356C232.563 237.676 231.148 237.565 229.866 237.039C228.626 236.437 227.493 235.634 226.514 234.664C225.676 233.776 224.714 233.014 223.657 232.401C223.421 232.301 223.174 232.226 222.921 232.179L222.547 232.116L222.104 232.097C221.523 232.075 220.942 232.117 220.371 232.223C219.294 232.413 218.295 232.91 217.494 233.654C217.113 233.965 216.826 234.375 216.665 234.84C216.505 235.304 216.477 235.804 216.585 236.283C216.937 237.364 217.579 238.327 218.44 239.069C219.354 239.912 220.346 240.665 221.405 241.318L222.411 241.947L221.538 242.569C220.794 243.094 219.964 243.484 219.084 243.72C218.221 243.976 217.312 244.042 216.42 243.915C214.68 243.618 213.125 242.652 212.087 241.224C211.818 240.899 211.605 240.533 211.36 240.191C211.11 239.854 210.892 239.495 210.708 239.118L210.107 238.016L209.601 236.872C208.793 235.332 208.364 233.622 208.352 231.883C208.394 230.041 209.124 228.281 210.397 226.95C211 226.298 211.686 225.728 212.437 225.254C213.157 224.775 213.921 224.366 214.72 224.034C217.833 222.744 221.183 222.124 224.551 222.216L224.565 222.409Z" fill="#020202"/>
<path d="M340.863 233.99C348.261 234.077 355.639 234.137 363.01 234.063C366.695 234.045 370.377 233.983 374.056 233.877C377.734 233.79 381.41 233.655 385.076 233.435C388.743 233.247 392.406 233 396.048 232.616C399.689 232.243 403.329 231.841 406.911 231.186C410.481 230.59 414.003 229.734 417.449 228.626C420.808 227.453 424.136 225.946 426.478 223.501L426.227 224.203C426.188 222.189 426.018 220.18 425.718 218.188C425.42 216.186 424.958 214.212 424.338 212.285C423.727 210.359 422.829 208.537 421.675 206.878C420.505 205.196 418.896 203.867 417.022 203.037C419.05 203.641 420.859 204.82 422.231 206.431C423.615 208.041 424.73 209.865 425.53 211.833C426.345 213.782 426.976 215.803 427.414 217.871C427.882 219.94 428.186 222.042 428.322 224.159L428.344 224.549L428.071 224.861C425.381 227.696 422.028 229.817 418.313 231.031C414.77 232.314 411.123 233.291 407.413 233.952C400.074 235.245 392.651 236.001 385.203 236.215C377.782 236.469 370.366 236.378 362.969 236.015C355.575 235.623 348.193 235.026 340.863 233.99Z" fill="#020202"/>
<path d="M380.566 267.153C376.86 271.242 372.935 275.126 368.808 278.79C366.771 280.65 364.654 282.418 362.543 284.196C360.41 285.947 358.231 287.643 356.04 289.326C353.813 290.962 351.568 292.577 349.27 294.122C346.946 295.627 344.612 297.126 342.176 298.46C339.75 299.826 337.234 301.026 334.647 302.052C332.07 303.129 329.328 303.753 326.539 303.898C329.189 303.237 331.738 302.226 334.121 300.892C336.527 299.63 338.844 298.201 341.132 296.725C345.684 293.732 350.119 290.544 354.483 287.251C358.869 283.985 363.178 280.605 367.513 277.243C371.838 273.868 376.156 270.476 380.566 267.153Z" fill="#020202"/>
<path d="M370.446 237.882C372.066 239.234 373.303 240.674 374.63 241.968C375.257 242.62 375.934 243.221 376.655 243.767C377.403 244.348 378.255 244.782 379.165 245.044C378.665 245.281 378.12 245.409 377.567 245.422C377.015 245.434 376.465 245.331 375.955 245.118C374.938 244.733 374.02 244.127 373.267 243.342C372.528 242.604 371.904 241.76 371.417 240.836C370.915 239.919 370.586 238.918 370.446 237.882Z" fill="#020202"/>
<path d="M361.902 237.882C361.902 237.882 304.363 289.574 304.396 300.161C304.43 310.748 367.371 373.835 367.371 373.835" stroke="#020202" stroke-width="1.93554" stroke-linecap="round" stroke-linejoin="round" stroke-dasharray="2.9 2.9"/>
<path d="M332.274 302.366C337.163 306.091 341.721 310.232 345.897 314.742C350.138 319.188 354.077 323.907 357.874 328.73C361.624 333.59 365.188 338.59 368.515 343.743C370.207 346.3 371.756 348.951 373.348 351.568C374.867 354.232 376.357 356.912 377.763 359.637C375.868 357.217 374.095 354.727 372.283 352.267L366.851 344.896C364.998 342.472 363.253 339.975 361.371 337.578C359.559 335.13 357.7 332.72 355.826 330.321C352.102 325.507 348.29 320.761 344.392 316.085C340.464 311.432 336.501 306.805 332.274 302.366Z" fill="#020202"/>
<path d="M386.949 394.68C386.949 394.68 384.462 391.09 373.874 400.119C363.287 409.149 337.438 413.194 332.27 412.884C327.111 412.575 327.47 402.606 332.27 402.606C335.163 402.606 344.783 396.858 351.383 391.4L355.022 395.135L352.922 390.248L354.567 388.932L360.171 390.78L355.68 387.374C356.58 386.367 357.393 385.632 357.393 385.632L362.038 385.641L357.877 383.774C357.918 383.587 357.921 383.394 357.886 383.206C357.851 383.018 357.779 382.84 357.674 382.68C354.877 378.635 359.551 376.448 359.551 376.448C377.92 385.167 382.904 368.667 382.904 368.667L395.359 380.503C394.772 381.784 393.882 382.904 392.765 383.764C391.68 384.643 390.539 385.452 389.349 386.183C386.968 387.712 384.442 389.077 381.965 390.78C383.462 390.651 384.934 390.315 386.339 389.784C387.755 389.277 389.111 388.618 390.385 387.819C391.699 387.019 392.87 386.005 393.849 384.819C394.383 384.241 394.792 383.56 395.052 382.817C395.312 382.075 395.416 381.287 395.359 380.503C396.917 380.503 400.343 382.061 400.343 382.061C405.317 387.035 386.949 394.68 386.949 394.68Z" fill="#020202"/>
<path d="M305.918 384.86C305.895 389.575 305.413 394.276 304.48 398.897C303.569 403.523 302.215 408.049 300.438 412.416C296.88 421.202 291.685 429.231 285.129 436.078C278.526 442.988 270.624 448.525 261.876 452.373C253.026 456.238 243.491 458.293 233.835 458.416C224.178 458.54 214.594 456.73 205.648 453.092C192.026 447.587 180.341 438.166 172.073 426.021C163.804 413.876 159.322 399.552 159.194 384.86C158.98 369.973 163.224 355.363 171.379 342.907C179.534 330.451 191.227 320.719 204.957 314.961C209.536 313.065 214.296 311.636 219.162 310.695C228.892 308.801 238.908 308.927 248.587 311.066C263.001 314.263 276.075 321.837 286.019 332.752C292.503 339.839 297.579 348.096 300.975 357.081C302.663 361.514 303.925 366.098 304.745 370.77C305.592 375.417 305.985 380.136 305.918 384.86ZM305.144 384.86C305.07 380.2 304.544 375.559 303.572 371.002C300.576 357.387 293.418 345.043 283.09 335.681C273.029 326.547 260.574 320.469 247.184 318.159C242.804 317.38 238.359 317.029 233.911 317.111C215.982 317.32 198.821 324.415 185.978 336.926C179.544 343.156 174.412 350.601 170.877 358.829C167.343 367.057 165.477 375.905 165.388 384.86C165.29 393.897 166.976 402.865 170.349 411.25C173.723 419.635 178.717 427.272 185.047 433.724C191.422 440.237 199.02 445.429 207.405 449.002C215.79 452.575 224.797 454.458 233.911 454.544C252.526 454.82 270.506 447.776 283.979 434.928C294.168 425.211 301.103 412.582 303.837 398.77C304.722 394.187 305.16 389.528 305.144 384.86Z" fill="#020202"/>
<path d="M538.096 384.86C538.163 389.583 537.77 394.302 536.923 398.95C536.103 403.622 534.841 408.205 533.153 412.638C529.757 421.624 524.681 429.88 518.197 436.967C508.254 447.882 495.18 455.457 480.765 458.654C471.086 460.792 461.07 460.919 451.34 459.024C446.474 458.084 441.715 456.654 437.135 454.758C425.77 449.986 415.761 442.48 407.997 432.907C400.234 423.333 394.956 411.99 392.633 399.885C390.311 387.78 391.016 375.288 394.685 363.521C398.355 351.754 404.875 341.076 413.667 332.437C420.586 325.64 428.777 320.275 437.773 316.649C446.768 313.022 456.391 311.206 466.089 311.304C475.717 311.464 485.219 313.517 494.054 317.347C502.802 321.194 510.705 326.732 517.307 333.642C523.863 340.488 529.058 348.518 532.616 357.304C534.393 361.67 535.747 366.197 536.658 370.822C537.592 375.444 538.073 380.145 538.096 384.86ZM537.322 384.86C537.338 380.191 536.9 375.533 536.015 370.949C533.281 357.138 526.346 344.509 516.157 334.791C502.684 321.944 484.704 314.9 466.089 315.175C452.391 315.3 439.038 319.486 427.72 327.202C416.402 334.919 407.627 345.819 402.505 358.524C399.145 366.871 397.466 375.8 397.565 384.798C397.664 393.795 399.539 402.685 403.083 410.956C406.625 419.154 411.747 426.574 418.156 432.793C430.999 445.305 448.16 452.399 466.089 452.609C470.537 452.69 474.982 452.339 479.362 451.561C492.752 449.251 505.207 443.173 515.268 434.038C525.596 424.677 532.755 412.332 535.75 398.718C536.722 394.16 537.249 389.519 537.322 384.86Z" fill="#020202"/>
<path d="M334.635 363.685L277.028 302.366V283.155H294.053L301.089 272.825L280.142 270.89L280.453 263.417C284.19 259.991 283.878 255.32 282.389 254.075C280.899 252.829 282.321 249.093 282.389 245.08C282.456 241.067 277.028 238.817 270.177 235.13C263.326 231.444 295.556 215.929 295.556 215.929C299.527 208.725 292.909 208.049 292.909 208.049L284.345 212.348C266.129 216.708 260.835 228.852 260.835 228.852L243.479 230.208L235.19 236.31C228.965 239.847 227.712 233.934 224.558 231.908C221.405 229.883 217.341 232.414 217.341 232.414C211.964 237.05 221.055 241.987 221.055 241.987C221.055 241.987 275.138 237.882 270.099 251.506C270.099 251.506 264.494 255.943 269.866 263.417L265.662 302.366C265.662 302.366 252.648 301.963 253.55 315.97C254.452 329.977 246.823 368.044 226.582 380.5C226.582 380.5 221.288 392.956 235.301 383.303C249.314 373.65 263.638 333.945 260.369 318.298L271.494 311.06L328.987 368.667L334.635 363.685Z" fill="#020202"/>
<path d="M413.482 251.673C413.482 251.673 426.808 260.925 410.615 269.333L399.717 274.34L391.309 353.098V365.538C391.309 365.538 404.076 368.104 406.879 373.835L457.947 390.784L455.767 398.717L384.254 377.289L381.033 366.643L388.662 288.47H355.019L370.446 276.086L390.375 277.741V272.825L376.371 270.94C413.482 251.673 399.621 260.121 413.482 251.673Z" fill="#020202"/>
<path d="M417.506 415.925C418.127 417.602 418.7 419.146 419.327 420.639C419.934 422.097 420.633 423.514 421.421 424.883C421.782 425.574 422.244 426.192 422.651 426.86C423.133 427.463 423.548 428.14 424.083 428.723C425.056 430 426.255 431.079 427.47 432.429C425.675 432.189 423.97 431.495 422.516 430.414C421.772 429.878 421.087 429.266 420.47 428.587C419.874 427.891 419.342 427.141 418.882 426.348C417.972 424.772 417.37 423.038 417.108 421.237C416.824 419.459 416.96 417.64 417.506 415.925Z" fill="#020202"/>
<path d="M505.59 347.026C507.525 346.969 509.436 347.47 511.095 348.469C512.808 349.45 514.27 350.816 515.363 352.461C515.633 352.872 515.881 353.298 516.106 353.736L516.445 354.391C516.536 354.618 516.627 354.845 516.708 355.076C516.867 355.538 517.053 355.991 517.178 356.459C517.283 356.933 517.374 357.409 517.458 357.883C517.555 358.353 517.603 358.832 517.599 359.312C517.614 359.79 517.616 360.266 517.608 360.737C517.526 361.681 517.359 362.615 517.112 363.529C516.711 362.64 516.486 361.771 516.181 360.931C516.013 360.515 515.855 360.104 515.71 359.695L515.499 359.083L515.234 358.495C515.061 358.105 514.894 357.717 514.741 357.327L514.17 356.215L513.899 355.658L513.57 355.137C513.35 354.792 513.179 354.415 512.927 354.093C512.012 352.719 510.943 351.455 509.74 350.325C508.454 349.108 507.066 348.004 505.59 347.026Z" fill="#020202"/>
<path d="M463.863 389.431L422.488 311.06" stroke="#020202" stroke-width="6.7744" stroke-miterlimit="10"/>
<path d="M469.469 389.431L494.069 311.06" stroke="#020202" stroke-width="6.7744" stroke-miterlimit="10"/>
<path d="M413.662 310.193H503.654" stroke="#020202" stroke-width="6.7744" stroke-miterlimit="10"/>
<path d="M202.605 350.246C202.757 348.787 203.194 347.372 203.889 346.08C204.561 344.77 205.441 343.577 206.495 342.55C207.574 341.482 208.865 340.652 210.285 340.114C211.72 339.581 213.293 339.548 214.749 340.019C213.502 340.529 212.313 341.171 211.203 341.936C210.18 342.693 209.211 343.52 208.303 344.411C206.432 346.202 204.749 348.232 202.605 350.246Z" fill="#020202"/>
<path d="M250.715 437.641C253.978 435.875 257.16 434.488 260.084 432.753C261.528 431.923 262.88 430.943 264.116 429.828C265.39 428.666 266.396 427.241 267.063 425.652C267.346 427.594 266.847 429.57 265.675 431.144C264.544 432.715 263.088 434.025 261.407 434.984C259.788 435.927 258.045 436.637 256.229 437.095C254.433 437.575 252.571 437.759 250.715 437.641Z" fill="#020202"/>
<path d="M286.533 120.903C286.652 120.581 286.865 120.303 287.144 120.103C287.411 119.904 287.721 119.771 288.049 119.714C288.426 119.647 288.814 119.715 289.145 119.908C289.319 120.002 289.459 120.149 289.543 120.328C289.628 120.507 289.653 120.708 289.615 120.903C289.375 120.786 289.106 120.74 288.841 120.77C288.652 120.802 288.459 120.821 288.231 120.871C287.67 120.974 287.097 120.985 286.533 120.903Z" fill="#020202"/>
<path d="M288.074 126.354C288.53 126.338 288.962 126.146 289.279 125.818C289.596 125.49 289.773 125.052 289.773 124.596C289.773 124.14 289.596 123.702 289.279 123.374C288.962 123.046 288.53 122.853 288.074 122.838C287.619 122.853 287.187 123.046 286.87 123.374C286.553 123.702 286.376 124.14 286.376 124.596C286.376 125.052 286.553 125.49 286.87 125.818C287.187 126.146 287.619 126.338 288.074 126.354Z" fill="#020202"/>
<path d="M286.269 135.609C286.801 135.307 287.354 135.046 287.926 134.828C288.178 134.745 288.412 134.64 288.68 134.546C288.953 134.453 289.223 134.33 289.615 134.22C289.623 134.602 289.491 134.974 289.244 135.266C289.01 135.56 288.702 135.785 288.351 135.92C288.008 136.051 287.638 136.098 287.273 136.057C286.898 136.023 286.545 135.866 286.269 135.609Z" fill="#020202"/>
<path d="M325.948 117.915C326.312 118.28 326.593 118.718 326.773 119.2C326.962 119.679 327.075 120.185 327.106 120.698C327.129 121.225 327.05 121.75 326.875 122.247C326.697 122.746 326.375 123.18 325.948 123.494C326.033 122.972 326.108 122.53 326.139 122.08C326.154 121.63 326.167 121.192 326.14 120.745C326.101 119.845 325.977 118.947 325.948 117.915Z" fill="black"/>
</svg>
