<svg xmlns="http://www.w3.org/2000/svg" xmlns:xlink="http://www.w3.org/1999/xlink" width="140" zoomAndPan="magnify" viewBox="0 0 104.88 104.999996" height="140" preserveAspectRatio="xMidYMid meet" version="1.0"><defs><clipPath id="d43a430283"><path d="M 11.964844 11.808594 L 92.808594 11.808594 L 92.808594 85.199219 L 11.964844 85.199219 Z M 11.964844 11.808594 " clip-rule="nonzero"/></clipPath><clipPath id="b5f1c62c70"><path d="M 29.195312 11.808594 L 75.433594 11.808594 C 80.003906 11.808594 84.386719 13.625 87.617188 16.855469 C 90.851562 20.085938 92.664062 24.46875 92.664062 29.039062 L 92.664062 67.96875 C 92.664062 72.539062 90.851562 76.921875 87.617188 80.152344 C 84.386719 83.386719 80.003906 85.199219 75.433594 85.199219 L 29.195312 85.199219 C 24.625 85.199219 20.242188 83.386719 17.011719 80.152344 C 13.78125 76.921875 11.964844 72.539062 11.964844 67.96875 L 11.964844 29.039062 C 11.964844 24.46875 13.78125 20.085938 17.011719 16.855469 C 20.242188 13.625 24.625 11.808594 29.195312 11.808594 Z M 29.195312 11.808594 " clip-rule="nonzero"/></clipPath><clipPath id="af80591ab8"><path d="M 0 0.0585938 L 104.621094 0.0585938 L 104.621094 104.9375 L 0 104.9375 Z M 0 0.0585938 " clip-rule="nonzero"/></clipPath><clipPath id="7a97a868cc"><path d="M 87.488281 42.933594 L 94.492188 42.933594 L 94.492188 52.402344 L 87.488281 52.402344 Z M 87.488281 42.933594 " clip-rule="nonzero"/></clipPath><clipPath id="2d9b6eb55b"><path d="M 90.992188 42.933594 C 92.925781 42.933594 94.492188 44.503906 94.492188 46.4375 L 94.492188 48.871094 C 94.492188 50.808594 92.925781 52.375 90.992188 52.375 C 89.054688 52.375 87.488281 50.808594 87.488281 48.871094 L 87.488281 46.4375 C 87.488281 44.503906 89.054688 42.933594 90.992188 42.933594 Z M 90.992188 42.933594 " clip-rule="nonzero"/></clipPath></defs><g clip-path="url(#d43a430283)"><g clip-path="url(#b5f1c62c70)"><path fill="#ffffff" d="M 11.964844 11.808594 L 92.523438 11.808594 L 92.523438 85.199219 L 11.964844 85.199219 Z M 11.964844 11.808594 " fill-opacity="1" fill-rule="nonzero"/></g></g><g clip-path="url(#af80591ab8)"><path fill="#000000" d="M 104.621094 66.269531 L 104.621094 38.472656 C 104.621094 37.214844 104.5625 35.957031 104.4375 34.707031 C 104.3125 33.453125 104.128906 32.210938 103.882812 30.976562 C 103.640625 29.742188 103.332031 28.523438 102.96875 27.320312 C 102.601562 26.117188 102.179688 24.933594 101.699219 23.773438 C 101.21875 22.609375 100.679688 21.472656 100.085938 20.363281 C 99.492188 19.253906 98.847656 18.175781 98.148438 17.132812 C 97.449219 16.085938 96.703125 15.074219 95.902344 14.101562 C 95.105469 13.132812 94.261719 12.199219 93.371094 11.308594 C 92.484375 10.421875 91.550781 9.578125 90.578125 8.777344 C 89.605469 7.980469 88.597656 7.230469 87.550781 6.535156 C 86.503906 5.835938 85.425781 5.1875 84.316406 4.59375 C 83.207031 4.003906 82.074219 3.464844 80.910156 2.984375 C 79.75 2.503906 78.566406 2.078125 77.359375 1.714844 C 76.15625 1.347656 74.9375 1.042969 73.703125 0.796875 C 72.472656 0.550781 71.226562 0.367188 69.976562 0.246094 C 68.722656 0.121094 67.46875 0.0585938 66.210938 0.0585938 L 38.410156 0.0585938 C 37.152344 0.0585938 35.898438 0.121094 34.644531 0.246094 C 33.394531 0.367188 32.152344 0.550781 30.917969 0.796875 C 29.683594 1.042969 28.464844 1.347656 27.261719 1.714844 C 26.058594 2.078125 24.875 2.503906 23.710938 2.984375 C 22.550781 3.464844 21.414062 4.003906 20.304688 4.59375 C 19.195312 5.1875 18.117188 5.835938 17.070312 6.535156 C 16.023438 7.230469 15.015625 7.980469 14.042969 8.777344 C 13.070312 9.578125 12.140625 10.421875 11.25 11.308594 C 10.359375 12.199219 9.515625 13.132812 8.71875 14.101562 C 7.921875 15.074219 7.171875 16.085938 6.472656 17.132812 C 5.773438 18.175781 5.128906 19.253906 4.535156 20.363281 C 3.941406 21.472656 3.40625 22.609375 2.925781 23.773438 C 2.441406 24.933594 2.019531 26.117188 1.652344 27.320312 C 1.289062 28.523438 0.984375 29.742188 0.738281 30.976562 C 0.492188 32.210938 0.308594 33.453125 0.183594 34.707031 C 0.0625 35.957031 0 37.214844 0 38.472656 L 0 66.269531 C 0 67.527344 0.0625 68.785156 0.183594 70.035156 C 0.308594 71.289062 0.492188 72.53125 0.738281 73.765625 C 0.984375 75 1.289062 76.21875 1.652344 77.421875 C 2.019531 78.625 2.441406 79.808594 2.925781 80.96875 C 3.40625 82.132812 3.941406 83.269531 4.535156 84.378906 C 5.128906 85.488281 5.773438 86.566406 6.472656 87.609375 C 7.171875 88.65625 7.921875 89.667969 8.71875 90.640625 C 9.515625 91.613281 10.359375 92.542969 11.25 93.433594 C 12.140625 94.320312 13.070312 95.164062 14.042969 95.964844 C 15.015625 96.761719 16.023438 97.511719 17.070312 98.210938 C 18.117188 98.90625 19.195312 99.554688 20.304688 100.148438 C 21.414062 100.738281 22.550781 101.277344 23.710938 101.757812 C 24.875 102.238281 26.058594 102.664062 27.261719 103.027344 C 28.464844 103.394531 29.683594 103.699219 30.917969 103.945312 C 32.152344 104.191406 33.394531 104.375 34.644531 104.496094 C 35.898438 104.621094 37.152344 104.683594 38.410156 104.683594 L 66.210938 104.683594 C 67.46875 104.683594 68.722656 104.621094 69.976562 104.496094 C 71.226562 104.375 72.472656 104.191406 73.703125 103.945312 C 74.9375 103.699219 76.15625 103.394531 77.359375 103.027344 C 78.566406 102.664062 79.75 102.238281 80.910156 101.757812 C 82.074219 101.277344 83.207031 100.738281 84.316406 100.148438 C 85.425781 99.554688 86.503906 98.90625 87.550781 98.207031 C 88.597656 97.511719 89.605469 96.761719 90.578125 95.964844 C 91.550781 95.164062 92.484375 94.320312 93.371094 93.433594 C 94.261719 92.542969 95.105469 91.613281 95.902344 90.640625 C 96.703125 89.667969 97.449219 88.65625 98.148438 87.609375 C 98.847656 86.566406 99.492188 85.488281 100.085938 84.378906 C 100.679688 83.269531 101.21875 82.132812 101.699219 80.96875 C 102.179688 79.808594 102.601562 78.625 102.96875 77.421875 C 103.332031 76.21875 103.640625 75 103.882812 73.765625 C 104.128906 72.53125 104.3125 71.289062 104.4375 70.035156 C 104.5625 68.785156 104.621094 67.527344 104.621094 66.269531 Z M 22.417969 51.042969 C 22.90625 41.984375 30.527344 26.214844 49.339844 26.214844 L 76.597656 26.214844 C 76.964844 26.214844 77.332031 26.25 77.691406 26.324219 C 78.054688 26.394531 78.402344 26.5 78.742188 26.640625 C 79.082031 26.78125 79.40625 26.957031 79.710938 27.160156 C 80.019531 27.363281 80.300781 27.597656 80.5625 27.855469 C 80.820312 28.117188 81.054688 28.402344 81.257812 28.707031 C 81.464844 29.011719 81.636719 29.335938 81.777344 29.675781 C 81.917969 30.015625 82.023438 30.367188 82.09375 30.726562 C 82.167969 31.089844 82.203125 31.453125 82.203125 31.820312 L 82.203125 35.558594 C 82.203125 35.925781 82.167969 36.289062 82.09375 36.648438 C 82.023438 37.011719 81.917969 37.363281 81.777344 37.703125 C 81.636719 38.042969 81.464844 38.363281 81.257812 38.671875 C 81.054688 38.976562 80.820312 39.261719 80.5625 39.519531 C 80.300781 39.78125 80.019531 40.011719 79.710938 40.21875 C 79.40625 40.421875 79.082031 40.59375 78.742188 40.734375 C 78.402344 40.875 78.054688 40.980469 77.691406 41.054688 C 77.332031 41.125 76.964844 41.160156 76.597656 41.160156 L 48.96875 41.160156 C 48.28125 41.152344 47.597656 41.203125 46.917969 41.316406 C 46.242188 41.425781 45.578125 41.597656 44.933594 41.832031 C 44.285156 42.0625 43.664062 42.351562 43.070312 42.691406 C 42.472656 43.035156 41.914062 43.429688 41.390625 43.871094 C 40.863281 44.316406 40.382812 44.804688 39.945312 45.332031 C 39.511719 45.863281 39.125 46.429688 38.789062 47.027344 C 38.453125 47.628906 38.171875 48.253906 37.949219 48.902344 C 37.726562 49.550781 37.5625 50.214844 37.457031 50.894531 C 37.363281 51.589844 37.335938 52.289062 37.371094 52.988281 C 37.410156 53.6875 37.511719 54.378906 37.679688 55.0625 C 37.84375 55.742188 38.074219 56.402344 38.363281 57.039062 C 38.65625 57.679688 39.003906 58.285156 39.40625 58.859375 C 39.8125 59.429688 40.265625 59.960938 40.769531 60.449219 C 41.273438 60.9375 41.816406 61.375 42.402344 61.761719 C 42.988281 62.144531 43.605469 62.472656 44.253906 62.742188 C 44.898438 63.015625 45.566406 63.222656 46.253906 63.367188 C 46.941406 63.511719 47.632812 63.589844 48.335938 63.605469 C 49.035156 63.621094 49.734375 63.570312 50.425781 63.453125 C 51.117188 63.335938 51.789062 63.15625 52.449219 62.914062 C 53.105469 62.671875 53.738281 62.367188 54.339844 62.007812 C 54.9375 61.648438 55.5 61.234375 56.023438 60.765625 C 56.550781 60.300781 57.023438 59.789062 57.453125 59.230469 C 57.878906 58.675781 58.253906 58.085938 58.570312 57.460938 C 58.886719 56.832031 59.140625 56.183594 59.335938 55.511719 C 59.457031 55.066406 59.644531 54.648438 59.898438 54.265625 C 60.152344 53.882812 60.464844 53.546875 60.828125 53.265625 C 61.191406 52.980469 61.589844 52.761719 62.027344 52.609375 C 62.460938 52.457031 62.910156 52.378906 63.371094 52.371094 L 70.132812 52.371094 C 70.4375 52.371094 70.738281 52.402344 71.039062 52.464844 C 71.335938 52.53125 71.621094 52.625 71.898438 52.753906 C 72.175781 52.878906 72.4375 53.035156 72.679688 53.21875 C 72.921875 53.40625 73.140625 53.613281 73.335938 53.84375 C 73.535156 54.078125 73.703125 54.328125 73.84375 54.597656 C 73.988281 54.867188 74.097656 55.148438 74.179688 55.445312 C 74.257812 55.738281 74.304688 56.035156 74.320312 56.339844 C 74.332031 56.644531 74.316406 56.945312 74.261719 57.246094 C 74.117188 58.058594 73.929688 58.859375 73.707031 59.652344 C 73.484375 60.445312 73.222656 61.222656 72.925781 61.992188 C 72.628906 62.757812 72.296875 63.511719 71.929688 64.25 C 71.5625 64.984375 71.160156 65.703125 70.726562 66.402344 C 70.289062 67.101562 69.820312 67.777344 69.324219 68.429688 C 68.824219 69.085938 68.292969 69.714844 67.734375 70.320312 C 67.175781 70.925781 66.589844 71.5 65.976562 72.050781 C 65.363281 72.597656 64.726562 73.117188 64.0625 73.605469 C 63.398438 74.097656 62.714844 74.550781 62.011719 74.976562 C 61.304688 75.402344 60.582031 75.792969 59.839844 76.148438 C 59.097656 76.503906 58.339844 76.824219 57.566406 77.109375 C 56.792969 77.390625 56.007812 77.640625 55.214844 77.851562 C 54.417969 78.058594 53.613281 78.234375 52.800781 78.367188 C 51.988281 78.5 51.171875 78.597656 50.351562 78.65625 C 49.53125 78.710938 48.707031 78.730469 47.882812 78.710938 C 47.0625 78.691406 46.242188 78.628906 45.421875 78.53125 C 44.605469 78.433594 43.796875 78.300781 42.992188 78.125 C 42.1875 77.949219 41.390625 77.738281 40.605469 77.488281 C 39.820312 77.238281 39.050781 76.953125 38.292969 76.632812 C 37.535156 76.308594 36.792969 75.953125 36.070312 75.558594 C 35.347656 75.167969 34.644531 74.742188 33.960938 74.285156 C 33.277344 73.824219 32.617188 73.335938 31.976562 72.8125 C 31.339844 72.292969 30.730469 71.742188 30.144531 71.164062 C 29.558594 70.585938 29 69.980469 28.472656 69.347656 C 27.945312 68.71875 27.445312 68.0625 26.980469 67.382812 C 26.511719 66.707031 26.078125 66.007812 25.679688 65.289062 C 25.277344 64.570312 24.914062 63.832031 24.582031 63.078125 C 24.25 62.324219 23.957031 61.554688 23.699219 60.773438 C 23.4375 59.992188 23.21875 59.203125 23.035156 58.398438 C 22.851562 57.597656 22.707031 56.785156 22.597656 55.96875 C 22.492188 55.152344 22.421875 54.335938 22.390625 53.511719 C 22.363281 52.6875 22.371094 51.867188 22.417969 51.042969 Z M 22.417969 51.042969 " fill-opacity="1" fill-rule="nonzero"/></g><g clip-path="url(#7a97a868cc)"><g clip-path="url(#2d9b6eb55b)"><path fill="#000000" d="M 87.488281 42.933594 L 94.492188 42.933594 L 94.492188 52.375 L 87.488281 52.375 Z M 87.488281 42.933594 " fill-opacity="1" fill-rule="nonzero"/></g></g></svg>