<svg xmlns="http://www.w3.org/2000/svg" xmlns:xlink="http://www.w3.org/1999/xlink" width="430" zoomAndPan="magnify" viewBox="0 0 322.5 185.999996" height="248" preserveAspectRatio="xMidYMid meet" version="1.0"><defs><g/><clipPath id="1068e8cb97"><path d="M 121.359375 13.539062 L 200.089844 13.539062 L 200.089844 92.269531 L 121.359375 92.269531 Z M 121.359375 13.539062 " clip-rule="nonzero"/></clipPath><clipPath id="df5c309b2a"><path d="M 138.582031 13.539062 L 182.867188 13.539062 C 187.4375 13.539062 191.816406 15.351562 195.046875 18.582031 C 198.277344 21.8125 200.089844 26.191406 200.089844 30.761719 L 200.089844 75.046875 C 200.089844 79.613281 198.277344 83.996094 195.046875 87.226562 C 191.816406 90.453125 187.4375 92.269531 182.867188 92.269531 L 138.582031 92.269531 C 134.015625 92.269531 129.632812 90.453125 126.40625 87.226562 C 123.175781 83.996094 121.359375 79.613281 121.359375 75.046875 L 121.359375 30.761719 C 121.359375 26.191406 123.175781 21.8125 126.40625 18.582031 C 129.632812 15.351562 134.015625 13.539062 138.582031 13.539062 Z M 138.582031 13.539062 " clip-rule="nonzero"/></clipPath><clipPath id="44bb3d1ce8"><path d="M 108.175781 0.144531 L 213.011719 0.144531 L 213.011719 104.980469 L 108.175781 104.980469 Z M 108.175781 0.144531 " clip-rule="nonzero"/></clipPath></defs><g clip-path="url(#1068e8cb97)"><g clip-path="url(#df5c309b2a)"><path fill="#000000" d="M 121.359375 13.539062 L 200.089844 13.539062 L 200.089844 92.269531 L 121.359375 92.269531 Z M 121.359375 13.539062 " fill-opacity="1" fill-rule="nonzero"/></g></g><g clip-path="url(#44bb3d1ce8)"><path fill="#ffffff" d="M 213.011719 66.328125 L 213.011719 38.539062 C 213.011719 37.28125 212.949219 36.027344 212.828125 34.777344 C 212.703125 33.523438 212.519531 32.28125 212.273438 31.050781 C 212.027344 29.816406 211.722656 28.597656 211.359375 27.394531 C 210.992188 26.191406 210.570312 25.007812 210.089844 23.847656 C 209.609375 22.683594 209.070312 21.550781 208.476562 20.441406 C 207.886719 19.332031 207.238281 18.253906 206.542969 17.207031 C 205.84375 16.164062 205.09375 15.152344 204.296875 14.183594 C 203.5 13.210938 202.65625 12.277344 201.765625 11.390625 C 200.875 10.5 199.945312 9.65625 198.972656 8.859375 C 198.003906 8.0625 196.992188 7.3125 195.949219 6.613281 C 194.902344 5.917969 193.824219 5.269531 192.714844 4.675781 C 191.605469 4.085938 190.472656 3.546875 189.308594 3.066406 C 188.148438 2.585938 186.964844 2.164062 185.761719 1.796875 C 184.558594 1.433594 183.339844 1.128906 182.105469 0.882812 C 180.875 0.636719 179.632812 0.453125 178.378906 0.328125 C 177.128906 0.207031 175.875 0.144531 174.617188 0.144531 L 146.828125 0.144531 C 145.570312 0.144531 144.316406 0.207031 143.0625 0.328125 C 141.8125 0.453125 140.570312 0.636719 139.335938 0.882812 C 138.105469 1.128906 136.886719 1.433594 135.683594 1.796875 C 134.480469 2.164062 133.296875 2.585938 132.132812 3.066406 C 130.972656 3.546875 129.835938 4.085938 128.726562 4.675781 C 127.617188 5.269531 126.542969 5.917969 125.496094 6.613281 C 124.449219 7.3125 123.441406 8.0625 122.46875 8.859375 C 121.496094 9.65625 120.566406 10.5 119.679688 11.390625 C 118.789062 12.277344 117.945312 13.210938 117.148438 14.183594 C 116.347656 15.152344 115.601562 16.164062 114.902344 17.207031 C 114.203125 18.253906 113.558594 19.332031 112.964844 20.441406 C 112.371094 21.550781 111.835938 22.683594 111.355469 23.847656 C 110.875 25.007812 110.449219 26.191406 110.085938 27.394531 C 109.71875 28.597656 109.414062 29.816406 109.167969 31.050781 C 108.925781 32.28125 108.738281 33.523438 108.617188 34.777344 C 108.492188 36.027344 108.433594 37.28125 108.433594 38.539062 L 108.433594 66.328125 C 108.433594 67.585938 108.492188 68.839844 108.617188 70.089844 C 108.738281 71.34375 108.925781 72.585938 109.167969 73.820312 C 109.414062 75.050781 109.71875 76.269531 110.085938 77.472656 C 110.449219 78.675781 110.875 79.859375 111.355469 81.023438 C 111.835938 82.183594 112.371094 83.320312 112.964844 84.429688 C 113.558594 85.535156 114.203125 86.613281 114.902344 87.660156 C 115.601562 88.707031 116.347656 89.714844 117.148438 90.6875 C 117.945312 91.660156 118.789062 92.589844 119.675781 93.476562 C 120.566406 94.367188 121.496094 95.210938 122.46875 96.007812 C 123.441406 96.804688 124.449219 97.554688 125.496094 98.253906 C 126.542969 98.953125 127.617188 99.597656 128.726562 100.191406 C 129.835938 100.78125 130.972656 101.320312 132.132812 101.800781 C 133.296875 102.28125 134.480469 102.707031 135.683594 103.070312 C 136.886719 103.4375 138.105469 103.742188 139.335938 103.984375 C 140.570312 104.230469 141.8125 104.414062 143.0625 104.539062 C 144.316406 104.664062 145.570312 104.722656 146.828125 104.722656 L 174.617188 104.722656 C 175.875 104.722656 177.128906 104.664062 178.378906 104.539062 C 179.632812 104.414062 180.875 104.230469 182.105469 103.984375 C 183.339844 103.742188 184.558594 103.4375 185.761719 103.070312 C 186.964844 102.707031 188.148438 102.28125 189.308594 101.800781 C 190.472656 101.320312 191.605469 100.78125 192.714844 100.191406 C 193.824219 99.597656 194.902344 98.953125 195.949219 98.253906 C 196.992188 97.554688 198.003906 96.804688 198.972656 96.007812 C 199.945312 95.210938 200.875 94.367188 201.765625 93.476562 C 202.65625 92.589844 203.5 91.660156 204.296875 90.6875 C 205.09375 89.714844 205.84375 88.707031 206.542969 87.660156 C 207.238281 86.613281 207.886719 85.535156 208.476562 84.429688 C 209.070312 83.320312 209.609375 82.183594 210.089844 81.023438 C 210.570312 79.859375 210.992188 78.675781 211.359375 77.472656 C 211.722656 76.269531 212.027344 75.050781 212.273438 73.820312 C 212.519531 72.585938 212.703125 71.34375 212.828125 70.089844 C 212.949219 68.839844 213.011719 67.585938 213.011719 66.328125 Z M 130.84375 51.109375 C 131.328125 42.050781 138.945312 26.289062 157.753906 26.289062 L 185 26.289062 C 185.367188 26.289062 185.730469 26.324219 186.09375 26.398438 C 186.453125 26.46875 186.804688 26.574219 187.144531 26.714844 C 187.484375 26.855469 187.804688 27.027344 188.113281 27.234375 C 188.417969 27.4375 188.699219 27.667969 188.960938 27.929688 C 189.222656 28.191406 189.453125 28.472656 189.65625 28.777344 C 189.863281 29.085938 190.035156 29.40625 190.175781 29.746094 C 190.316406 30.085938 190.421875 30.4375 190.496094 30.796875 C 190.566406 31.160156 190.601562 31.523438 190.601562 31.890625 L 190.601562 35.625 C 190.601562 35.996094 190.566406 36.359375 190.496094 36.71875 C 190.421875 37.082031 190.316406 37.429688 190.175781 37.769531 C 190.035156 38.109375 189.863281 38.433594 189.65625 38.738281 C 189.453125 39.046875 189.222656 39.328125 188.960938 39.589844 C 188.699219 39.847656 188.417969 40.082031 188.113281 40.285156 C 187.804688 40.488281 187.484375 40.660156 187.144531 40.800781 C 186.804688 40.941406 186.453125 41.050781 186.09375 41.121094 C 185.730469 41.191406 185.367188 41.230469 185 41.230469 L 157.378906 41.230469 C 156.691406 41.21875 156.011719 41.269531 155.332031 41.382812 C 154.65625 41.496094 153.992188 41.667969 153.347656 41.898438 C 152.699219 42.128906 152.078125 42.417969 151.484375 42.757812 C 150.890625 43.101562 150.328125 43.496094 149.804688 43.9375 C 149.28125 44.382812 148.800781 44.871094 148.363281 45.398438 C 147.925781 45.929688 147.539062 46.492188 147.203125 47.09375 C 146.867188 47.691406 146.589844 48.316406 146.367188 48.964844 C 146.144531 49.617188 145.980469 50.28125 145.875 50.957031 C 145.78125 51.652344 145.753906 52.351562 145.789062 53.050781 C 145.828125 53.75 145.929688 54.441406 146.09375 55.121094 C 146.261719 55.804688 146.488281 56.464844 146.78125 57.101562 C 147.070312 57.738281 147.417969 58.34375 147.820312 58.917969 C 148.226562 59.492188 148.679688 60.023438 149.183594 60.507812 C 149.6875 60.996094 150.230469 61.433594 150.816406 61.820312 C 151.402344 62.207031 152.019531 62.53125 152.667969 62.800781 C 153.3125 63.074219 153.980469 63.28125 154.667969 63.425781 C 155.351562 63.570312 156.046875 63.648438 156.746094 63.664062 C 157.449219 63.679688 158.144531 63.628906 158.835938 63.511719 C 159.527344 63.394531 160.203125 63.214844 160.859375 62.972656 C 161.515625 62.730469 162.148438 62.425781 162.746094 62.066406 C 163.347656 61.707031 163.910156 61.292969 164.433594 60.824219 C 164.957031 60.359375 165.433594 59.847656 165.859375 59.292969 C 166.289062 58.738281 166.660156 58.144531 166.976562 57.519531 C 167.292969 56.894531 167.550781 56.246094 167.742188 55.570312 C 167.863281 55.125 168.050781 54.710938 168.304688 54.328125 C 168.5625 53.941406 168.871094 53.609375 169.234375 53.328125 C 169.597656 53.042969 170 52.824219 170.433594 52.671875 C 170.867188 52.519531 171.316406 52.441406 171.777344 52.433594 L 178.539062 52.433594 C 178.84375 52.433594 179.144531 52.464844 179.441406 52.527344 C 179.738281 52.59375 180.027344 52.6875 180.300781 52.816406 C 180.578125 52.941406 180.839844 53.097656 181.082031 53.28125 C 181.324219 53.464844 181.542969 53.675781 181.738281 53.90625 C 181.9375 54.140625 182.105469 54.390625 182.246094 54.660156 C 182.390625 54.929688 182.5 55.210938 182.578125 55.503906 C 182.660156 55.796875 182.707031 56.097656 182.722656 56.402344 C 182.734375 56.707031 182.71875 57.007812 182.664062 57.308594 C 182.519531 58.117188 182.332031 58.917969 182.109375 59.710938 C 181.886719 60.503906 181.625 61.28125 181.328125 62.050781 C 181.03125 62.816406 180.699219 63.570312 180.332031 64.304688 C 179.964844 65.042969 179.5625 65.761719 179.128906 66.457031 C 178.691406 67.15625 178.226562 67.832031 177.726562 68.488281 C 177.226562 69.140625 176.699219 69.769531 176.140625 70.375 C 175.582031 70.980469 174.996094 71.554688 174.382812 72.105469 C 173.769531 72.652344 173.128906 73.171875 172.46875 73.660156 C 171.804688 74.148438 171.121094 74.605469 170.417969 75.03125 C 169.710938 75.453125 168.988281 75.84375 168.246094 76.199219 C 167.503906 76.554688 166.746094 76.875 165.976562 77.160156 C 165.203125 77.445312 164.417969 77.691406 163.625 77.902344 C 162.828125 78.113281 162.023438 78.285156 161.210938 78.417969 C 160.398438 78.554688 159.582031 78.648438 158.761719 78.707031 C 157.941406 78.765625 157.121094 78.78125 156.296875 78.761719 C 155.472656 78.742188 154.652344 78.683594 153.835938 78.585938 C 153.019531 78.488281 152.210938 78.351562 151.40625 78.175781 C 150.601562 78.003906 149.804688 77.789062 149.023438 77.542969 C 148.238281 77.292969 147.46875 77.007812 146.710938 76.683594 C 145.953125 76.363281 145.210938 76.003906 144.488281 75.613281 C 143.765625 75.222656 143.0625 74.796875 142.378906 74.335938 C 141.695312 73.878906 141.035156 73.390625 140.398438 72.867188 C 139.757812 72.347656 139.148438 71.796875 138.5625 71.21875 C 137.976562 70.640625 137.421875 70.035156 136.894531 69.40625 C 136.363281 68.773438 135.867188 68.117188 135.402344 67.441406 C 134.933594 66.761719 134.5 66.0625 134.101562 65.34375 C 133.699219 64.625 133.335938 63.890625 133.003906 63.136719 C 132.671875 62.382812 132.378906 61.617188 132.121094 60.835938 C 131.863281 60.054688 131.640625 59.261719 131.457031 58.457031 C 131.273438 57.65625 131.128906 56.847656 131.019531 56.03125 C 130.914062 55.214844 130.84375 54.398438 130.816406 53.574219 C 130.785156 52.75 130.792969 51.929688 130.84375 51.109375 Z M 130.84375 51.109375 " fill-opacity="1" fill-rule="nonzero"/></g><g fill="#ffffff" fill-opacity="1"><g transform="translate(99.496508, 163.00324)"><g><path d="M 20.875 -28.609375 C 17.238281 -28.609375 14.613281 -27.597656 13 -25.578125 C 11.382812 -23.566406 10.578125 -20.816406 10.578125 -17.328125 C 10.578125 -15.628906 10.773438 -14.085938 11.171875 -12.703125 C 11.578125 -11.328125 12.175781 -10.140625 12.96875 -9.140625 C 13.769531 -8.140625 14.769531 -7.363281 15.96875 -6.8125 C 17.164062 -6.257812 18.566406 -5.984375 20.171875 -5.984375 C 21.035156 -5.984375 21.773438 -6 22.390625 -6.03125 C 23.003906 -6.070312 23.546875 -6.140625 24.015625 -6.234375 L 24.015625 -18.265625 L 31.796875 -18.265625 L 31.796875 -1.140625 C 30.867188 -0.773438 29.375 -0.382812 27.3125 0.03125 C 25.25 0.445312 22.703125 0.65625 19.671875 0.65625 C 17.078125 0.65625 14.722656 0.253906 12.609375 -0.546875 C 10.492188 -1.347656 8.6875 -2.515625 7.1875 -4.046875 C 5.6875 -5.578125 4.53125 -7.457031 3.71875 -9.6875 C 2.90625 -11.914062 2.5 -14.460938 2.5 -17.328125 C 2.5 -20.222656 2.945312 -22.785156 3.84375 -25.015625 C 4.738281 -27.242188 5.96875 -29.128906 7.53125 -30.671875 C 9.101562 -32.222656 10.941406 -33.394531 13.046875 -34.1875 C 15.160156 -34.988281 17.414062 -35.390625 19.8125 -35.390625 C 21.445312 -35.390625 22.921875 -35.28125 24.234375 -35.0625 C 25.546875 -34.851562 26.675781 -34.601562 27.625 -34.3125 C 28.570312 -34.03125 29.351562 -33.738281 29.96875 -33.4375 C 30.59375 -33.144531 31.035156 -32.914062 31.296875 -32.75 L 29.046875 -26.515625 C 27.984375 -27.078125 26.757812 -27.566406 25.375 -27.984375 C 24 -28.398438 22.5 -28.609375 20.875 -28.609375 Z M 20.875 -28.609375 "/></g></g></g><g fill="#ffffff" fill-opacity="1"><g transform="translate(134.536747, 163.00324)"><g><path d="M 2.25 -12.9375 C 2.25 -15.257812 2.601562 -17.296875 3.3125 -19.046875 C 4.03125 -20.796875 4.972656 -22.25 6.140625 -23.40625 C 7.304688 -24.570312 8.644531 -25.453125 10.15625 -26.046875 C 11.675781 -26.648438 13.234375 -26.953125 14.828125 -26.953125 C 18.554688 -26.953125 21.5 -25.8125 23.65625 -23.53125 C 25.820312 -21.257812 26.90625 -17.910156 26.90625 -13.484375 C 26.90625 -13.046875 26.890625 -12.566406 26.859375 -12.046875 C 26.828125 -11.535156 26.796875 -11.082031 26.765625 -10.6875 L 9.890625 -10.6875 C 10.054688 -9.15625 10.769531 -7.9375 12.03125 -7.03125 C 13.289062 -6.132812 14.988281 -5.6875 17.125 -5.6875 C 18.488281 -5.6875 19.828125 -5.8125 21.140625 -6.0625 C 22.453125 -6.3125 23.523438 -6.617188 24.359375 -6.984375 L 25.359375 -0.953125 C 24.960938 -0.753906 24.429688 -0.550781 23.765625 -0.34375 C 23.097656 -0.144531 22.351562 0.0234375 21.53125 0.171875 C 20.71875 0.328125 19.84375 0.453125 18.90625 0.546875 C 17.976562 0.648438 17.050781 0.703125 16.125 0.703125 C 13.757812 0.703125 11.703125 0.351562 9.953125 -0.34375 C 8.210938 -1.039062 6.765625 -2 5.609375 -3.21875 C 4.460938 -4.4375 3.613281 -5.875 3.0625 -7.53125 C 2.519531 -9.195312 2.25 -11 2.25 -12.9375 Z M 19.71875 -15.78125 C 19.6875 -16.40625 19.578125 -17.015625 19.390625 -17.609375 C 19.210938 -18.210938 18.929688 -18.75 18.546875 -19.21875 C 18.160156 -19.6875 17.675781 -20.066406 17.09375 -20.359375 C 16.507812 -20.660156 15.785156 -20.8125 14.921875 -20.8125 C 14.085938 -20.8125 13.367188 -20.671875 12.765625 -20.390625 C 12.171875 -20.109375 11.675781 -19.734375 11.28125 -19.265625 C 10.882812 -18.804688 10.578125 -18.265625 10.359375 -17.640625 C 10.140625 -17.023438 9.984375 -16.40625 9.890625 -15.78125 Z M 19.71875 -15.78125 "/></g></g></g><g fill="#ffffff" fill-opacity="1"><g transform="translate(163.687032, 163.00324)"><g><path d="M 3.5 -25.359375 C 4.757812 -25.722656 6.382812 -26.0625 8.375 -26.375 C 10.375 -26.695312 12.472656 -26.859375 14.671875 -26.859375 C 16.898438 -26.859375 18.753906 -26.566406 20.234375 -25.984375 C 21.722656 -25.398438 22.898438 -24.578125 23.765625 -23.515625 C 24.628906 -22.453125 25.242188 -21.1875 25.609375 -19.71875 C 25.972656 -18.25 26.15625 -16.617188 26.15625 -14.828125 L 26.15625 0 L 18.71875 0 L 18.71875 -13.921875 C 18.71875 -16.316406 18.398438 -18.015625 17.765625 -19.015625 C 17.140625 -20.015625 15.960938 -20.515625 14.234375 -20.515625 C 13.691406 -20.515625 13.117188 -20.488281 12.515625 -20.4375 C 11.921875 -20.394531 11.394531 -20.335938 10.9375 -20.265625 L 10.9375 0 L 3.5 0 Z M 3.5 -25.359375 "/></g></g></g><g fill="#ffffff" fill-opacity="1"><g transform="translate(193.086892, 163.00324)"><g><path d="M 10.9375 0 L 3.5 0 L 3.5 -26.265625 L 10.9375 -26.265625 Z M 11.625 -33.84375 C 11.625 -32.476562 11.179688 -31.40625 10.296875 -30.625 C 9.421875 -29.84375 8.382812 -29.453125 7.1875 -29.453125 C 5.988281 -29.453125 4.945312 -29.84375 4.0625 -30.625 C 3.1875 -31.40625 2.75 -32.476562 2.75 -33.84375 C 2.75 -35.207031 3.1875 -36.28125 4.0625 -37.0625 C 4.945312 -37.84375 5.988281 -38.234375 7.1875 -38.234375 C 8.382812 -38.234375 9.421875 -37.84375 10.296875 -37.0625 C 11.179688 -36.28125 11.625 -35.207031 11.625 -33.84375 Z M 11.625 -33.84375 "/></g></g></g><g fill="#ffffff" fill-opacity="1"><g transform="translate(207.512292, 163.00324)"><g><path d="M 10.9375 0 L 3.5 0 L 3.5 -26.265625 L 10.9375 -26.265625 Z M 11.625 -33.84375 C 11.625 -32.476562 11.179688 -31.40625 10.296875 -30.625 C 9.421875 -29.84375 8.382812 -29.453125 7.1875 -29.453125 C 5.988281 -29.453125 4.945312 -29.84375 4.0625 -30.625 C 3.1875 -31.40625 2.75 -32.476562 2.75 -33.84375 C 2.75 -35.207031 3.1875 -36.28125 4.0625 -37.0625 C 4.945312 -37.84375 5.988281 -38.234375 7.1875 -38.234375 C 8.382812 -38.234375 9.421875 -37.84375 10.296875 -37.0625 C 11.179688 -36.28125 11.625 -35.207031 11.625 -33.84375 Z M 11.625 -33.84375 "/></g></g></g></svg>