<svg xmlns="http://www.w3.org/2000/svg" xmlns:xlink="http://www.w3.org/1999/xlink" width="313" zoomAndPan="magnify" viewBox="0 0 234.75 82.499998" height="110" preserveAspectRatio="xMidYMid meet" version="1.0"><defs><g/><clipPath id="282aa1781c"><path d="M 7.066406 8.300781 L 77.308594 8.300781 L 77.308594 73.453125 L 7.066406 73.453125 Z M 7.066406 8.300781 " clip-rule="nonzero"/></clipPath><clipPath id="f25a7668c0"><path d="M 24.210938 8.300781 L 59.921875 8.300781 C 64.46875 8.300781 68.828125 10.105469 72.046875 13.324219 C 75.261719 16.539062 77.066406 20.898438 77.066406 25.445312 L 77.066406 56.308594 C 77.066406 60.855469 75.261719 65.214844 72.046875 68.433594 C 68.828125 71.648438 64.46875 73.453125 59.921875 73.453125 L 24.210938 73.453125 C 19.664062 73.453125 15.300781 71.648438 12.085938 68.433594 C 8.871094 65.214844 7.066406 60.855469 7.066406 56.308594 L 7.066406 25.445312 C 7.066406 20.898438 8.871094 16.539062 12.085938 13.324219 C 15.300781 10.105469 19.664062 8.300781 24.210938 8.300781 Z M 24.210938 8.300781 " clip-rule="nonzero"/></clipPath><clipPath id="380cbc0eb4"><path d="M 0.582031 0 L 82.328125 0 L 82.328125 82 L 0.582031 82 Z M 0.582031 0 " clip-rule="nonzero"/></clipPath></defs><g clip-path="url(#282aa1781c)"><g clip-path="url(#f25a7668c0)"><path fill="#000000" d="M 7.066406 8.300781 L 77.054688 8.300781 L 77.054688 73.453125 L 7.066406 73.453125 Z M 7.066406 8.300781 " fill-opacity="1" fill-rule="nonzero"/></g></g><g clip-path="url(#380cbc0eb4)"><path fill="#ffffff" d="M 82.328125 51.734375 L 82.328125 30.011719 C 82.328125 29.03125 82.28125 28.050781 82.183594 27.070312 C 82.089844 26.09375 81.945312 25.121094 81.753906 24.15625 C 81.5625 23.195312 81.324219 22.242188 81.039062 21.300781 C 80.75 20.359375 80.421875 19.433594 80.046875 18.527344 C 79.667969 17.621094 79.25 16.730469 78.785156 15.863281 C 78.324219 14.996094 77.816406 14.15625 77.273438 13.339844 C 76.726562 12.519531 76.140625 11.734375 75.515625 10.972656 C 74.894531 10.214844 74.234375 9.484375 73.539062 8.789062 C 72.84375 8.09375 72.117188 7.4375 71.355469 6.8125 C 70.597656 6.1875 69.808594 5.605469 68.992188 5.058594 C 68.171875 4.511719 67.332031 4.007812 66.464844 3.542969 C 65.597656 3.082031 64.710938 2.660156 63.800781 2.285156 C 62.894531 1.910156 61.96875 1.578125 61.027344 1.292969 C 60.089844 1.007812 59.136719 0.769531 58.171875 0.578125 C 57.207031 0.386719 56.238281 0.242188 55.257812 0.144531 C 54.28125 0.046875 53.300781 0 52.316406 0 L 30.59375 0 C 29.613281 0 28.632812 0.046875 27.652344 0.144531 C 26.675781 0.242188 25.703125 0.386719 24.742188 0.578125 C 23.777344 0.769531 22.824219 1.007812 21.882812 1.292969 C 20.941406 1.578125 20.019531 1.910156 19.109375 2.285156 C 18.203125 2.660156 17.316406 3.082031 16.449219 3.542969 C 15.582031 4.007812 14.738281 4.511719 13.921875 5.058594 C 13.105469 5.605469 12.316406 6.1875 11.554688 6.8125 C 10.796875 7.4375 10.070312 8.09375 9.375 8.789062 C 8.679688 9.484375 8.019531 10.214844 7.394531 10.972656 C 6.773438 11.734375 6.1875 12.519531 5.640625 13.339844 C 5.09375 14.15625 4.589844 14.996094 4.125 15.863281 C 3.664062 16.730469 3.242188 17.621094 2.867188 18.527344 C 2.492188 19.433594 2.160156 20.359375 1.875 21.300781 C 1.589844 22.242188 1.351562 23.195312 1.160156 24.15625 C 0.96875 25.121094 0.824219 26.09375 0.726562 27.070312 C 0.632812 28.050781 0.582031 29.03125 0.582031 30.011719 L 0.582031 51.734375 C 0.582031 52.71875 0.632812 53.699219 0.726562 54.675781 C 0.824219 55.652344 0.96875 56.625 1.160156 57.589844 C 1.351562 58.554688 1.589844 59.503906 1.875 60.445312 C 2.160156 61.386719 2.492188 62.3125 2.867188 63.21875 C 3.242188 64.128906 3.664062 65.015625 4.125 65.882812 C 4.589844 66.75 5.09375 67.589844 5.640625 68.40625 C 6.1875 69.226562 6.773438 70.015625 7.394531 70.773438 C 8.019531 71.535156 8.679688 72.261719 9.375 72.957031 C 10.070312 73.652344 10.796875 74.3125 11.554688 74.933594 C 12.316406 75.558594 13.105469 76.144531 13.921875 76.6875 C 14.738281 77.234375 15.582031 77.738281 16.449219 78.203125 C 17.316406 78.667969 18.203125 79.085938 19.109375 79.460938 C 20.019531 79.839844 20.941406 80.167969 21.882812 80.453125 C 22.824219 80.738281 23.777344 80.976562 24.742188 81.171875 C 25.703125 81.363281 26.675781 81.507812 27.652344 81.601562 C 28.632812 81.699219 29.613281 81.746094 30.59375 81.746094 L 52.316406 81.746094 C 53.300781 81.746094 54.28125 81.699219 55.257812 81.601562 C 56.238281 81.507812 57.207031 81.363281 58.171875 81.171875 C 59.136719 80.976562 60.089844 80.738281 61.027344 80.453125 C 61.96875 80.167969 62.894531 79.839844 63.800781 79.460938 C 64.710938 79.085938 65.597656 78.667969 66.464844 78.203125 C 67.332031 77.738281 68.171875 77.234375 68.992188 76.6875 C 69.808594 76.144531 70.597656 75.558594 71.355469 74.933594 C 72.117188 74.3125 72.84375 73.652344 73.539062 72.957031 C 74.234375 72.261719 74.894531 71.535156 75.515625 70.773438 C 76.140625 70.015625 76.726562 69.226562 77.273438 68.40625 C 77.816406 67.589844 78.324219 66.75 78.785156 65.882812 C 79.25 65.015625 79.667969 64.128906 80.046875 63.21875 C 80.421875 62.3125 80.75 61.386719 81.039062 60.445312 C 81.324219 59.503906 81.5625 58.554688 81.753906 57.589844 C 81.945312 56.625 82.089844 55.652344 82.183594 54.675781 C 82.28125 53.699219 82.328125 52.71875 82.328125 51.734375 Z M 18.101562 39.835938 C 18.480469 32.757812 24.433594 20.4375 39.136719 20.4375 L 60.433594 20.4375 C 60.71875 20.4375 61.003906 20.464844 61.289062 20.519531 C 61.570312 20.578125 61.84375 20.660156 62.109375 20.769531 C 62.375 20.878906 62.628906 21.015625 62.867188 21.175781 C 63.105469 21.335938 63.328125 21.515625 63.53125 21.71875 C 63.734375 21.921875 63.914062 22.144531 64.074219 22.382812 C 64.234375 22.621094 64.367188 22.875 64.480469 23.140625 C 64.589844 23.40625 64.671875 23.679688 64.726562 23.960938 C 64.785156 24.242188 64.8125 24.527344 64.8125 24.816406 L 64.8125 27.734375 C 64.8125 28.023438 64.785156 28.308594 64.726562 28.589844 C 64.671875 28.871094 64.589844 29.144531 64.480469 29.410156 C 64.367188 29.675781 64.234375 29.929688 64.074219 30.167969 C 63.914062 30.40625 63.734375 30.628906 63.53125 30.832031 C 63.328125 31.035156 63.105469 31.21875 62.867188 31.375 C 62.628906 31.535156 62.375 31.671875 62.109375 31.78125 C 61.84375 31.890625 61.570312 31.972656 61.289062 32.03125 C 61.003906 32.085938 60.71875 32.113281 60.433594 32.113281 L 38.84375 32.113281 C 38.304688 32.105469 37.773438 32.148438 37.242188 32.234375 C 36.714844 32.324219 36.195312 32.457031 35.691406 32.636719 C 35.1875 32.820312 34.699219 33.042969 34.234375 33.3125 C 33.769531 33.578125 33.332031 33.886719 32.921875 34.234375 C 32.511719 34.578125 32.136719 34.960938 31.796875 35.375 C 31.453125 35.789062 31.152344 36.230469 30.890625 36.699219 C 30.628906 37.167969 30.410156 37.65625 30.234375 38.164062 C 30.058594 38.671875 29.933594 39.191406 29.851562 39.71875 C 29.777344 40.261719 29.753906 40.808594 29.785156 41.355469 C 29.8125 41.902344 29.894531 42.441406 30.023438 42.976562 C 30.152344 43.507812 30.332031 44.023438 30.558594 44.523438 C 30.785156 45.019531 31.058594 45.496094 31.371094 45.941406 C 31.6875 46.390625 32.042969 46.804688 32.4375 47.1875 C 32.832031 47.566406 33.257812 47.910156 33.714844 48.210938 C 34.171875 48.511719 34.652344 48.765625 35.160156 48.976562 C 35.664062 49.1875 36.1875 49.351562 36.722656 49.464844 C 37.257812 49.578125 37.800781 49.640625 38.347656 49.652344 C 38.898438 49.664062 39.441406 49.621094 39.980469 49.53125 C 40.523438 49.441406 41.050781 49.300781 41.5625 49.109375 C 42.078125 48.921875 42.570312 48.683594 43.039062 48.402344 C 43.507812 48.121094 43.949219 47.796875 44.359375 47.433594 C 44.765625 47.066406 45.140625 46.667969 45.472656 46.234375 C 45.808594 45.800781 46.097656 45.339844 46.34375 44.847656 C 46.59375 44.359375 46.792969 43.851562 46.945312 43.324219 C 47.039062 42.976562 47.183594 42.652344 47.382812 42.351562 C 47.582031 42.054688 47.824219 41.792969 48.109375 41.570312 C 48.394531 41.351562 48.707031 41.179688 49.046875 41.058594 C 49.386719 40.941406 49.738281 40.878906 50.097656 40.875 L 55.382812 40.875 C 55.621094 40.871094 55.855469 40.898438 56.089844 40.945312 C 56.320312 40.996094 56.546875 41.070312 56.761719 41.171875 C 56.976562 41.269531 57.179688 41.394531 57.371094 41.535156 C 57.558594 41.679688 57.730469 41.84375 57.886719 42.023438 C 58.039062 42.207031 58.171875 42.402344 58.28125 42.613281 C 58.394531 42.824219 58.480469 43.042969 58.542969 43.273438 C 58.605469 43.503906 58.640625 43.738281 58.652344 43.976562 C 58.664062 44.210938 58.648438 44.449219 58.609375 44.683594 C 58.492188 45.316406 58.347656 45.941406 58.175781 46.5625 C 58 47.179688 57.796875 47.789062 57.566406 48.390625 C 57.332031 48.992188 57.074219 49.578125 56.785156 50.152344 C 56.5 50.730469 56.183594 51.289062 55.84375 51.835938 C 55.503906 52.382812 55.136719 52.910156 54.75 53.421875 C 54.359375 53.933594 53.945312 54.425781 53.507812 54.898438 C 53.070312 55.371094 52.613281 55.820312 52.132812 56.25 C 51.652344 56.679688 51.15625 57.082031 50.636719 57.464844 C 50.121094 57.847656 49.585938 58.203125 49.035156 58.535156 C 48.484375 58.867188 47.917969 59.171875 47.339844 59.449219 C 46.757812 59.730469 46.167969 59.980469 45.5625 60.203125 C 44.957031 60.421875 44.347656 60.617188 43.722656 60.78125 C 43.101562 60.945312 42.472656 61.082031 41.839844 61.183594 C 41.203125 61.289062 40.566406 61.363281 39.925781 61.410156 C 39.28125 61.453125 38.640625 61.46875 37.996094 61.453125 C 37.355469 61.4375 36.714844 61.390625 36.074219 61.316406 C 35.4375 61.238281 34.800781 61.132812 34.171875 60.996094 C 33.542969 60.859375 32.921875 60.695312 32.3125 60.5 C 31.699219 60.304688 31.09375 60.082031 30.503906 59.828125 C 29.910156 59.578125 29.332031 59.296875 28.765625 58.992188 C 28.203125 58.683594 27.652344 58.351562 27.117188 57.996094 C 26.582031 57.636719 26.066406 57.253906 25.570312 56.847656 C 25.070312 56.4375 24.59375 56.007812 24.136719 55.558594 C 23.679688 55.105469 23.242188 54.632812 22.828125 54.140625 C 22.417969 53.644531 22.027344 53.132812 21.664062 52.605469 C 21.300781 52.074219 20.960938 51.527344 20.648438 50.964844 C 20.335938 50.402344 20.046875 49.828125 19.789062 49.238281 C 19.53125 48.648438 19.300781 48.050781 19.097656 47.441406 C 18.898438 46.828125 18.722656 46.210938 18.582031 45.582031 C 18.4375 44.957031 18.324219 44.324219 18.238281 43.6875 C 18.15625 43.046875 18.101562 42.40625 18.078125 41.765625 C 18.054688 41.121094 18.0625 40.480469 18.101562 39.835938 Z M 18.101562 39.835938 " fill-opacity="1" fill-rule="nonzero"/></g><g fill="#ffffff" fill-opacity="1"><g transform="translate(96.228013, 59.141564)"><g><path d="M 20.765625 -28.46875 C 17.160156 -28.46875 14.550781 -27.460938 12.9375 -25.453125 C 11.332031 -23.453125 10.53125 -20.710938 10.53125 -17.234375 C 10.53125 -15.546875 10.726562 -14.015625 11.125 -12.640625 C 11.519531 -11.265625 12.113281 -10.082031 12.90625 -9.09375 C 13.707031 -8.101562 14.703125 -7.332031 15.890625 -6.78125 C 17.085938 -6.238281 18.484375 -5.96875 20.078125 -5.96875 C 20.929688 -5.96875 21.664062 -5.984375 22.28125 -6.015625 C 22.894531 -6.046875 23.4375 -6.109375 23.90625 -6.203125 L 23.90625 -18.1875 L 31.65625 -18.1875 L 31.65625 -1.140625 C 30.726562 -0.773438 29.234375 -0.390625 27.171875 0.015625 C 25.117188 0.429688 22.585938 0.640625 19.578125 0.640625 C 16.992188 0.640625 14.648438 0.242188 12.546875 -0.546875 C 10.441406 -1.335938 8.644531 -2.492188 7.15625 -4.015625 C 5.664062 -5.546875 4.515625 -7.421875 3.703125 -9.640625 C 2.890625 -11.859375 2.484375 -14.390625 2.484375 -17.234375 C 2.484375 -20.117188 2.929688 -22.671875 3.828125 -24.890625 C 4.722656 -27.109375 5.945312 -28.988281 7.5 -30.53125 C 9.0625 -32.070312 10.890625 -33.238281 12.984375 -34.03125 C 15.085938 -34.832031 17.332031 -35.234375 19.71875 -35.234375 C 21.34375 -35.234375 22.804688 -35.125 24.109375 -34.90625 C 25.421875 -34.6875 26.550781 -34.4375 27.5 -34.15625 C 28.445312 -33.875 29.222656 -33.582031 29.828125 -33.28125 C 30.441406 -32.988281 30.882812 -32.757812 31.15625 -32.59375 L 28.921875 -26.390625 C 27.859375 -26.953125 26.640625 -27.4375 25.265625 -27.84375 C 23.890625 -28.257812 22.390625 -28.46875 20.765625 -28.46875 Z M 20.765625 -28.46875 "/></g></g></g><g fill="#ffffff" fill-opacity="1"><g transform="translate(131.111163, 59.141564)"><g><path d="M 2.234375 -12.875 C 2.234375 -15.1875 2.585938 -17.210938 3.296875 -18.953125 C 4.015625 -20.691406 4.953125 -22.140625 6.109375 -23.296875 C 7.265625 -24.460938 8.597656 -25.34375 10.109375 -25.9375 C 11.617188 -26.53125 13.164062 -26.828125 14.75 -26.828125 C 18.46875 -26.828125 21.398438 -25.691406 23.546875 -23.421875 C 25.703125 -21.160156 26.78125 -17.828125 26.78125 -13.421875 C 26.78125 -12.984375 26.765625 -12.507812 26.734375 -12 C 26.703125 -11.488281 26.664062 -11.035156 26.625 -10.640625 L 9.84375 -10.640625 C 10.007812 -9.109375 10.71875 -7.894531 11.96875 -7 C 13.226562 -6.113281 14.921875 -5.671875 17.046875 -5.671875 C 18.398438 -5.671875 19.726562 -5.789062 21.03125 -6.03125 C 22.34375 -6.28125 23.414062 -6.585938 24.25 -6.953125 L 25.234375 -0.9375 C 24.835938 -0.738281 24.304688 -0.539062 23.640625 -0.34375 C 22.984375 -0.144531 22.25 0.0234375 21.4375 0.171875 C 20.625 0.316406 19.753906 0.441406 18.828125 0.546875 C 17.898438 0.648438 16.972656 0.703125 16.046875 0.703125 C 13.691406 0.703125 11.644531 0.351562 9.90625 -0.34375 C 8.164062 -1.039062 6.722656 -1.992188 5.578125 -3.203125 C 4.441406 -4.410156 3.597656 -5.84375 3.046875 -7.5 C 2.503906 -9.15625 2.234375 -10.945312 2.234375 -12.875 Z M 19.625 -15.703125 C 19.59375 -16.328125 19.484375 -16.9375 19.296875 -17.53125 C 19.117188 -18.132812 18.835938 -18.664062 18.453125 -19.125 C 18.078125 -19.59375 17.597656 -19.972656 17.015625 -20.265625 C 16.429688 -20.566406 15.710938 -20.71875 14.859375 -20.71875 C 14.023438 -20.71875 13.3125 -20.578125 12.71875 -20.296875 C 12.125 -20.015625 11.628906 -19.640625 11.234375 -19.171875 C 10.835938 -18.710938 10.53125 -18.175781 10.3125 -17.5625 C 10.09375 -16.945312 9.9375 -16.328125 9.84375 -15.703125 Z M 19.625 -15.703125 "/></g></g></g><g fill="#ffffff" fill-opacity="1"><g transform="translate(160.130765, 59.141564)"><g><path d="M 3.484375 -25.234375 C 4.734375 -25.597656 6.351562 -25.9375 8.34375 -26.25 C 10.332031 -26.570312 12.421875 -26.734375 14.609375 -26.734375 C 16.828125 -26.734375 18.671875 -26.441406 20.140625 -25.859375 C 21.617188 -25.285156 22.785156 -24.46875 23.640625 -23.40625 C 24.503906 -22.34375 25.117188 -21.082031 25.484375 -19.625 C 25.847656 -18.164062 26.03125 -16.539062 26.03125 -14.75 L 26.03125 0 L 18.625 0 L 18.625 -13.859375 C 18.625 -16.242188 18.3125 -17.929688 17.6875 -18.921875 C 17.0625 -19.921875 15.882812 -20.421875 14.15625 -20.421875 C 13.625 -20.421875 13.0625 -20.394531 12.46875 -20.34375 C 11.875 -20.289062 11.34375 -20.234375 10.875 -20.171875 L 10.875 0 L 3.484375 0 Z M 3.484375 -25.234375 "/></g></g></g><g fill="#ffffff" fill-opacity="1"><g transform="translate(189.398823, 59.141564)"><g><path d="M 10.875 0 L 3.484375 0 L 3.484375 -26.140625 L 10.875 -26.140625 Z M 11.578125 -33.6875 C 11.578125 -32.332031 11.132812 -31.265625 10.25 -30.484375 C 9.375 -29.703125 8.34375 -29.3125 7.15625 -29.3125 C 5.957031 -29.3125 4.921875 -29.703125 4.046875 -30.484375 C 3.171875 -31.265625 2.734375 -32.332031 2.734375 -33.6875 C 2.734375 -35.039062 3.171875 -36.109375 4.046875 -36.890625 C 4.921875 -37.671875 5.957031 -38.0625 7.15625 -38.0625 C 8.34375 -38.0625 9.375 -37.671875 10.25 -36.890625 C 11.132812 -36.109375 11.578125 -35.039062 11.578125 -33.6875 Z M 11.578125 -33.6875 "/></g></g></g><g fill="#ffffff" fill-opacity="1"><g transform="translate(203.759553, 59.141564)"><g><path d="M 10.875 0 L 3.484375 0 L 3.484375 -26.140625 L 10.875 -26.140625 Z M 11.578125 -33.6875 C 11.578125 -32.332031 11.132812 -31.265625 10.25 -30.484375 C 9.375 -29.703125 8.34375 -29.3125 7.15625 -29.3125 C 5.957031 -29.3125 4.921875 -29.703125 4.046875 -30.484375 C 3.171875 -31.265625 2.734375 -32.332031 2.734375 -33.6875 C 2.734375 -35.039062 3.171875 -36.109375 4.046875 -36.890625 C 4.921875 -37.671875 5.957031 -38.0625 7.15625 -38.0625 C 8.34375 -38.0625 9.375 -37.671875 10.25 -36.890625 C 11.132812 -36.109375 11.578125 -35.039062 11.578125 -33.6875 Z M 11.578125 -33.6875 "/></g></g></g></svg>