<svg width="400" height="550" viewBox="0 0 700 550" fill="none" xmlns="http://www.w3.org/2000/svg">
<path d="M212.259 314.233C212.632 314.22 212.985 314.063 213.244 313.795C213.503 313.527 213.648 313.168 213.648 312.796C213.648 312.423 213.503 312.064 213.244 311.796C212.985 311.528 212.632 311.371 212.259 311.358C211.886 311.371 211.533 311.528 211.274 311.796C211.015 312.064 210.87 312.423 210.87 312.796C210.87 313.168 211.015 313.527 211.274 313.795C211.533 314.063 211.886 314.22 212.259 314.233Z" fill="white"/>
<path d="M218.701 315.614C219.073 315.601 219.426 315.444 219.685 315.175C219.945 314.907 220.089 314.549 220.089 314.176C220.089 313.803 219.945 313.445 219.685 313.176C219.426 312.908 219.073 312.751 218.701 312.738C218.328 312.751 217.975 312.908 217.716 313.176C217.456 313.445 217.312 313.803 217.312 314.176C217.312 314.549 217.456 314.907 217.716 315.175C217.975 315.444 218.328 315.601 218.701 315.614Z" fill="white"/>
<path d="M358.28 396.899C357.763 399.852 357.091 402.776 356.267 405.658C355.465 408.538 354.494 411.368 353.358 414.133C351.181 419.75 348.086 424.966 344.198 429.568C343.194 430.704 342.121 431.777 340.986 432.782C339.832 433.779 338.603 434.686 337.31 435.495C334.694 437.146 331.731 438.17 328.653 438.487C325.561 438.738 322.454 438.226 319.606 436.996C316.81 435.757 314.26 434.025 312.078 431.882C307.837 427.599 304.43 422.566 302.03 417.038C300.777 414.327 299.665 411.552 298.7 408.726C297.749 405.896 296.962 403.018 296.22 400.131C293.458 388.5 292.286 376.549 292.737 364.603C292.74 364.501 292.77 364.401 292.823 364.313C292.877 364.225 292.952 364.153 293.041 364.103C293.131 364.052 293.232 364.026 293.335 364.027C293.437 364.027 293.538 364.054 293.627 364.105L293.643 364.114C298.645 366.997 303.858 369.52 309.115 371.932C309.244 371.992 309.353 372.087 309.429 372.207C309.506 372.327 309.545 372.467 309.544 372.609L309.544 372.616C309.427 379.295 310.074 385.965 311.471 392.497C312.165 395.742 313.129 398.923 314.354 402.007C315.519 405.061 317.236 407.875 319.419 410.308C320.481 411.45 321.8 412.32 323.267 412.847C324.707 413.306 326.261 413.249 327.663 412.686C329.107 412.056 330.394 411.114 331.432 409.929C332.528 408.722 333.488 407.399 334.295 405.982C335.898 403.076 337.17 399.999 338.086 396.81C339.044 393.607 339.782 390.343 340.295 387.039L340.297 387.027C340.306 386.968 340.327 386.911 340.359 386.86C340.39 386.809 340.431 386.764 340.48 386.729C340.529 386.694 340.584 386.668 340.642 386.654C340.7 386.64 340.761 386.638 340.82 386.648C340.876 386.656 340.929 386.675 340.977 386.703C346.844 390.095 352.586 393.558 358.28 396.899ZM358.134 396.966C352.191 393.754 346.295 390.665 340.524 387.504L341.206 387.168C340.321 393.864 338.772 400.586 335.506 406.666C334.672 408.192 333.672 409.622 332.524 410.929C331.357 412.303 329.898 413.4 328.255 414.142C326.516 414.874 324.572 414.961 322.774 414.387C321.054 413.786 319.503 412.781 318.252 411.456C315.909 408.88 314.063 405.894 312.805 402.647C311.517 399.479 310.52 396.201 309.828 392.853C308.47 386.189 307.878 379.391 308.064 372.592L308.493 373.276C303.225 370.805 298.041 368.141 293.033 365.15L293.938 364.66C293.12 376.516 294.053 388.428 296.709 400.012C298.078 405.787 300.065 411.398 302.637 416.747C305.143 422.096 308.616 426.935 312.882 431.02C315.021 432.985 317.47 434.583 320.13 435.748C322.778 436.865 325.659 437.316 328.522 437.061C331.386 436.766 334.149 435.833 336.605 434.33C337.843 433.574 339.021 432.724 340.129 431.787C341.232 430.831 342.275 429.809 343.254 428.726C347.107 424.259 350.242 419.219 352.546 413.788C353.733 411.079 354.782 408.305 355.714 405.49C356.641 402.69 357.419 399.76 358.134 396.966H358.134Z" fill="black"/>
<path d="M316.269 375.944C316.374 387.639 320.337 397.047 325.208 397.047C329.036 397.047 332.3 391.228 333.573 383.046L332.558 363.148L332.041 362.718L325.61 357.262C325.447 357.128 325.285 356.985 325.122 356.841L316.269 375.944Z" fill="black"/>
<path d="M394.155 215.847C394.038 216.508 393.688 217.106 393.169 217.531C392.751 217.921 392.252 218.212 391.707 218.384C391.163 218.556 390.586 218.605 390.021 218.527C389.91 218.518 389.801 218.495 389.695 218.46C389.695 218.46 388.059 224.719 384.116 223.657C384.116 223.657 381.321 230.777 376.813 229.246C376.813 229.246 370.056 233.285 368.133 228.279L357.251 233.763C349.939 235.495 351.671 226.547 351.671 226.547L359.854 220.714L351.671 225.963C346.685 225.753 340.407 219.742 335.784 214.402C335.784 214.402 328.195 239.563 328.3 254.771L328.329 255.823C329.427 256.342 330.563 256.777 331.726 257.125C331.485 256.907 331.325 256.613 331.272 256.291C331.22 255.97 331.279 255.64 331.439 255.357C331.599 255.073 331.851 254.852 332.153 254.731C332.455 254.609 332.789 254.594 333.101 254.688C333.413 254.782 333.683 254.979 333.868 255.247C334.053 255.515 334.142 255.838 334.119 256.162C334.096 256.487 333.963 256.795 333.742 257.034C333.521 257.273 333.225 257.43 332.903 257.479C344.149 260.637 373.856 263.374 396.423 215.005L394.155 215.847ZM339.679 258.235C339.308 258.222 338.955 258.065 338.697 257.797C338.439 257.529 338.294 257.172 338.294 256.8C338.294 256.427 338.439 256.07 338.697 255.802C338.955 255.534 339.308 255.377 339.679 255.364C340.051 255.377 340.404 255.534 340.662 255.802C340.92 256.07 341.065 256.427 341.065 256.8C341.065 257.172 340.92 257.529 340.662 257.797C340.404 258.065 340.051 258.222 339.679 258.235ZM347.135 257.163C346.762 257.151 346.409 256.994 346.15 256.727C345.891 256.459 345.746 256.101 345.746 255.728C345.746 255.355 345.891 254.997 346.15 254.729C346.409 254.461 346.762 254.305 347.135 254.292C347.507 254.305 347.861 254.461 348.12 254.729C348.379 254.997 348.524 255.355 348.524 255.728C348.524 256.101 348.379 256.459 348.12 256.727C347.861 256.994 347.507 257.151 347.135 257.163ZM354.437 255.651C354.065 255.638 353.713 255.481 353.455 255.213C353.196 254.945 353.052 254.588 353.052 254.216C353.052 253.843 353.196 253.486 353.455 253.218C353.713 252.95 354.065 252.793 354.437 252.78C354.809 252.793 355.161 252.95 355.42 253.218C355.678 253.486 355.822 253.843 355.822 254.216C355.822 254.588 355.678 254.945 355.42 255.213C355.161 255.481 354.809 255.638 354.437 255.651ZM362.582 252.742C362.21 252.728 361.858 252.571 361.599 252.304C361.341 252.036 361.196 251.678 361.196 251.306C361.196 250.934 361.341 250.576 361.599 250.309C361.858 250.041 362.21 249.884 362.582 249.87C362.954 249.884 363.306 250.041 363.564 250.309C363.823 250.576 363.967 250.934 363.967 251.306C363.967 251.678 363.823 252.036 363.564 252.304C363.306 252.571 362.954 252.728 362.582 252.742ZM369.071 247.66C368.699 247.646 368.347 247.489 368.088 247.222C367.83 246.954 367.685 246.596 367.685 246.224C367.685 245.852 367.83 245.494 368.088 245.227C368.347 244.959 368.699 244.802 369.071 244.788C369.442 244.802 369.795 244.959 370.053 245.227C370.311 245.495 370.456 245.852 370.456 246.224C370.456 246.596 370.311 246.954 370.053 247.221C369.795 247.489 369.442 247.646 369.071 247.66V247.66ZM374.325 241.736C373.953 241.722 373.601 241.565 373.342 241.298C373.084 241.03 372.939 240.672 372.939 240.3C372.939 239.928 373.084 239.57 373.342 239.302C373.601 239.035 373.953 238.878 374.325 238.864C374.697 238.878 375.049 239.035 375.307 239.303C375.566 239.57 375.71 239.928 375.71 240.3C375.71 240.672 375.566 241.03 375.307 241.297C375.049 241.565 374.697 241.722 374.325 241.735V241.736ZM379.598 235.189C379.226 235.177 378.873 235.02 378.613 234.753C378.354 234.485 378.209 234.127 378.209 233.754C378.209 233.381 378.354 233.023 378.613 232.755C378.873 232.487 379.226 232.331 379.598 232.318C379.971 232.331 380.324 232.487 380.583 232.755C380.842 233.023 380.987 233.381 380.987 233.754C380.987 234.126 380.842 234.485 380.583 234.752C380.324 235.02 379.971 235.177 379.598 235.189V235.189ZM385.082 228.03C384.71 228.018 384.357 227.861 384.097 227.594C383.838 227.326 383.693 226.968 383.693 226.595C383.693 226.222 383.838 225.864 384.097 225.596C384.357 225.328 384.71 225.172 385.082 225.159C385.455 225.172 385.808 225.329 386.067 225.596C386.326 225.864 386.47 226.222 386.47 226.595C386.47 226.967 386.326 227.325 386.067 227.593C385.808 227.861 385.455 228.018 385.082 228.03V228.03ZM415.622 134.162C415.715 134.378 415.754 134.613 415.734 134.847C415.715 135.081 415.637 135.307 415.509 135.504C415.382 135.701 415.207 135.863 415.001 135.976C414.795 136.09 414.565 136.15 414.33 136.153C414.059 136.145 413.795 136.061 413.569 135.91C413.343 135.759 413.165 135.547 413.054 135.299C412.943 135.052 412.904 134.778 412.942 134.509C412.98 134.24 413.093 133.987 413.268 133.779L407.516 132.832C397.849 134.574 357.615 187.958 357.615 187.958L355.547 190.466V192.466C355.547 192.466 363.481 203.712 373.76 208.449C374.101 208.375 374.417 208.216 374.68 207.987C374.943 207.757 375.143 207.465 375.263 207.138C375.571 206.299 376.156 205.591 376.922 205.131C377.688 204.672 378.589 204.488 379.474 204.611C379.885 204.631 380.287 204.49 380.596 204.218C380.905 203.947 381.096 203.566 381.13 203.156V203.147C381.225 201.998 383.541 199.204 386.719 204.496C387.565 205.958 388.566 207.325 389.705 208.574L400.539 205.406C407.43 187.863 413.43 164.779 417.708 134.507L415.622 134.162ZM394.701 206.65C394.328 206.638 393.975 206.481 393.716 206.213C393.457 205.945 393.312 205.587 393.312 205.214C393.312 204.842 393.457 204.483 393.716 204.215C393.975 203.948 394.328 203.791 394.701 203.779C395.073 203.791 395.426 203.948 395.685 204.216C395.944 204.484 396.089 204.842 396.089 205.214C396.089 205.587 395.944 205.945 395.685 206.213C395.426 206.481 395.073 206.637 394.701 206.65V206.65ZM397.706 199.031C397.333 199.019 396.98 198.862 396.721 198.595C396.462 198.327 396.317 197.969 396.317 197.596C396.317 197.223 396.462 196.865 396.721 196.597C396.98 196.329 397.333 196.173 397.706 196.16C398.078 196.173 398.431 196.33 398.69 196.597C398.949 196.865 399.094 197.223 399.094 197.596C399.094 197.968 398.949 198.326 398.69 198.594C398.431 198.862 398.078 199.019 397.706 199.031V199.031ZM400.902 192.457C400.531 192.443 400.178 192.286 399.92 192.019C399.661 191.751 399.517 191.393 399.517 191.021C399.517 190.649 399.661 190.291 399.92 190.023C400.178 189.756 400.531 189.599 400.902 189.585C401.274 189.599 401.626 189.756 401.885 190.024C402.143 190.291 402.287 190.649 402.287 191.021C402.287 191.393 402.143 191.75 401.885 192.018C401.626 192.286 401.274 192.443 400.902 192.457V192.457ZM403.286 185.25C402.913 185.238 402.56 185.081 402.301 184.813C402.042 184.545 401.897 184.187 401.897 183.814C401.897 183.442 402.042 183.083 402.301 182.816C402.56 182.548 402.913 182.391 403.286 182.379C403.658 182.391 404.011 182.548 404.27 182.816C404.529 183.084 404.674 183.442 404.674 183.814C404.674 184.187 404.529 184.545 404.27 184.813C404.011 185.081 403.658 185.237 403.286 185.25V185.25ZM405.458 177.622C405.086 177.609 404.734 177.452 404.476 177.184C404.217 176.916 404.073 176.559 404.073 176.187C404.073 175.814 404.217 175.457 404.476 175.189C404.734 174.921 405.086 174.764 405.458 174.751C405.83 174.765 406.182 174.922 406.44 175.19C406.698 175.457 406.842 175.815 406.842 176.187C406.842 176.558 406.698 176.916 406.44 177.184C406.182 177.451 405.83 177.608 405.458 177.622V177.622ZM407.64 169.994C407.268 169.981 406.916 169.824 406.658 169.556C406.399 169.289 406.255 168.931 406.255 168.559C406.255 168.187 406.399 167.829 406.658 167.561C406.916 167.294 407.268 167.137 407.64 167.123C408.012 167.137 408.364 167.294 408.622 167.562C408.88 167.829 409.025 168.187 409.025 168.559C409.025 168.931 408.88 169.288 408.622 169.556C408.364 169.824 408.012 169.981 407.64 169.994V169.994ZM409.401 162.367C409.029 162.353 408.677 162.196 408.419 161.929C408.16 161.661 408.016 161.303 408.016 160.931C408.016 160.559 408.16 160.201 408.419 159.934C408.677 159.666 409.029 159.509 409.401 159.496C409.773 159.509 410.125 159.666 410.383 159.934C410.641 160.202 410.786 160.559 410.786 160.931C410.786 161.303 410.641 161.661 410.383 161.928C410.125 162.196 409.773 162.353 409.401 162.367L409.401 162.367ZM411.181 154.117C410.809 154.104 410.456 153.948 410.196 153.68C409.937 153.412 409.792 153.054 409.792 152.681C409.792 152.308 409.937 151.95 410.196 151.682C410.456 151.414 410.809 151.258 411.181 151.246C411.554 151.258 411.907 151.415 412.166 151.682C412.425 151.95 412.57 152.308 412.57 152.681C412.57 153.054 412.425 153.412 412.166 153.68C411.907 153.948 411.554 154.104 411.181 154.117L411.181 154.117ZM412.751 145.235C412.379 145.222 412.027 145.065 411.768 144.797C411.51 144.529 411.365 144.172 411.365 143.8C411.365 143.427 411.51 143.07 411.768 142.802C412.027 142.534 412.379 142.377 412.751 142.364C413.123 142.377 413.475 142.534 413.733 142.802C413.992 143.07 414.136 143.428 414.136 143.8C414.136 144.172 413.991 144.529 413.733 144.797C413.475 145.065 413.123 145.222 412.751 145.235L412.751 145.235Z" fill="black"/>
<path d="M406.276 89.6468C405.959 87.4996 405.157 85.4527 403.932 83.661C402.701 81.9061 401.131 80.4158 399.315 79.2779C395.652 77.044 391.318 76.1755 387.077 76.8257C384.958 77.0624 382.884 77.604 380.92 78.4336C378.951 79.2159 377.126 80.3225 375.523 81.7077C373.923 83.1081 372.548 84.7451 371.443 86.5619C370.898 87.4791 370.426 88.4385 370.034 89.4308C369.641 90.4009 369.465 91.445 369.517 92.4903C369.391 96.8747 369.384 101.259 369.338 105.644L369.358 108.932C369.351 109.991 369.593 111.037 370.065 111.985C370.524 112.926 371.241 113.717 372.131 114.267C372.539 114.532 373.018 114.664 373.504 114.646C373.978 114.599 374.424 114.399 374.773 114.075C375.518 113.349 376.102 112.475 376.489 111.509C376.913 110.524 377.261 109.508 377.531 108.47C377.818 107.435 378.032 106.382 378.17 105.317L378.594 102.065C378.865 99.8959 379.108 97.7234 379.297 95.5523C379.522 93.4056 379.619 91.2475 379.589 89.0892C379.583 88.8921 379.653 88.7002 379.783 88.5522C379.914 88.4042 380.095 88.3109 380.291 88.2912L388.854 87.4532L397.421 86.6643C397.47 86.6601 397.52 86.6599 397.569 86.6639C398.806 86.7751 400.011 86.9361 401.227 87.1204C402.441 87.3098 403.652 87.5306 404.862 87.8247C406.137 88.0867 407.364 88.5464 408.497 89.187C408.848 89.4026 409.152 89.6868 409.391 90.0226C409.539 90.2563 409.629 90.5228 409.651 90.7989C409.673 91.075 409.627 91.3523 409.517 91.6067C409.134 92.2696 408.566 92.807 407.883 93.1537L407.942 93.1148C407.394 93.4519 406.811 93.7273 406.203 93.9358C405.634 94.1538 405.059 94.318 404.484 94.4762C403.339 94.777 402.178 95.0111 401.006 95.1772C398.686 95.5049 396.347 95.6747 394.005 95.6853C391.672 95.7053 389.344 95.6465 387.025 95.4683C385.867 95.3622 384.709 95.2788 383.554 95.1544L380.097 94.7513C380.076 94.7488 380.057 94.7381 380.043 94.7214C380.03 94.7047 380.024 94.6835 380.027 94.6624C380.03 94.642 380.04 94.6235 380.056 94.6104C380.072 94.5973 380.092 94.5906 380.113 94.5916L383.582 94.7621C384.739 94.8089 385.896 94.8145 387.051 94.8427L390.515 94.8379C391.668 94.801 392.821 94.7784 393.97 94.7077C396.26 94.5781 398.54 94.3191 400.801 93.932C401.919 93.7415 403.025 93.4861 404.113 93.1672C404.649 93.0034 405.186 92.8333 405.694 92.6214C406.177 92.4393 406.641 92.2106 407.08 91.9383L407.138 91.8996L407.139 91.8993C407.534 91.6848 407.873 91.3806 408.129 91.0113C408.143 90.9173 408.149 90.9627 408.108 90.8676C407.979 90.7212 407.826 90.598 407.656 90.5031C406.654 89.996 405.587 89.6291 404.485 89.4126C402.157 88.9141 399.8 88.5679 397.427 88.3763L397.575 88.3759L389.005 89.1274L380.43 89.8299L381.133 89.0321C381.033 93.4606 380.601 97.8753 379.839 102.239C379.671 103.325 379.499 104.411 379.304 105.493C379.113 106.597 378.845 107.686 378.501 108.752C378.172 109.824 377.764 110.869 377.278 111.88C376.806 112.939 376.114 113.886 375.249 114.658C374.767 115.064 374.167 115.302 373.538 115.337C372.919 115.343 372.313 115.158 371.803 114.807C370.836 114.169 370.06 113.281 369.556 112.237C369.06 111.207 368.813 110.075 368.834 108.932L368.854 105.644C368.809 101.259 368.801 96.8748 368.675 92.4904C368.575 91.34 368.72 90.1816 369.102 89.0918C369.47 88.0271 369.923 86.9936 370.456 86.0013C371.528 84.0031 372.94 82.2067 374.628 80.6924C376.327 79.1814 378.268 77.9669 380.37 77.0997C382.465 76.2566 384.671 75.7197 386.92 75.5055C389.167 75.2078 391.448 75.3015 393.663 75.7825C395.876 76.2778 397.974 77.1915 399.844 78.4745C401.716 79.7373 403.293 81.3881 404.47 83.3148C405.624 85.231 406.298 87.3972 406.435 89.6296C406.437 89.6502 406.43 89.6704 406.416 89.6862C406.403 89.7019 406.384 89.7119 406.364 89.7141C406.343 89.7164 406.323 89.7106 406.306 89.6981C406.29 89.6856 406.279 89.6672 406.276 89.6469L406.276 89.6468Z" fill="black"/>
<path d="M407.511 92.5266C407.796 94.8261 407.929 97.1417 407.912 99.4586C407.931 101.776 407.797 104.091 407.511 106.391C407.225 104.091 407.091 101.776 407.11 99.4586C407.093 97.1417 407.227 94.8261 407.511 92.5266Z" fill="black"/>
<path d="M378.628 106.102C378.75 107.494 378.954 108.878 379.238 110.246C379.505 111.593 379.924 112.905 380.487 114.158C381.027 115.395 381.819 116.505 382.813 117.419C383.9 118.263 385.171 118.839 386.522 119.099C386.173 119.086 385.818 119.066 385.462 119.035C385.282 119.027 385.103 119.008 384.926 118.978L384.407 118.831C383.707 118.623 383.042 118.312 382.434 117.907C381.267 117.014 380.346 115.839 379.758 114.492C379.166 113.179 378.786 111.78 378.632 110.348C378.446 108.939 378.445 107.511 378.628 106.102Z" fill="black"/>
<path d="M401.989 94.3691C402.52 97.0252 402.828 99.7211 402.909 102.429C403.011 105.15 402.842 107.874 402.405 110.562C402.151 111.91 401.781 113.234 401.302 114.52C400.838 115.828 400.152 117.046 399.275 118.122C398.39 119.202 397.245 120.041 395.948 120.559C394.656 121.02 393.276 121.179 391.914 121.025C393.251 121.024 394.573 120.742 395.794 120.197C396.984 119.642 398.015 118.796 398.792 117.737C400.286 115.549 401.253 113.044 401.617 110.418C402.074 107.782 402.301 105.111 402.295 102.435C402.318 101.093 402.291 99.7491 402.23 98.4053C402.193 97.0592 402.097 95.7158 401.989 94.3691Z" fill="black"/>
<path d="M383.442 99.4585C384.094 99.1224 384.787 98.8698 385.502 98.7065C386.216 98.5311 386.944 98.4254 387.678 98.391C388.42 98.3542 389.163 98.4112 389.89 98.5606C390.624 98.7023 391.316 99.0094 391.914 99.4585C390.532 99.1818 389.119 99.0922 387.713 99.192C386.309 99.2441 384.909 99.4015 383.442 99.4585Z" fill="black"/>
<path d="M395.187 99.1164C395.647 98.7943 396.163 98.5628 396.709 98.4342C397.249 98.2935 397.806 98.2227 398.364 98.2237C399.488 98.205 400.592 98.5153 401.542 99.1164C400.976 99.123 400.45 99.0736 399.923 99.0595C399.399 99.0367 398.881 99.0217 398.363 99.0256C397.323 99.0156 396.3 99.074 395.187 99.1164Z" fill="black"/>
<path d="M397.261 104.85C397.494 105.239 397.574 105.701 397.487 106.145C397.4 106.621 397.148 107.051 396.775 107.359C396.406 107.641 395.968 107.817 395.506 107.868C395.072 107.913 394.634 107.858 394.225 107.705C394.629 107.525 395.003 107.403 395.355 107.261C395.68 107.125 395.987 106.949 396.269 106.737C396.812 106.245 397.164 105.577 397.261 104.85Z" fill="black"/>
<path d="M391.914 112.6C392.88 112.666 393.85 112.656 394.815 112.57C395.261 112.511 395.697 112.39 396.109 112.211C396.54 111.993 396.941 111.719 397.301 111.397C397.175 111.929 396.873 112.402 396.444 112.741C395.998 113.074 395.475 113.289 394.924 113.364C394.391 113.43 393.85 113.394 393.33 113.26C392.817 113.142 392.335 112.917 391.914 112.6Z" fill="black"/>
<path d="M387.293 103.358C387.605 103.347 387.9 103.216 388.117 102.991C388.334 102.767 388.455 102.467 388.455 102.154C388.455 101.842 388.334 101.542 388.117 101.318C387.9 101.093 387.605 100.962 387.293 100.951C386.981 100.962 386.685 101.093 386.468 101.318C386.251 101.542 386.13 101.842 386.13 102.154C386.13 102.467 386.251 102.767 386.468 102.991C386.685 103.216 386.981 103.347 387.293 103.358Z" fill="black"/>
<path d="M398.268 102.78C398.58 102.769 398.876 102.638 399.093 102.413C399.31 102.189 399.431 101.889 399.431 101.577C399.431 101.265 399.31 100.965 399.093 100.74C398.876 100.516 398.58 100.384 398.268 100.373C397.956 100.384 397.661 100.516 397.444 100.74C397.227 100.965 397.106 101.265 397.106 101.577C397.106 101.889 397.227 102.189 397.444 102.413C397.661 102.638 397.956 102.769 398.268 102.78Z" fill="black"/>
<path d="M371.413 114.146C370.085 117.199 368.069 119.903 365.522 122.046C364.833 122.569 364.048 122.949 363.211 123.167C362.999 123.226 362.782 123.269 362.564 123.296L361.894 123.304L360.718 123.313C359.143 123.561 357.631 124.113 356.266 124.937C354.842 125.701 353.498 126.607 352.256 127.641C351.002 128.666 349.839 129.798 348.78 131.024C347.717 132.248 346.803 133.594 346.057 135.033C345.331 136.494 344.884 138.078 344.738 139.703C344.731 138.043 345.058 136.399 345.7 134.868C346.395 133.357 347.27 131.934 348.304 130.631C349.339 129.329 350.507 128.139 351.789 127.079C353.054 125.994 354.426 125.04 355.884 124.233C357.35 123.379 358.97 122.82 360.65 122.587L361.935 122.595L362.496 122.598C362.684 122.577 362.87 122.541 363.053 122.493C363.808 122.302 364.524 121.98 365.169 121.543C366.479 120.597 367.644 119.464 368.625 118.179C369.653 116.906 370.585 115.558 371.413 114.146Z" fill="black"/>
<path d="M402.476 99.1162C404.906 101.79 406.971 104.775 408.616 107.992C410.273 111.214 411.566 114.611 412.474 118.118L413.618 123.378C414.075 125.087 414.723 126.74 415.551 128.303C416.379 129.865 417.509 131.247 418.875 132.37C420.242 133.526 421.911 134.266 423.686 134.504C421.859 134.415 420.1 133.781 418.637 132.683C417.171 131.58 415.94 130.195 415.016 128.61L414.343 127.413L413.805 126.154C413.423 125.322 413.216 124.431 412.914 123.57L411.697 118.313C410.831 114.85 409.615 111.484 408.067 108.267C406.527 105.03 404.653 101.964 402.476 99.1162Z" fill="black"/>
<path d="M394.875 120.736C394.665 121.733 394.424 122.721 394.173 123.705C393.863 124.641 393.661 125.609 393.571 126.591C393.556 127.04 393.653 127.486 393.853 127.888C394.053 128.291 394.349 128.638 394.716 128.898C395.498 129.429 396.395 129.766 397.333 129.883L397.359 129.886C397.424 129.895 397.485 129.921 397.537 129.961C397.588 130.001 397.628 130.054 397.652 130.115C398.157 131.384 398.575 132.686 398.904 134.012C399.254 135.326 399.503 136.666 399.648 138.018C399.255 136.718 398.838 135.434 398.399 134.166C397.943 132.903 397.465 131.638 396.943 130.42L397.262 130.652C396.174 130.548 395.132 130.16 394.241 129.525C393.786 129.182 393.419 128.735 393.171 128.22C392.941 127.702 392.841 127.136 392.881 126.571C393.044 125.539 393.337 124.532 393.754 123.574C394.11 122.622 394.477 121.674 394.875 120.736Z" fill="black"/>
<path d="M386.362 151.393C383.093 149.809 380.173 147.59 377.772 144.865C376.539 143.525 375.437 142.072 374.479 140.524C373.483 138.978 372.711 137.299 372.186 135.536C371.934 134.626 371.831 133.681 371.882 132.738C371.919 131.745 372.308 130.798 372.98 130.065C373.322 129.727 373.704 129.432 374.118 129.188C374.484 128.942 374.864 128.715 375.218 128.453L376.262 127.639L377.25 126.755C378.532 125.522 379.628 124.11 380.506 122.563C381.424 121.023 382.118 119.359 382.567 117.623C381.93 121.228 380.231 124.56 377.687 127.191L376.701 128.148L375.631 129.011C374.891 129.48 374.184 129.999 373.513 130.563C372.967 131.179 372.66 131.97 372.647 132.793C372.615 133.65 372.721 134.507 372.96 135.33C374.054 138.711 375.851 141.822 378.234 144.459C379.383 145.827 380.641 147.1 381.997 148.263C383.343 149.45 384.806 150.499 386.362 151.393Z" fill="black"/>
<path d="M374.033 129.766C370.731 131.081 367.418 132.365 364.085 133.589C360.758 134.833 357.422 136.052 354.078 137.247L349.06 139.013C347.438 139.486 345.92 140.258 344.583 141.29C343.336 142.424 342.328 143.795 341.619 145.324C340.837 146.888 340.158 148.501 339.585 150.153C339.01 151.813 338.569 153.516 338.267 155.246C337.916 156.998 337.471 158.73 336.933 160.434C335.922 163.852 334.555 167.15 333.507 170.522C331.46 177.276 330.295 184.267 330.041 191.32L329.269 190.602L343.025 189.22C347.611 188.771 352.201 188.361 356.795 187.991L356.088 188.566L358.351 181.272L360.533 173.95C361.259 171.51 361.966 169.063 362.603 166.601C363.336 164.172 363.839 161.681 364.106 159.158L364.107 159.145C364.108 159.125 364.117 159.106 364.132 159.092C364.146 159.078 364.166 159.07 364.186 159.07C364.206 159.07 364.226 159.078 364.24 159.091C364.255 159.105 364.264 159.124 364.266 159.144C364.312 160.431 364.219 161.719 363.99 162.987C363.799 164.254 363.581 165.516 363.326 166.768C362.817 169.275 362.239 171.765 361.641 174.249C361.042 176.732 360.373 179.197 359.714 181.664C359.041 184.127 358.384 186.593 357.65 189.043C357.604 189.196 357.513 189.333 357.39 189.435C357.266 189.537 357.115 189.6 356.956 189.617L356.943 189.618C352.357 190.079 347.769 190.504 343.177 190.893L329.398 192.013L329.362 192.016C329.182 192.031 329.003 191.973 328.865 191.856C328.727 191.738 328.641 191.571 328.626 191.391C328.624 191.359 328.624 191.327 328.625 191.295C329.13 184.15 330.589 177.104 332.963 170.346C334.125 166.972 335.472 163.695 336.427 160.285C336.916 158.59 337.29 156.863 337.546 155.118C337.764 153.334 338.125 151.572 338.624 149.846C339.128 148.115 339.745 146.418 340.47 144.767C341.189 143.035 342.276 141.479 343.655 140.207C345.117 139.039 346.798 138.177 348.599 137.672L353.653 135.98C357.02 134.86 360.398 133.772 363.787 132.715C367.167 131.631 370.568 130.606 373.98 129.614C373.99 129.611 374.001 129.61 374.011 129.611C374.022 129.612 374.032 129.616 374.041 129.621C374.051 129.626 374.059 129.632 374.065 129.641C374.072 129.649 374.077 129.658 374.08 129.668C374.085 129.688 374.084 129.708 374.075 129.726C374.066 129.744 374.051 129.758 374.033 129.766Z" fill="black"/>
<path d="M401.732 202.154C404.185 201.702 406.645 201.316 409.101 200.908L416.481 199.784L415.993 200.471C415.794 199.325 415.728 198.159 415.796 196.997C415.835 195.861 415.928 194.736 416.043 193.616C416.28 191.378 416.61 189.16 416.978 186.95C417.334 184.739 417.816 182.553 418.279 180.365C418.748 178.178 419.254 176.003 419.835 173.837L419.839 173.824C419.872 173.699 419.945 173.589 420.047 173.509C420.149 173.43 420.274 173.386 420.402 173.384C420.531 173.382 420.658 173.422 420.762 173.498C420.866 173.573 420.943 173.681 420.98 173.805C421.238 174.509 421.626 175.157 422.125 175.717C422.644 176.331 423.203 176.912 423.796 177.456C425.009 178.558 426.282 179.593 427.607 180.558C430.28 182.491 433.061 184.271 435.937 185.89L435.893 185.871C436.403 185.994 436.94 185.93 437.406 185.69C437.915 185.46 438.396 185.174 438.84 184.835C439.746 184.144 440.593 183.379 441.373 182.549C442.95 180.88 444.416 179.109 445.762 177.248C448.503 173.558 450.979 169.659 453.373 165.748L453.588 166.631C452.375 165.879 451.238 165.01 450.196 164.035C449.147 163.095 448.173 162.089 447.231 161.06C445.34 159.001 443.587 156.856 441.902 154.618L441.863 154.559L441.848 154.532C439.695 150.585 437.188 146.842 434.357 143.348C432.97 141.616 431.406 140.033 429.69 138.626C428.846 137.942 427.943 137.336 426.991 136.814C426.531 136.564 426.05 136.353 425.554 136.182C425.335 136.108 425.109 136.056 424.879 136.026L424.023 135.937C419.48 135.452 414.957 134.798 410.482 133.886C405.999 133.024 401.584 131.841 397.271 130.343C397.262 130.34 397.252 130.334 397.245 130.327C397.237 130.32 397.23 130.312 397.226 130.302C397.221 130.293 397.219 130.282 397.218 130.272C397.218 130.261 397.219 130.251 397.223 130.241C397.23 130.222 397.245 130.206 397.264 130.197C397.282 130.188 397.304 130.186 397.324 130.192C401.711 131.356 406.161 132.27 410.653 132.928C415.138 133.591 419.64 134.142 424.156 134.491L424.999 134.554C425.335 134.584 425.667 134.648 425.99 134.746C426.577 134.926 427.147 135.156 427.694 135.433C428.757 135.968 429.763 136.61 430.695 137.35C432.52 138.804 434.188 140.446 435.67 142.248C438.589 145.814 441.133 149.671 443.264 153.757L443.21 153.671C444.809 155.868 446.519 158.031 448.33 160.067C449.237 161.085 450.169 162.08 451.146 163.014C452.095 163.953 453.133 164.798 454.246 165.535L454.268 165.549C454.409 165.637 454.509 165.778 454.545 165.94C454.582 166.102 454.553 166.273 454.464 166.413L454.461 166.418C451.947 170.324 449.231 174.07 446.356 177.706C444.904 179.511 443.401 181.278 441.775 182.942C440.962 183.783 440.082 184.556 439.142 185.252C438.662 185.607 438.143 185.906 437.596 186.143C437.018 186.419 436.364 186.491 435.741 186.347L435.704 186.332L435.697 186.328C432.776 184.742 429.96 182.996 427.182 181.163C425.786 180.242 424.442 179.247 423.155 178.18C422.503 177.634 421.886 177.047 421.309 176.422C420.677 175.768 420.179 174.997 419.844 174.151L420.989 174.118L419.623 180.647C419.17 182.825 418.794 185.016 418.373 187.196C417.97 189.38 417.606 191.569 417.334 193.763C417.004 195.907 416.935 198.083 417.129 200.244L417.137 200.301C417.147 200.373 417.143 200.447 417.124 200.518C417.106 200.589 417.073 200.655 417.029 200.714C416.985 200.772 416.929 200.821 416.866 200.858C416.803 200.895 416.733 200.919 416.661 200.929L416.641 200.932L409.201 201.684C406.718 201.9 404.238 202.14 401.751 202.313C401.741 202.314 401.73 202.313 401.72 202.309C401.71 202.306 401.701 202.301 401.693 202.294C401.685 202.287 401.679 202.278 401.674 202.269C401.669 202.26 401.666 202.249 401.666 202.239C401.664 202.219 401.671 202.199 401.683 202.184C401.695 202.168 401.713 202.157 401.732 202.154Z" fill="black"/>
<path d="M335.712 214.465C334.895 213.801 334.123 213.085 333.4 212.32C332.68 211.526 332.042 210.663 331.493 209.742C330.942 208.815 330.487 207.834 330.135 206.815C329.761 205.801 329.51 204.745 329.389 203.671C329.221 201.548 329.362 199.412 329.809 197.329C330.091 195.278 330.241 193.211 330.257 191.14L330.26 190.788L330.679 190.719C332.734 190.384 334.784 189.988 336.849 189.753C338.914 189.518 340.972 189.214 343.042 189.036C345.11 188.842 347.186 188.736 349.265 188.653C351.345 188.588 353.427 188.553 355.52 188.625L355.882 188.637L355.849 188.925C355.789 189.439 355.726 189.952 355.643 190.466H355.452C355.369 189.952 355.306 189.439 355.246 188.925L355.574 189.225C353.529 189.674 351.474 190.015 349.417 190.326C347.358 190.62 345.296 190.89 343.227 191.072C341.159 191.271 339.08 191.343 337.007 191.485C334.933 191.626 332.846 191.607 330.764 191.648L331.185 191.227C330.818 193.264 330.583 195.323 330.481 197.391C330.421 198.411 330.435 199.435 330.522 200.453C330.621 201.457 330.805 202.441 330.999 203.412C331.38 205.357 331.981 207.252 332.79 209.062C333.21 209.973 333.68 210.86 334.198 211.718C334.716 212.578 335.339 213.429 335.856 214.339L335.712 214.465Z" fill="black"/>
<path d="M347.626 195.544C348.062 194.931 348.586 194.386 349.181 193.927C349.771 193.454 350.417 193.054 351.104 192.737C351.802 192.419 352.546 192.213 353.308 192.125C354.072 192.047 354.843 192.163 355.549 192.463C354.83 192.479 354.114 192.573 353.414 192.742C352.737 192.932 352.075 193.174 351.435 193.467C350.786 193.749 350.163 194.098 349.53 194.444L347.626 195.544Z" fill="black"/>
<path d="M506.618 190.697C507.182 189.877 507.894 189.169 508.716 188.608C509.172 188.344 509.709 188.257 510.225 188.363C510.724 188.505 511.187 188.753 511.582 189.09C512.243 189.795 512.974 190.431 513.765 190.987C514.134 191.221 514.553 191.366 514.988 191.412C515.182 191.427 515.377 191.405 515.563 191.347C515.697 191.3 516.025 191.155 516.269 191.095C516.822 190.935 517.405 190.911 517.969 191.026C518.515 191.162 519.032 191.391 519.5 191.703L519.819 191.928C519.897 191.983 519.979 192.032 520.063 192.077C520.232 192.166 520.412 192.231 520.599 192.272C520.983 192.352 521.38 192.352 521.763 192.27C521.979 192.222 522.191 192.159 522.398 192.082C522.67 191.996 522.95 191.934 523.233 191.896C523.816 191.81 524.41 191.852 524.976 192.016C526.061 192.364 527.008 193.049 527.677 193.971L527.416 193.768C527.588 193.833 527.772 193.86 527.955 193.847C528.142 193.831 528.322 193.763 528.473 193.651C528.618 193.537 528.771 193.434 528.931 193.343C529.109 193.25 529.298 193.177 529.492 193.126C529.869 193.025 530.263 193.001 530.649 193.056C531.044 193.107 531.42 193.257 531.742 193.491C532.064 193.725 532.323 194.036 532.494 194.396C532.79 195.027 532.924 195.721 532.885 196.417C532.8 197.672 532.586 198.915 532.246 200.126C531.996 201.313 531.853 202.52 531.82 203.733C531.807 204.336 531.834 204.939 531.903 205.538C532 206.158 532.043 206.785 532.031 207.412C532.013 208.687 531.709 209.942 531.14 211.083C530.855 211.705 530.401 212.235 529.831 212.613C529.26 212.99 528.594 213.2 527.91 213.218C526.869 213.227 525.859 212.862 525.064 212.19C524.771 211.951 524.521 211.664 524.324 211.342L525.097 211.567C524.474 211.972 523.816 212.321 523.132 212.609C522.435 212.906 521.705 213.117 520.957 213.236C520.152 213.383 519.323 213.33 518.544 213.079C517.726 212.779 517.028 212.222 516.554 211.492L517.499 211.767C516.692 212.144 515.856 212.452 514.998 212.689C514.129 212.939 513.234 213.085 512.331 213.126C511.364 213.192 510.394 213.032 509.499 212.659C508.557 212.231 507.779 211.51 507.281 210.603L507.855 211.036C506.981 210.829 506.127 210.541 505.307 210.175C504.46 209.809 503.675 209.317 502.976 208.715C502.201 208.07 501.632 207.212 501.34 206.247C501.126 205.252 501.228 204.215 501.631 203.281C501.688 203.134 501.789 203.009 501.921 202.922C502.052 202.836 502.208 202.793 502.365 202.799C503.909 202.867 505.453 202.967 506.997 203.076L506.506 203.306C507.228 202.451 507.81 201.488 508.231 200.452C508.69 199.439 508.779 198.297 508.482 197.225C508.309 196.694 508.021 196.209 507.637 195.805C507.252 195.328 506.963 194.78 506.785 194.194C506.583 193.632 506.436 193.053 506.344 192.464C506.271 192.166 506.257 191.856 506.304 191.553C506.351 191.25 506.458 190.959 506.618 190.697ZM506.735 190.807C506.461 191.303 506.392 191.887 506.54 192.434C506.635 193.007 506.799 193.567 507.027 194.101C507.221 194.632 507.512 195.122 507.885 195.547C508.35 195.961 508.719 196.471 508.967 197.042C509.213 197.623 509.335 198.249 509.328 198.881C509.309 199.503 509.213 200.121 509.041 200.72C508.696 201.912 508.162 203.04 507.458 204.062C507.412 204.13 507.351 204.187 507.279 204.226C507.207 204.266 507.127 204.288 507.045 204.29L506.967 204.292C505.42 204.325 503.873 204.348 502.327 204.34L503.06 203.859C502.831 204.487 502.78 205.166 502.913 205.821C503.137 206.461 503.54 207.023 504.075 207.44C504.665 207.915 505.315 208.308 506.01 208.609C506.721 208.927 507.459 209.181 508.215 209.366C508.331 209.393 508.441 209.444 508.538 209.515C508.634 209.586 508.715 209.675 508.777 209.778L508.789 209.799C509.113 210.373 509.601 210.838 510.19 211.134C510.85 211.424 511.569 211.555 512.29 211.519C513.071 211.503 513.849 211.395 514.605 211.197C515.377 211.005 516.131 210.75 516.861 210.435C517.026 210.363 517.211 210.351 517.384 210.402C517.557 210.452 517.706 210.561 517.807 210.711C518.099 211.175 518.524 211.54 519.026 211.759C519.59 211.963 520.195 212.025 520.788 211.937C521.439 211.863 522.079 211.709 522.692 211.478C523.323 211.254 523.935 210.98 524.523 210.659C524.652 210.587 524.805 210.569 524.947 210.608C525.09 210.647 525.212 210.741 525.287 210.869L525.296 210.885C525.419 211.088 525.568 211.274 525.739 211.438C526.328 212.01 527.105 212.349 527.925 212.39C528.477 212.403 529.02 212.26 529.494 211.978C529.968 211.696 530.352 211.286 530.604 210.796C531.181 209.754 531.499 208.588 531.53 207.397C531.547 206.796 531.512 206.194 531.425 205.599C531.344 204.979 531.306 204.354 531.31 203.729C531.321 202.485 531.42 201.244 531.604 200.014C531.843 198.838 531.962 197.641 531.96 196.441C531.935 195.288 531.41 194.238 530.515 194.24C530.289 194.226 530.064 194.258 529.851 194.332C529.751 194.367 529.654 194.413 529.564 194.469C529.464 194.54 529.369 194.617 529.278 194.7C528.943 194.968 528.541 195.14 528.115 195.197C527.686 195.254 527.249 195.2 526.846 195.042C526.761 195.01 526.685 194.957 526.626 194.888L526.585 194.839C526.076 194.17 525.379 193.669 524.582 193.401C524.2 193.294 523.801 193.261 523.406 193.305C523.202 193.326 522.999 193.366 522.802 193.423C522.545 193.508 522.283 193.577 522.017 193.628C521.432 193.733 520.83 193.7 520.26 193.533C519.971 193.449 519.694 193.327 519.436 193.171C519.308 193.092 519.184 193.005 519.067 192.911L518.797 192.694C518.49 192.408 518.121 192.198 517.719 192.078C517.317 191.959 516.893 191.934 516.48 192.005C516.242 192.044 516.116 192.096 515.777 192.183C515.485 192.244 515.185 192.249 514.891 192.199C514.35 192.094 513.841 191.867 513.403 191.534C512.637 190.89 511.941 190.167 511.326 189.377C511.001 189.042 510.599 188.79 510.156 188.642C509.705 188.526 509.227 188.58 508.813 188.794C508.001 189.33 507.297 190.013 506.735 190.807H506.735Z" fill="black"/>
<path d="M512.497 197.637C513.002 198.759 513.306 199.96 513.395 201.187C513.496 202.428 513.342 203.676 512.942 204.855C512.544 206.047 511.91 207.146 511.077 208.087C510.669 208.563 510.225 209.008 509.749 209.417C509.267 209.816 508.747 210.166 508.245 210.543C508.16 210.607 508.053 210.634 507.948 210.619C507.842 210.604 507.747 210.548 507.684 210.463C507.62 210.378 507.592 210.271 507.607 210.166C507.622 210.06 507.678 209.965 507.764 209.902L507.779 209.89L507.825 209.859C508.316 209.528 508.831 209.223 509.308 208.87C509.778 208.508 510.22 208.112 510.631 207.683C511.472 206.829 512.132 205.815 512.572 204.7C513.013 203.586 513.224 202.394 513.194 201.196C513.173 199.978 512.937 198.773 512.497 197.637Z" fill="black"/>
<path d="M519.047 199.144C519.319 200.161 519.513 201.197 519.627 202.243C519.752 203.294 519.784 204.355 519.722 205.412C519.659 206.484 519.459 207.543 519.126 208.564C518.76 209.603 518.195 210.561 517.464 211.385C517.393 211.464 517.293 211.512 517.187 211.518C517.08 211.523 516.976 211.487 516.897 211.415C516.818 211.344 516.77 211.245 516.764 211.138C516.759 211.032 516.795 210.928 516.867 210.848L516.883 210.832L516.897 210.818C517.605 210.109 518.171 209.271 518.564 208.349C518.943 207.394 519.197 206.394 519.322 205.375C519.449 204.341 519.484 203.298 519.427 202.259C519.38 201.212 519.253 200.171 519.047 199.144Z" fill="black"/>
<path d="M525.47 200.532L525.392 211.401C525.39 211.508 525.347 211.609 525.271 211.683C525.196 211.758 525.094 211.799 524.987 211.798C524.881 211.797 524.78 211.755 524.705 211.679C524.63 211.604 524.589 211.502 524.589 211.396L524.59 211.366L525.47 200.532Z" fill="black"/>
<path d="M532.038 199.457C533.976 199.291 535.915 199.148 537.855 199.05L540.765 198.89C541.822 198.824 542.869 199.133 543.721 199.764C544.562 200.407 545.159 201.316 545.415 202.344C545.748 203.313 545.882 204.34 545.809 205.362C545.729 206.438 545.235 207.441 544.431 208.161C543.625 208.815 542.665 209.251 541.643 209.428L541.635 209.43C541.617 209.433 541.599 209.435 541.58 209.436L536.538 209.451C535.698 209.459 534.857 209.433 534.016 209.424C533.176 209.414 532.335 209.4 531.494 209.371C532.332 209.295 533.171 209.235 534.01 209.179C534.848 209.124 535.687 209.052 536.526 209.014L541.561 208.752L541.5 208.759C542.398 208.591 543.239 208.196 543.942 207.613C544.593 207.01 544.982 206.177 545.028 205.291C545.073 204.37 544.954 203.448 544.677 202.568C544.494 201.683 544.001 200.893 543.287 200.339C542.573 199.786 541.685 199.506 540.783 199.549L537.869 199.548C535.926 199.556 533.983 199.518 532.038 199.457Z" fill="black"/>
<path d="M351.67 226.545C352.731 226.08 353.873 225.828 355.031 225.802C355.635 225.783 356.239 225.86 356.82 226.031C357.459 226.198 358.025 226.571 358.432 227.091C358.838 227.612 359.062 228.252 359.07 228.912C359.086 229.519 359.004 230.124 358.825 230.704C358.481 231.807 357.949 232.843 357.254 233.766C357.597 232.707 357.878 231.629 358.097 230.538C358.224 230.058 358.252 229.558 358.18 229.067C358.108 228.576 357.938 228.104 357.679 227.681C356.969 226.966 356.006 226.558 354.999 226.545C353.891 226.453 352.778 226.453 351.67 226.545Z" fill="black"/>
<path d="M422.56 353.957C420.829 356.495 418.252 358.337 415.29 359.153C413.836 359.607 412.34 359.912 410.825 360.064C409.31 360.236 407.779 360.203 406.31 360.264L404.087 360.396C403.332 360.457 402.577 360.507 401.819 360.535C400.302 360.592 398.783 360.571 397.268 360.471C394.228 360.259 391.223 359.695 388.313 358.79C385.41 357.852 382.615 356.608 379.976 355.079C377.356 353.518 374.913 351.679 372.687 349.595C368.227 345.433 364.623 340.441 362.076 334.899C362.029 334.795 362.019 334.678 362.046 334.567C362.074 334.457 362.139 334.359 362.229 334.29L362.26 334.267C363.152 333.495 363.932 332.6 364.575 331.611C365.291 330.618 365.956 329.577 366.613 328.533C367.912 326.433 369.17 324.298 370.353 322.123C372.719 317.772 375.035 313.386 377.201 308.927C379.379 304.473 381.529 300.006 383.584 295.493C385.654 290.989 387.686 286.467 389.681 281.929L390.227 282.722C385.026 283.065 379.921 282.177 374.913 281.167C369.905 280.1 364.971 278.738 360.108 277.185C355.241 275.64 350.409 273.985 345.66 272.122C340.9 270.278 336.184 268.355 331.509 266.277L331.497 266.272C331.427 266.24 331.361 266.197 331.304 266.144C329.614 264.462 328.467 262.313 328.008 259.973C327.521 257.759 327.281 255.498 327.294 253.231C327.34 248.772 327.789 244.326 328.634 239.947C330.304 231.248 332.67 222.696 335.708 214.376C335.715 214.356 335.73 214.339 335.75 214.33C335.769 214.321 335.791 214.32 335.811 214.327C335.83 214.335 335.846 214.349 335.855 214.368C335.864 214.387 335.866 214.408 335.86 214.428C334.544 218.641 333.406 222.909 332.381 227.196C331.34 231.478 330.439 235.795 329.776 240.14C329.045 244.457 328.692 248.83 328.72 253.209C328.748 255.361 329.015 257.503 329.514 259.597C329.944 261.61 330.937 263.46 332.378 264.931L332.173 264.799C336.806 266.835 341.525 268.738 346.262 270.551C351.006 272.355 355.779 274.08 360.597 275.661C365.409 277.257 370.287 278.651 375.218 279.766C380.099 281.017 385.12 281.633 390.158 281.601L390.181 281.6C390.328 281.594 390.472 281.648 390.58 281.748C390.688 281.848 390.752 281.987 390.758 282.135C390.761 282.224 390.742 282.313 390.704 282.394C388.578 286.881 386.424 291.352 384.241 295.805L377.66 309.154C375.415 313.578 373.246 318.042 370.898 322.417C369.719 324.602 368.567 326.803 367.309 328.953C366.677 330.027 366.039 331.097 365.336 332.139C364.661 333.253 363.822 334.259 362.846 335.122L363.03 334.491C364.334 337.143 365.903 339.656 367.714 341.992C371.235 346.751 375.641 350.788 380.69 353.88C383.224 355.386 385.911 356.619 388.705 357.559C391.517 358.461 394.42 359.046 397.362 359.304C398.836 359.442 400.315 359.505 401.795 359.491C402.535 359.485 403.276 359.457 404.018 359.419L406.285 359.348C407.811 359.329 409.283 359.403 410.755 359.278C412.228 359.18 413.69 358.945 415.12 358.574C418.025 357.895 420.607 356.232 422.427 353.868C422.439 353.851 422.458 353.839 422.478 353.835C422.499 353.832 422.52 353.836 422.537 353.848C422.554 353.86 422.566 353.877 422.571 353.898C422.575 353.918 422.571 353.94 422.56 353.957L422.56 353.957Z" fill="black"/>
<path d="M424.456 152.973C424.725 153.865 425.001 154.763 425.224 155.674C425.429 156.592 425.58 157.521 425.675 158.456C425.891 160.338 425.855 162.241 425.57 164.113C425.279 165.995 424.715 167.823 423.894 169.541C423.093 171.281 421.983 172.861 420.618 174.204L420.669 174.145C419.944 175.162 419.104 176.091 418.167 176.916C417.694 177.325 417.174 177.676 416.618 177.962C416.071 178.265 415.453 178.418 414.828 178.406C415.432 178.334 416.01 178.119 416.514 177.779C417.021 177.452 417.488 177.066 417.903 176.629C418.757 175.776 419.512 174.831 420.156 173.81L420.179 173.78L420.207 173.751C421.443 172.41 422.454 170.878 423.202 169.214C423.958 167.546 424.512 165.793 424.85 163.993C424.999 163.087 425.096 162.174 425.139 161.257C425.16 160.798 425.212 160.338 425.208 159.878L425.171 158.494C425.168 158.032 425.133 157.57 425.067 157.113L424.927 155.728C424.796 154.809 424.596 153.901 424.456 152.973Z" fill="black"/>
<path d="M406.147 359.808C405.468 359.817 404.798 359.856 404.118 359.903C398.127 360.407 392.099 359.573 386.47 357.463C385.666 358.64 383.656 362.344 384.546 369.187L384.431 380.26L390.691 382.624L394.002 375.398C394.002 375.398 397.888 389.027 410.444 394.329C413.372 389.21 415.73 383.786 417.479 378.155C411.621 372.355 407.334 365.024 406.147 359.808ZM390.193 364.679C389.836 364.667 389.497 364.516 389.249 364.259C389 364.002 388.861 363.659 388.861 363.301C388.861 362.944 389 362.6 389.249 362.343C389.497 362.086 389.836 361.935 390.193 361.923C390.55 361.935 390.889 362.086 391.137 362.343C391.385 362.6 391.524 362.944 391.524 363.301C391.524 363.659 391.385 364.002 391.137 364.259C390.889 364.516 390.55 364.667 390.193 364.679Z" fill="black"/>
<path d="M328.698 259.712C328.698 259.712 305.764 274.467 352.548 289.852L382.252 299.133C386.269 291.458 390.19 282.162 390.19 282.162C371.375 283.317 331.837 265.538 331.837 265.538C329.984 264.502 328.97 262.037 328.546 258.719" fill="black"/>
<path d="M291.4 328.038C291.295 328.038 291.195 327.997 291.12 327.924C291.045 327.851 291.002 327.751 290.999 327.647C289.85 282.639 324.113 268.31 324.46 268.171C324.558 268.131 324.669 268.132 324.767 268.174C324.864 268.215 324.942 268.294 324.982 268.393C325.021 268.492 325.02 268.602 324.979 268.7C324.937 268.798 324.858 268.875 324.76 268.915C324.418 269.052 290.667 283.192 291.801 327.626C291.802 327.679 291.793 327.731 291.774 327.781C291.755 327.83 291.727 327.875 291.691 327.913C291.654 327.951 291.611 327.982 291.563 328.003C291.515 328.025 291.463 328.036 291.41 328.038H291.4Z" fill="black"/>
<path d="M288.755 308.272C288.451 306.61 288.741 304.143 291.225 301.029C291.788 300.303 292.546 299.75 293.411 299.437C294.275 299.123 295.21 299.061 296.109 299.257C298.197 299.763 300.374 301.793 300.065 308.189C300.065 308.189 301.307 315.82 291.185 311.319C290.563 311.046 290.017 310.626 289.594 310.095C289.171 309.564 288.883 308.939 288.755 308.272Z" fill="black"/>
<path d="M397.112 395.612C392.872 409.47 369.577 403.115 364.189 400.235C363.012 399.603 360.858 398.406 358.207 396.933C353.068 394.062 346.072 390.118 340.751 387.104C337.391 385.209 334.702 383.687 333.573 383.046C333.19 382.826 332.989 382.711 332.989 382.711C326.644 380.289 321.102 378.031 316.269 375.944C313.561 374.777 311.082 373.667 308.804 372.604C301.913 369.417 296.898 366.728 293.338 364.632C291.062 363.324 288.863 361.886 286.753 360.325C286.074 359.822 285.368 359.356 284.638 358.928C282.188 357.454 276.35 352.161 281.001 336.494C281.001 336.494 289.184 318.98 299.511 332.389C302.154 335.883 305.111 339.128 308.345 342.084C312.604 345.912 318.652 351.291 325.122 356.841C325.285 356.985 325.447 357.129 325.61 357.263C327.725 359.081 329.888 360.918 332.041 362.718C332.214 362.861 332.386 363.005 332.558 363.148C343.124 371.963 353.441 379.926 357.834 381.361L397.112 395.612Z" fill="black"/>
<path d="M320.481 352.827C323.217 353.845 325.881 355.005 328.519 356.214C331.162 357.414 333.762 358.698 336.355 359.998C338.933 361.325 341.503 362.67 344.03 364.098C346.562 365.517 349.067 366.987 351.501 368.599C348.765 367.582 346.101 366.423 343.462 365.214C340.82 364.013 338.219 362.729 335.628 361.427C333.05 360.099 330.481 358.754 327.954 357.326C325.422 355.906 322.916 354.437 320.481 352.827Z" fill="black"/>
<path d="M374.332 374.469C381.121 376.341 387.773 378.527 394.451 380.618C397.783 381.684 401.124 382.708 404.473 383.693C406.151 384.173 407.83 384.646 409.527 385.036C411.208 385.503 412.945 385.736 414.689 385.728C412.942 386.066 411.149 386.095 409.392 385.812C407.633 385.599 405.89 385.288 404.167 384.907C400.715 384.166 397.327 383.192 393.968 382.147C390.618 381.072 387.296 379.92 384.021 378.642C380.744 377.373 377.498 376.018 374.332 374.469Z" fill="black"/>
<path d="M488.152 218.53C493.82 219.159 499.33 220.804 504.415 223.387C506.949 224.738 509.276 226.445 511.327 228.454C513.366 230.488 515.114 232.793 516.522 235.305C517.919 237.828 518.968 240.527 519.641 243.331L521.671 251.594C523.012 257.105 524.246 262.642 525.445 268.186C527.832 279.276 530.077 290.4 532.028 301.579C533.941 312.764 535.638 323.988 537.018 335.254L536.911 334.961C538.846 338.062 540.555 341.298 542.025 344.645C543.525 347.979 544.729 351.438 545.622 354.983C546.569 358.545 546.881 362.245 546.544 365.914C546.187 369.644 544.474 373.113 541.73 375.665L541.817 375.376C542.119 376.871 542.278 378.391 542.29 379.916C542.319 381.437 542.174 382.956 541.858 384.444C541.531 385.93 540.955 387.351 540.154 388.645C539.302 389.899 538.196 390.959 536.908 391.758C538.153 390.917 539.208 389.825 540.004 388.551C540.737 387.251 541.254 385.842 541.537 384.377C541.803 382.91 541.902 381.417 541.83 379.928C541.774 378.443 541.577 376.966 541.242 375.518C541.23 375.467 541.232 375.413 541.247 375.362C541.263 375.312 541.291 375.266 541.329 375.229C543.861 372.716 545.406 369.376 545.681 365.818C545.941 362.257 545.572 358.677 544.592 355.243C543.653 351.781 542.411 348.408 540.88 345.163C539.367 341.912 537.653 338.758 535.75 335.718L535.746 335.711C535.692 335.624 535.656 335.527 535.643 335.425C534.199 324.194 532.44 313.004 530.464 301.852C528.514 290.696 526.378 279.573 524.054 268.483C522.899 262.938 521.657 257.411 520.446 251.877L518.565 243.591C517.963 240.864 516.993 238.23 515.683 235.763C513.022 230.802 509.025 226.684 504.145 223.876C499.162 221.185 493.751 219.377 488.152 218.53Z" fill="black"/>
<path d="M438.143 222.991C434.151 223.979 430.238 225.266 426.44 226.842C422.647 228.39 419.1 230.481 415.91 233.05C414.33 234.327 412.895 235.773 411.629 237.361C410.355 238.932 409.296 240.666 408.481 242.516C406.881 246.237 406.208 250.29 406.521 254.328C406.843 258.372 407.791 262.343 409.333 266.096C410.919 269.861 412.492 273.719 413.884 277.601C416.718 285.378 418.929 293.369 420.495 301.497C423.756 317.736 424.754 334.348 423.459 350.861C422.725 359.107 421.19 367.262 418.877 375.211C417.712 379.181 416.284 383.069 414.604 386.849C412.952 390.647 410.916 394.266 408.528 397.651C408.507 397.679 408.479 397.7 408.447 397.713C408.415 397.725 408.379 397.728 408.345 397.722L397.113 395.609L408.41 397.347L408.227 397.418C410.496 394.003 412.41 390.366 413.942 386.562C415.512 382.774 416.852 378.894 417.953 374.945C420.105 367.029 421.494 358.925 422.101 350.745C423.263 334.36 422.204 317.893 418.952 301.792C417.445 293.731 415.299 285.803 412.533 278.083C411.167 274.206 409.651 270.427 408.062 266.595C406.511 262.699 405.593 258.58 405.342 254.394C405.088 250.179 405.861 245.965 407.594 242.115C408.473 240.206 409.603 238.424 410.953 236.814C412.277 235.197 413.784 233.74 415.444 232.471C418.748 229.955 422.4 227.934 426.286 226.469C430.136 224.984 434.102 223.821 438.143 222.991Z" fill="black"/>
<path d="M408.377 397.535C408.663 399.749 409.513 401.852 410.846 403.643C411.503 404.527 412.287 405.309 413.173 405.964C414.049 406.626 415.011 407.164 416.034 407.564C418.099 408.33 420.288 408.711 422.491 408.686C423.595 408.693 424.698 408.642 425.796 408.535C426.89 408.368 427.992 408.26 429.073 408.007C433.418 407.061 437.661 405.696 441.742 403.932C445.85 402.21 449.827 400.185 453.779 398.114L453.786 398.111C453.823 398.092 453.863 398.081 453.904 398.079C453.946 398.077 453.987 398.084 454.025 398.1C456.371 399.073 458.781 399.885 461.237 400.531C462.463 400.86 463.712 401.099 464.973 401.246C466.233 401.443 467.52 401.359 468.744 401.001C467.532 401.437 466.236 401.586 464.957 401.438C463.678 401.343 462.407 401.154 461.156 400.874C458.655 400.307 456.199 399.555 453.809 398.625L454.054 398.611C450.16 400.831 446.148 402.84 442.036 404.627C437.925 406.459 433.625 407.836 429.214 408.731C428.114 408.978 426.986 409.08 425.869 409.24C424.742 409.341 423.61 409.383 422.479 409.366C420.202 409.341 417.949 408.892 415.836 408.042C414.785 407.6 413.8 407.015 412.909 406.304C412.011 405.606 411.229 404.769 410.593 403.825C409.308 401.963 408.543 399.791 408.377 397.535Z" fill="black"/>
<path d="M534.551 379.773C535.734 379.078 536.9 378.356 538.048 377.608C538.619 377.231 539.184 376.847 539.734 376.449C540.275 376.072 540.778 375.646 541.239 375.175L541.254 375.158C541.325 375.079 541.425 375.032 541.532 375.027C541.638 375.021 541.743 375.059 541.822 375.13C541.901 375.202 541.948 375.302 541.953 375.408C541.959 375.515 541.921 375.619 541.85 375.698C541.841 375.708 541.831 375.718 541.821 375.727C541.277 376.191 540.689 376.601 540.065 376.951C539.466 377.302 538.861 377.632 538.251 377.954C537.03 378.59 535.797 379.197 534.551 379.773Z" fill="black"/>
<path d="M536.326 335.336C536.326 335.336 527.091 319.554 518.42 313.486C511.51 308.644 482.032 305.112 466.719 321.86C454.23 335.527 451.167 375.532 450.459 389.802C450.449 389.984 450.449 390.175 450.449 390.357C450.448 391.857 450.755 393.341 451.351 394.717C451.947 396.094 452.819 397.333 453.914 398.358C453.914 398.358 465.207 403.048 468.748 401L468.777 397.535H468.748C468.748 397.535 452.392 396.894 469.705 381.744C488.196 365.569 554.625 353.52 533.828 374.47L534.546 379.772C559.554 369.264 536.326 335.336 536.326 335.336ZM468.547 340.332C468.145 343.452 467.858 346.572 467.715 349.711C467.504 352.85 467.485 355.999 467.399 359.147C467.408 360.727 467.38 362.306 467.361 363.895C467.361 365.474 467.37 367.053 467.303 368.651C467.006 367.091 466.796 365.512 466.576 363.933C466.404 362.354 466.26 360.765 466.145 359.186C466.069 357.597 466.002 355.999 465.992 354.41C466.011 352.812 466.011 351.223 466.116 349.625C466.193 348.036 466.356 346.438 466.528 344.859C466.758 343.27 466.968 341.691 467.322 340.121C467.893 336.968 468.959 333.925 470.481 331.105C469.563 334.117 468.916 337.205 468.547 340.332H468.547Z" fill="black"/>
<path d="M313.159 285.853C315.52 286.822 317.817 287.886 320.104 288.964L326.931 292.232C329.197 293.331 331.471 294.407 333.751 295.459C336.018 296.55 338.379 297.431 340.807 298.09C338.234 298.047 335.689 297.55 333.29 296.622C330.887 295.767 328.532 294.784 326.234 293.676C323.953 292.549 321.703 291.366 319.52 290.066C317.319 288.786 315.195 287.38 313.159 285.853Z" fill="black"/>
<path d="M307.99 315.121C310.045 316.197 312.016 317.379 313.966 318.589C315.922 319.788 317.833 321.051 319.751 322.298L325.447 326.115C327.361 327.365 329.211 328.685 331.259 329.755C328.996 329.211 326.823 328.347 324.804 327.189C322.755 326.113 320.8 324.888 318.867 323.636C316.954 322.353 315.072 321.028 313.254 319.613C311.417 318.215 309.66 316.716 307.99 315.121Z" fill="black"/>
<path d="M415.084 205.107C414.984 205.107 414.888 205.07 414.814 205.002C414.74 204.935 414.694 204.842 414.685 204.743C414.582 203.595 414.495 202.201 414.427 200.599C414.425 200.547 414.433 200.494 414.451 200.445C414.469 200.395 414.497 200.35 414.532 200.311C414.568 200.272 414.611 200.241 414.659 200.219C414.707 200.196 414.758 200.184 414.811 200.182C414.915 200.184 415.015 200.224 415.092 200.295C415.169 200.366 415.218 200.462 415.229 200.566C415.296 202.155 415.382 203.535 415.484 204.67C415.489 204.722 415.484 204.775 415.468 204.825C415.452 204.876 415.427 204.923 415.393 204.963C415.359 205.003 415.318 205.037 415.271 205.061C415.224 205.086 415.173 205.101 415.121 205.105C415.109 205.107 415.097 205.107 415.084 205.107Z" fill="black"/>
<path d="M406.836 211.119C409.044 210.724 411.254 210.355 413.47 210.03C415.684 209.685 417.901 209.369 420.122 209.082C420.219 209.07 420.317 209.097 420.394 209.157C421.847 210.292 423.321 211.4 424.756 212.558L429.073 216.015C430.512 217.166 431.918 218.361 433.343 219.532C434.759 220.712 436.161 221.912 437.548 223.13C436.038 222.068 434.543 220.987 433.064 219.886C431.592 218.775 430.101 217.689 428.644 216.559L424.271 213.173C422.809 212.05 421.386 210.877 419.942 209.731L420.214 209.806C417.991 210.08 415.764 210.322 413.534 210.533C411.306 210.766 409.073 210.956 406.836 211.119Z" fill="black"/>
<path d="M452.819 167.816C454.916 169.161 457.028 170.477 459.173 171.738C461.306 173.02 463.46 174.262 465.636 175.466C469.985 177.875 474.395 180.176 478.928 182.205C483.428 184.302 488.071 186.075 492.822 187.513C495.195 188.237 497.612 188.804 500.059 189.208C502.507 189.644 504.992 189.84 507.477 189.793C502.476 190.096 497.46 189.525 492.655 188.107C487.842 186.749 483.141 185.02 478.597 182.935C474.066 180.833 469.63 178.532 465.332 175.999C461.023 173.489 456.846 170.757 452.819 167.816Z" fill="black"/>
<path d="M502.786 207.322C501.465 207.406 500.14 207.415 498.818 207.347C497.495 207.3 496.179 207.166 494.867 207.007C493.557 206.829 492.25 206.625 490.959 206.337C489.663 206.069 488.383 205.728 487.125 205.316C488.448 205.414 489.754 205.577 491.06 205.728L494.97 206.212L498.873 206.735C500.175 206.917 501.48 207.089 502.786 207.322Z" fill="black"/>
<path d="M439.363 184.761C442.075 186.523 444.852 188.167 447.667 189.74C450.489 191.301 453.318 192.847 456.233 194.224C459.117 195.661 462.046 197.005 465.02 198.257C467.976 199.552 470.994 200.69 474.007 201.874C472.453 201.43 470.896 200.98 469.358 200.475C467.829 199.944 466.295 199.423 464.788 198.829C461.755 197.687 458.808 196.332 455.88 194.943C452.979 193.498 450.126 191.954 447.358 190.271C444.577 188.608 441.906 186.768 439.363 184.761Z" fill="black"/>
<path d="M469.706 243.683C477.789 243.683 484.341 236.614 484.341 227.893C484.341 219.173 477.789 212.104 469.706 212.104C461.624 212.104 455.072 219.173 455.072 227.893C455.072 236.614 461.624 243.683 469.706 243.683Z" fill="black"/>
<path d="M490.358 228.287C490.4 234.103 488.369 239.744 484.631 244.199C482.724 246.443 480.352 248.244 477.679 249.479C474.99 250.718 472.057 251.335 469.097 251.283C466.158 251.217 463.268 250.521 460.621 249.243C458.015 247.963 455.68 246.195 453.741 244.034C449.843 239.699 447.622 234.115 447.476 228.287C447.309 222.367 449.422 216.61 453.378 212.203C455.363 210.002 457.772 208.224 460.461 206.975C464.526 205.101 469.094 204.613 473.463 205.585C477.833 206.557 481.762 208.936 484.649 212.357C488.384 216.82 490.408 222.467 490.358 228.287ZM490.198 228.287C490.173 222.581 487.9 217.116 483.874 213.074C481.948 211.104 479.65 209.536 477.113 208.461C474.577 207.387 471.852 206.827 469.097 206.814C466.353 206.83 463.641 207.408 461.129 208.511C458.616 209.614 456.356 211.219 454.486 213.228C450.677 217.333 448.497 222.688 448.355 228.287C448.289 231.1 448.751 233.9 449.717 236.543C450.695 239.192 452.193 241.619 454.123 243.681C456.039 245.718 458.363 247.329 460.943 248.408C463.523 249.488 466.301 250.012 469.097 249.947C474.678 249.814 479.987 247.507 483.892 243.516C487.915 239.467 490.181 233.995 490.198 228.287Z" fill="black"/>
<path d="M400.539 205.406C401.355 205.076 402.183 204.786 403.007 204.481C403.828 204.169 404.664 203.907 405.494 203.621C405.556 203.599 405.623 203.599 405.685 203.621C405.747 203.642 405.801 203.683 405.837 203.738L405.853 203.762C407.189 205.797 408.458 207.871 409.704 209.959C409.768 210.067 409.787 210.195 409.756 210.317C409.726 210.438 409.648 210.543 409.54 210.607C409.515 210.622 409.489 210.634 409.462 210.645C407.318 211.451 405.165 212.231 402.993 212.959L399.726 214.031C398.626 214.357 397.535 214.71 396.423 215.005C397.457 214.499 398.512 214.052 399.557 213.577L402.727 212.247C404.845 211.374 406.983 210.554 409.13 209.756L408.888 210.442C407.658 208.344 406.452 206.233 405.312 204.082L405.671 204.223C404.819 204.432 403.974 204.664 403.114 204.846C402.257 205.036 401.403 205.24 400.539 205.406Z" fill="black"/>
<path d="M469.097 205.958C471.398 203.321 474.21 201.176 477.362 199.653C480.501 198.104 483.821 196.953 487.246 196.228L489.823 195.748C490.688 195.632 491.558 195.548 492.425 195.446C493.289 195.328 494.159 195.257 495.031 195.233C495.902 195.192 496.774 195.166 497.645 195.145C499.386 195.137 501.126 195.265 502.863 195.323C504.591 195.529 506.318 195.726 508.035 195.965C506.297 195.907 504.57 195.788 502.842 195.715C501.112 195.738 499.383 195.68 497.659 195.762C495.94 195.924 494.209 195.89 492.505 196.172C491.651 196.284 490.795 196.379 489.944 196.505L487.413 197.011C484.04 197.695 480.758 198.767 477.631 200.205C476.066 200.923 474.56 201.762 473.126 202.716C471.665 203.641 470.313 204.729 469.097 205.958Z" fill="black"/>
<path d="M476.406 207.324C478.896 206.643 481.414 206.082 483.94 205.562C486.467 205.045 489.01 204.614 491.558 204.202C494.116 203.861 496.673 203.494 499.256 203.331C501.834 203.048 504.44 203.167 506.982 203.684C505.709 203.511 504.422 203.484 503.143 203.602C501.864 203.651 500.586 203.802 499.312 203.946C496.762 204.234 494.215 204.593 491.677 204.994C489.128 205.338 486.594 205.78 484.049 206.167C481.505 206.559 478.962 206.968 476.406 207.324Z" fill="black"/>
<path d="M406.775 205.88C410.941 204.859 415.17 204.115 419.435 203.652C423.707 203.167 428.007 202.98 432.305 203.094C436.611 203.259 440.89 203.853 445.078 204.866C449.312 205.761 453.327 207.484 456.894 209.935C456.94 209.969 456.976 210.015 457 210.067C457.023 210.119 457.032 210.177 457.027 210.234C457.022 210.291 457.002 210.345 456.969 210.392C456.937 210.439 456.892 210.477 456.841 210.502L456.818 210.513C454.637 211.56 452.494 212.716 450.41 213.946C448.321 215.15 446.296 216.462 444.344 217.877C442.397 219.188 440.683 220.816 439.273 222.692C438.971 223.133 438.731 223.612 438.558 224.118C438.485 224.349 438.437 224.588 438.415 224.83L438.397 225.177L438.424 225.619C438.457 226.78 438.614 227.934 438.892 229.061C439.173 230.169 439.592 231.237 440.138 232.241C440.714 233.251 441.388 234.202 442.15 235.08C443.705 236.889 445.452 238.524 447.359 239.957C451.229 242.886 455.261 245.593 459.438 248.065C459.456 248.076 459.469 248.094 459.474 248.114C459.479 248.135 459.476 248.157 459.465 248.175C459.454 248.192 459.438 248.204 459.419 248.21C459.4 248.216 459.38 248.214 459.362 248.206C454.897 246.187 450.621 243.773 446.585 240.992C444.533 239.581 442.641 237.952 440.94 236.133C439.168 234.259 437.892 231.972 437.228 229.479C436.926 228.24 436.756 226.972 436.721 225.697L436.703 225.227L436.74 224.662C436.781 224.298 436.862 223.941 436.98 223.595C437.214 222.95 437.534 222.341 437.933 221.784C439.49 219.785 441.375 218.065 443.508 216.698C447.623 214.012 451.989 211.732 456.545 209.889L456.468 210.467C453.099 207.877 449.14 206.161 444.945 205.474C442.856 205.103 440.748 204.845 438.631 204.7C436.514 204.554 434.392 204.525 432.273 204.494C428.033 204.456 423.785 204.564 419.541 204.859C417.417 204.986 415.293 205.146 413.172 205.36C411.05 205.555 408.928 205.781 406.806 206.037C406.785 206.04 406.763 206.035 406.746 206.022C406.729 206.009 406.718 205.99 406.715 205.969C406.713 205.949 406.717 205.929 406.728 205.913C406.739 205.897 406.756 205.885 406.775 205.88Z" fill="black"/>
<path d="M451.351 213.207C451.278 213.207 451.206 213.187 451.143 213.15C441.567 207.315 409.66 210.566 409.339 210.6C409.234 210.608 409.13 210.575 409.048 210.509C408.966 210.442 408.912 210.347 408.898 210.243C408.887 210.137 408.919 210.031 408.986 209.948C409.053 209.866 409.15 209.813 409.256 209.802C410.578 209.663 441.753 206.49 451.561 212.464C451.635 212.509 451.693 212.578 451.725 212.659C451.757 212.741 451.762 212.831 451.738 212.915C451.714 212.999 451.664 213.073 451.594 213.126C451.524 213.179 451.439 213.208 451.351 213.208L451.351 213.207Z" fill="black"/>
<path d="M530.391 363.272C533.647 371.879 535.698 380.894 536.486 390.062C537.355 399.233 537.171 408.472 535.938 417.601C534.663 426.72 532.175 435.628 528.539 444.088C526.711 448.311 524.434 452.324 521.747 456.059C519.072 459.857 515.619 463.043 511.619 465.404C509.568 466.556 507.329 467.336 505.007 467.706C502.662 468.068 500.269 467.96 497.966 467.388C493.403 466.12 489.291 463.588 486.105 460.084C482.918 456.686 480.226 452.855 478.111 448.704C475.983 444.593 474.231 440.297 472.878 435.87C470.228 427.03 468.701 417.892 468.331 408.672C467.862 399.49 468.487 390.284 470.195 381.25C470.199 381.23 470.211 381.212 470.228 381.2C470.245 381.188 470.266 381.183 470.287 381.187C470.308 381.19 470.326 381.202 470.338 381.218C470.351 381.235 470.356 381.256 470.353 381.277C469.169 390.334 468.917 399.489 469.6 408.598C470.19 417.679 471.84 426.66 474.517 435.358C475.851 439.686 477.548 443.894 479.59 447.937C481.589 451.979 484.149 455.718 487.193 459.044C490.162 462.393 493.999 464.856 498.28 466.161C500.423 466.734 502.656 466.893 504.859 466.63C507.077 466.346 509.227 465.671 511.209 464.634C515.192 462.45 518.638 459.405 521.297 455.722C524.026 452.066 526.288 448.083 528.029 443.867C529.809 439.667 531.226 435.321 532.261 430.878C533.315 426.446 534.102 421.955 534.621 417.429C535.197 412.913 535.462 408.365 535.593 403.816C535.721 399.263 535.608 394.707 535.255 390.166C534.621 381.057 532.938 372.051 530.241 363.326C530.237 363.316 530.236 363.306 530.237 363.295C530.238 363.285 530.24 363.274 530.245 363.265C530.25 363.256 530.256 363.247 530.264 363.24C530.272 363.233 530.282 363.228 530.292 363.225C530.311 363.219 530.332 363.22 530.351 363.229C530.369 363.238 530.384 363.253 530.391 363.272Z" fill="black"/>
<path d="M514.133 380.428C515.374 383.877 516.304 387.429 516.91 391.044C517.436 394.676 517.73 398.339 517.79 402.009C518.203 409.38 517.505 416.771 515.721 423.935C514.802 427.521 513.498 430.998 511.83 434.304C510.986 435.958 509.98 437.525 508.827 438.981C507.69 440.473 506.275 441.731 504.661 442.687C503.001 443.651 501.044 443.968 499.165 443.578C497.325 443.117 495.651 442.15 494.333 440.786C491.77 438.089 489.757 434.919 488.405 431.453C486.981 428.043 485.891 424.503 485.15 420.882C484.386 417.272 483.877 413.613 483.625 409.932C483.361 406.252 483.305 402.561 483.457 398.875C483.558 395.146 484.105 391.443 485.087 387.844C486.089 384.226 487.628 380.778 489.654 377.617C491.713 374.422 494.555 371.807 497.909 370.018C499.613 369.122 501.525 368.692 503.449 368.772C505.361 368.925 507.167 369.714 508.578 371.014C509.941 372.271 511.076 373.753 511.936 375.396C512.812 377.007 513.547 378.691 514.133 380.428ZM513.952 380.492C512.717 377.106 511.066 373.67 508.255 371.402C506.887 370.28 505.183 369.65 503.415 369.613C501.667 369.65 499.961 370.155 498.475 371.077C495.486 372.974 492.985 375.547 491.172 378.588C489.349 381.646 487.958 384.943 487.038 388.383C486.128 391.846 485.602 395.399 485.469 398.977C485.256 402.586 485.246 406.205 485.44 409.816C485.744 417.048 487.083 424.199 489.417 431.051C490.035 432.745 490.782 434.389 491.651 435.968C492.497 437.552 493.562 439.01 494.813 440.298C496.027 441.596 497.58 442.529 499.296 442.991C501.029 443.377 502.844 443.076 504.36 442.152C505.882 441.216 507.198 439.98 508.227 438.519C509.272 437.056 510.168 435.491 510.9 433.849C512.358 430.547 513.459 427.099 514.186 423.564C515.677 416.474 516.474 409.256 516.567 402.011C516.752 398.378 516.698 394.736 516.404 391.11C516.013 387.486 515.19 383.921 513.952 380.492Z" fill="black"/>
<path d="M507.986 392.252C509.706 397.137 509.693 400.205 509.693 404.95C509.693 416.866 505.695 426.526 500.762 426.526C495.825 426.526 491.827 416.866 491.827 404.95C491.827 403.56 491.881 402.2 491.985 400.883C492.218 397.515 493.219 394.245 494.912 391.324C497.507 386.948 504.304 381.795 507.986 392.252Z" fill="black"/>
<path d="M330.006 200.743C323.633 207.979 316.337 214.345 308.305 219.678C304.251 222.3 299.964 224.543 295.498 226.378C291.059 228.277 286.39 229.582 281.61 230.26L281.678 229.685C284.451 230.619 287.16 231.696 289.841 232.869C292.535 234.037 295.142 235.395 297.644 236.931C300.228 238.456 302.54 240.4 304.485 242.684C305.507 243.913 306.206 245.378 306.52 246.945C306.577 247.356 306.609 247.77 306.615 248.185L306.598 249.253C306.597 249.963 306.609 250.672 306.658 251.373C306.72 252.745 306.961 254.102 307.374 255.411C307.509 255.984 307.792 256.51 308.194 256.94C308.595 257.369 309.102 257.686 309.664 257.858C310.265 257.944 310.877 257.91 311.465 257.757C312.113 257.575 312.74 257.328 313.339 257.022C314.591 256.372 315.775 255.601 316.874 254.719C321.324 251.02 325.47 246.969 329.271 242.606C329.278 242.598 329.287 242.592 329.296 242.587C329.306 242.583 329.316 242.58 329.327 242.58C329.337 242.579 329.348 242.581 329.358 242.584C329.368 242.588 329.377 242.593 329.385 242.6C329.399 242.614 329.409 242.632 329.41 242.652C329.412 242.672 329.407 242.692 329.395 242.708C327.647 245.036 325.848 247.332 323.915 249.522C322.007 251.755 319.927 253.835 317.694 255.742C316.558 256.722 315.328 257.587 314.022 258.325C312.636 259.206 310.996 259.601 309.361 259.446C308.468 259.273 307.656 258.813 307.049 258.136C306.498 257.507 306.071 256.781 305.788 255.995C305.29 254.539 305.007 253.019 304.948 251.482C304.898 250.732 304.887 249.987 304.89 249.244L304.911 248.132C304.909 247.82 304.89 247.509 304.856 247.2C304.611 245.902 304.05 244.684 303.221 243.655C301.419 241.479 299.281 239.605 296.888 238.102C292.035 234.963 286.872 232.331 281.482 230.245L281.469 230.24C281.407 230.216 281.355 230.171 281.321 230.114C281.288 230.056 281.274 229.989 281.284 229.923C281.293 229.857 281.324 229.796 281.373 229.75C281.421 229.704 281.483 229.676 281.549 229.67C286.3 229.169 290.927 227.84 295.218 225.741C299.498 223.643 303.61 221.22 307.519 218.492C311.475 215.843 315.305 212.996 319.022 210C320.895 208.519 322.731 206.99 324.531 205.415C326.347 203.859 328.133 202.265 329.889 200.634C329.897 200.626 329.906 200.62 329.915 200.617C329.925 200.613 329.936 200.611 329.946 200.611C329.957 200.611 329.967 200.613 329.977 200.617C329.987 200.621 329.995 200.628 330.003 200.635C330.016 200.65 330.024 200.669 330.025 200.689C330.026 200.709 330.019 200.728 330.006 200.743Z" fill="black"/>
<path d="M375.561 374.931C375.036 373.179 374.792 371.355 374.839 369.527C374.854 367.691 375.088 365.864 375.538 364.085C375.748 363.191 376.062 362.324 376.356 361.456C376.69 360.601 377.077 359.767 377.514 358.96C378.363 357.341 379.454 355.86 380.749 354.569C380.024 356.247 379.242 357.82 378.653 359.48C378.026 361.109 377.505 362.777 377.094 364.474C376.658 366.168 376.321 367.885 376.083 369.618C375.839 371.361 375.666 373.119 375.561 374.931Z" fill="black"/>
<path d="M394.203 215.854C394.13 216.339 393.922 216.795 393.602 217.168C393.292 217.544 392.92 217.864 392.502 218.114C392.08 218.361 391.615 218.528 391.132 218.606C390.644 218.688 390.145 218.67 389.664 218.555L389.792 218.485C389.45 219.881 388.835 221.196 387.984 222.354C387.543 222.956 386.961 223.441 386.289 223.765C385.577 224.068 384.787 224.137 384.033 223.962L384.41 223.772C383.8 225.404 382.868 226.895 381.668 228.158C381.049 228.823 380.283 229.335 379.432 229.653C378.536 229.937 377.573 229.932 376.68 229.638L377.026 229.602C376.269 230.025 375.475 230.377 374.653 230.653C373.826 230.941 372.959 231.102 372.084 231.128C371.176 231.174 370.274 230.953 369.49 230.492C368.757 229.961 368.2 229.223 367.892 228.372C367.872 228.323 367.868 228.269 367.88 228.218C367.893 228.167 367.921 228.12 367.961 228.086C369.134 227.079 370.32 226.088 371.477 225.063L371.418 225.212C371.331 224.332 371.143 223.466 370.857 222.63C370.594 221.788 370.166 221.007 369.597 220.333C369.029 219.676 368.257 219.228 367.405 219.062C366.543 218.931 365.662 219.015 364.841 219.307L364.891 219.282C364.03 219.908 363.099 220.431 362.115 220.839C361.601 221.059 361.049 221.176 360.49 221.182L360.036 221.105C359.886 221.041 359.742 220.964 359.606 220.876C359.485 220.765 359.377 220.642 359.283 220.507L359.092 220.077C359.072 220.033 359.067 219.985 359.076 219.938C359.086 219.891 359.109 219.848 359.144 219.815L359.181 219.78C360.116 218.933 360.962 217.993 361.707 216.976C361.876 216.743 362.012 216.488 362.113 216.218C362.156 216.109 362.175 215.993 362.168 215.876L362.137 215.416C362.053 214.741 362.059 214.058 362.153 213.385C362.207 213.004 362.345 212.64 362.557 212.319C362.769 211.998 363.05 211.728 363.38 211.53C364.035 211.205 364.769 211.075 365.496 211.157C366.116 211.222 366.741 211.241 367.364 211.214C367.929 211.195 368.481 211.033 368.967 210.744C369.171 210.611 369.34 210.431 369.46 210.22C369.623 209.897 369.824 209.597 370.061 209.324C370.558 208.795 371.17 208.387 371.851 208.132C372.205 207.99 372.582 207.912 372.963 207.902C373.151 207.903 373.339 207.921 373.523 207.956C373.616 207.972 373.711 207.967 373.802 207.942C374.031 207.855 374.239 207.72 374.412 207.546C374.585 207.372 374.72 207.164 374.806 206.934C375.08 206.27 375.494 205.673 376.021 205.185C376.569 204.697 377.236 204.364 377.955 204.219C378.303 204.148 378.657 204.111 379.013 204.108L379.524 204.127C379.632 204.133 379.741 204.121 379.846 204.092C380.062 204.028 380.255 203.901 380.399 203.726C380.543 203.552 380.631 203.338 380.653 203.113L380.651 203.156L380.651 203.147V203.128L380.653 203.107C380.759 202.443 381.12 201.846 381.659 201.445C381.92 201.239 382.222 201.093 382.545 201.017C382.868 200.941 383.203 200.937 383.528 201.004C384.122 201.147 384.669 201.443 385.113 201.862C385.536 202.238 385.912 202.664 386.233 203.131C386.88 204.05 387.351 205.007 387.932 205.894C388.501 206.793 389.139 207.646 389.841 208.446L389.815 208.423C390.98 209.363 392.013 210.455 392.886 211.67C393.325 212.276 393.679 212.94 393.936 213.643C394.192 214.35 394.284 215.106 394.203 215.854ZM394.108 215.84C394.169 214.363 393.679 212.916 392.734 211.779C391.851 210.606 390.792 209.575 389.595 208.724C389.585 208.717 389.577 208.709 389.569 208.701C388.812 207.921 388.114 207.085 387.481 206.201C386.835 205.324 386.293 204.373 385.652 203.571C385.109 202.754 384.305 202.144 383.372 201.839C383.169 201.802 382.96 201.811 382.761 201.865C382.562 201.919 382.377 202.018 382.221 202.153C381.898 202.412 381.68 202.779 381.607 203.186L381.608 203.147V203.156C381.608 203.169 381.607 203.187 381.606 203.2C381.568 203.62 381.405 204.018 381.137 204.344C380.869 204.67 380.509 204.907 380.104 205.025C379.898 205.082 379.684 205.106 379.471 205.096L379.017 205.081C378.729 205.085 378.442 205.117 378.16 205.176C377.606 205.299 377.092 205.562 376.666 205.938C376.241 206.313 375.917 206.791 375.726 207.326C375.583 207.699 375.359 208.037 375.069 208.313C374.779 208.589 374.431 208.796 374.051 208.921C373.83 208.98 373.599 208.993 373.373 208.958C373.242 208.931 373.108 208.917 372.974 208.918C372.711 208.927 372.451 208.979 372.205 209.074C371.673 209.265 371.189 209.573 370.791 209.975C370.603 210.187 370.442 210.421 370.311 210.673C370.113 211.024 369.831 211.32 369.491 211.537C368.235 212.148 366.812 212.328 365.443 212.051C364.884 211.973 364.314 212.056 363.8 212.289C363.576 212.423 363.385 212.604 363.24 212.821C363.095 213.038 363 213.284 362.963 213.542C362.867 214.143 362.85 214.754 362.911 215.359L362.932 215.862C362.934 216.068 362.898 216.272 362.824 216.464C362.694 216.795 362.519 217.108 362.304 217.392C361.496 218.429 360.579 219.378 359.57 220.221L359.659 219.924C359.697 220.127 359.803 220.311 359.961 220.444C360.119 220.577 360.317 220.651 360.524 220.654C361.012 220.66 361.496 220.57 361.95 220.392C362.911 220.029 363.825 219.554 364.675 218.978L364.692 218.967C364.702 218.96 364.713 218.955 364.725 218.952C365.609 218.662 366.55 218.588 367.468 218.737C368.387 218.928 369.215 219.421 369.821 220.137C370.406 220.846 370.858 221.654 371.155 222.524C371.465 223.383 371.674 224.276 371.777 225.183C371.78 225.21 371.776 225.237 371.767 225.262C371.757 225.287 371.742 225.309 371.722 225.327L371.717 225.332C370.564 226.362 369.441 227.424 368.305 228.472L368.374 228.186C368.631 228.929 369.14 229.558 369.812 229.964C370.485 230.37 371.278 230.528 372.055 230.41C373.662 230.236 375.212 229.718 376.6 228.89C376.651 228.861 376.707 228.843 376.765 228.836C376.823 228.829 376.882 228.834 376.938 228.851L376.947 228.853C377.667 229.078 378.439 229.072 379.155 228.837C379.893 228.576 380.561 228.148 381.106 227.586C381.688 227.018 382.202 226.384 382.636 225.697C383.082 225.008 383.478 224.287 383.821 223.541L383.826 223.53C383.857 223.461 383.911 223.405 383.979 223.372C384.047 223.34 384.125 223.332 384.198 223.351C384.818 223.528 385.479 223.505 386.085 223.285C386.703 223.024 387.246 222.614 387.667 222.092C388.546 221.012 389.203 219.769 389.598 218.434C389.607 218.409 389.625 218.387 389.649 218.374C389.673 218.361 389.701 218.358 389.727 218.365C390.178 218.478 390.646 218.502 391.106 218.434C391.57 218.367 392.019 218.215 392.428 217.986C392.847 217.772 393.214 217.469 393.504 217.098C393.794 216.728 394 216.298 394.108 215.84Z" fill="black"/>
<path d="M371.503 217.014C372.638 217.489 373.68 218.159 374.582 218.995C375.503 219.833 376.242 220.851 376.755 221.985C377.277 223.128 377.564 224.364 377.598 225.62C377.624 226.247 377.603 226.875 377.535 227.499C377.455 228.119 377.314 228.729 377.205 229.348C377.186 229.453 377.127 229.546 377.039 229.607C376.952 229.668 376.844 229.691 376.74 229.673C376.635 229.654 376.542 229.595 376.481 229.508C376.42 229.42 376.396 229.313 376.415 229.208L376.418 229.189L376.431 229.135C376.564 228.558 376.732 227.983 376.84 227.4C376.936 226.815 376.988 226.223 376.996 225.63C377.028 224.432 376.818 223.239 376.379 222.124C375.94 221.009 375.281 219.994 374.441 219.138C373.594 218.263 372.6 217.544 371.503 217.014Z" fill="black"/>
<path d="M377.318 213.644C378.211 214.201 379.059 214.826 379.857 215.513C380.666 216.196 381.413 216.949 382.089 217.765C382.775 218.591 383.352 219.501 383.805 220.475C384.247 221.484 384.488 222.569 384.516 223.671C384.517 223.724 384.508 223.776 384.489 223.825C384.47 223.874 384.441 223.919 384.404 223.957C384.368 223.995 384.324 224.025 384.276 224.046C384.227 224.068 384.175 224.079 384.123 224.08C384.07 224.081 384.018 224.072 383.968 224.052C383.919 224.033 383.875 224.004 383.837 223.968C383.799 223.931 383.768 223.888 383.747 223.839C383.726 223.791 383.715 223.739 383.714 223.686C383.713 223.678 383.713 223.671 383.714 223.663L383.715 223.643C383.749 222.642 383.59 221.643 383.248 220.701C382.873 219.745 382.377 218.84 381.772 218.01C381.159 217.168 380.473 216.382 379.722 215.661C378.973 214.928 378.17 214.254 377.318 213.644Z" fill="black"/>
<path d="M382.96 210.274L390.322 218.271C390.394 218.35 390.432 218.454 390.427 218.56C390.423 218.666 390.376 218.767 390.298 218.839C390.22 218.911 390.116 218.949 390.01 218.944C389.903 218.94 389.803 218.893 389.731 218.815L389.712 218.793L382.96 210.274Z" fill="black"/>
<path d="M332.297 188.294C332.609 188.283 332.905 188.152 333.122 187.927C333.338 187.703 333.46 187.403 333.46 187.09C333.46 186.778 333.338 186.478 333.122 186.254C332.905 186.029 332.609 185.898 332.297 185.887C331.985 185.898 331.689 186.029 331.473 186.254C331.256 186.478 331.135 186.778 331.135 187.09C331.135 187.403 331.256 187.703 331.473 187.927C331.689 188.152 331.985 188.283 332.297 188.294Z" fill="black"/>
<path d="M337.496 187.716C337.808 187.705 338.104 187.574 338.32 187.349C338.537 187.125 338.658 186.825 338.658 186.513C338.658 186.2 338.537 185.9 338.32 185.676C338.104 185.451 337.808 185.32 337.496 185.309C337.184 185.32 336.889 185.451 336.672 185.676C336.455 185.9 336.334 186.2 336.334 186.513C336.334 186.825 336.455 187.125 336.672 187.349C336.889 187.574 337.184 187.705 337.496 187.716Z" fill="black"/>
<path d="M342.888 187.331C343.199 187.32 343.495 187.189 343.712 186.964C343.929 186.74 344.05 186.44 344.05 186.128C344.05 185.815 343.929 185.515 343.712 185.291C343.495 185.066 343.199 184.935 342.888 184.924C342.576 184.935 342.28 185.066 342.063 185.291C341.846 185.515 341.725 185.815 341.725 186.128C341.725 186.44 341.846 186.74 342.063 186.964C342.28 187.189 342.576 187.32 342.888 187.331Z" fill="black"/>
<path d="M348.472 187.042C348.784 187.031 349.079 186.9 349.296 186.675C349.513 186.451 349.634 186.151 349.634 185.839C349.634 185.527 349.513 185.227 349.296 185.002C349.079 184.778 348.784 184.646 348.472 184.635C348.16 184.646 347.864 184.778 347.647 185.002C347.43 185.227 347.309 185.527 347.309 185.839C347.309 186.151 347.43 186.451 347.647 186.675C347.864 186.9 348.16 187.031 348.472 187.042Z" fill="black"/>
<path d="M354.248 186.657C354.56 186.646 354.856 186.515 355.073 186.29C355.29 186.066 355.411 185.766 355.411 185.454C355.411 185.142 355.29 184.842 355.073 184.617C354.856 184.393 354.56 184.261 354.248 184.25C353.936 184.261 353.641 184.393 353.424 184.617C353.207 184.842 353.086 185.142 353.086 185.454C353.086 185.766 353.207 186.066 353.424 186.29C353.641 186.515 353.936 186.646 354.248 186.657Z" fill="black"/>
<path d="M449.9 167.931C450.212 167.92 450.508 167.789 450.725 167.564C450.942 167.34 451.063 167.04 451.063 166.728C451.063 166.415 450.942 166.116 450.725 165.891C450.508 165.666 450.212 165.535 449.9 165.524C449.588 165.535 449.293 165.666 449.076 165.891C448.859 166.116 448.738 166.415 448.738 166.728C448.738 167.04 448.859 167.34 449.076 167.564C449.293 167.789 449.588 167.92 449.9 167.931Z" fill="black"/>
<path d="M447.012 171.541C447.324 171.531 447.62 171.399 447.836 171.175C448.053 170.95 448.174 170.65 448.174 170.338C448.174 170.026 448.053 169.726 447.836 169.501C447.62 169.277 447.324 169.145 447.012 169.135C446.7 169.145 446.405 169.277 446.188 169.501C445.971 169.726 445.85 170.026 445.85 170.338C445.85 170.65 445.971 170.95 446.188 171.175C446.405 171.399 446.7 171.531 447.012 171.541Z" fill="black"/>
<path d="M443.835 175.296C444.147 175.286 444.442 175.154 444.659 174.929C444.876 174.705 444.997 174.405 444.997 174.093C444.997 173.781 444.876 173.481 444.659 173.256C444.442 173.032 444.147 172.9 443.835 172.889C443.523 172.9 443.227 173.032 443.01 173.256C442.794 173.481 442.672 173.781 442.672 174.093C442.672 174.405 442.794 174.705 443.01 174.929C443.227 175.154 443.523 175.286 443.835 175.296Z" fill="black"/>
<path d="M440.08 179.34C440.392 179.329 440.688 179.198 440.904 178.973C441.121 178.749 441.242 178.449 441.242 178.137C441.242 177.824 441.121 177.525 440.904 177.3C440.688 177.075 440.392 176.944 440.08 176.933C439.768 176.944 439.473 177.075 439.256 177.3C439.039 177.525 438.918 177.824 438.918 178.137C438.918 178.449 439.039 178.749 439.256 178.973C439.473 179.198 439.768 179.329 440.08 179.34Z" fill="black"/>
<path d="M437.047 182.95C437.359 182.94 437.655 182.808 437.872 182.584C438.089 182.359 438.21 182.059 438.21 181.747C438.21 181.435 438.089 181.135 437.872 180.91C437.655 180.686 437.359 180.554 437.047 180.543C436.735 180.554 436.44 180.686 436.223 180.91C436.006 181.135 435.885 181.435 435.885 181.747C435.885 182.059 436.006 182.359 436.223 182.584C436.44 182.808 436.735 182.94 437.047 182.95Z" fill="black"/>
<path d="M289.164 231.619C289.476 231.608 289.772 231.477 289.989 231.252C290.206 231.028 290.327 230.728 290.327 230.415C290.327 230.103 290.206 229.803 289.989 229.579C289.772 229.354 289.476 229.223 289.164 229.212C288.853 229.223 288.557 229.354 288.34 229.579C288.123 229.803 288.002 230.103 288.002 230.415C288.002 230.728 288.123 231.028 288.34 231.252C288.557 231.477 288.853 231.608 289.164 231.619Z" fill="black"/>
<path d="M294.941 233.352C295.253 233.341 295.549 233.21 295.766 232.985C295.983 232.761 296.104 232.461 296.104 232.148C296.104 231.836 295.983 231.536 295.766 231.311C295.549 231.087 295.253 230.955 294.941 230.945C294.629 230.955 294.333 231.087 294.116 231.311C293.899 231.536 293.778 231.836 293.778 232.148C293.778 232.461 293.899 232.761 294.116 232.985C294.333 233.21 294.629 233.341 294.941 233.352Z" fill="black"/>
<path d="M300.573 236.24C300.885 236.229 301.181 236.098 301.398 235.873C301.615 235.649 301.736 235.349 301.736 235.037C301.736 234.725 301.615 234.425 301.398 234.2C301.181 233.976 300.885 233.844 300.573 233.833C300.261 233.844 299.966 233.976 299.749 234.2C299.532 234.425 299.411 234.725 299.411 235.037C299.411 235.349 299.532 235.649 299.749 235.873C299.966 236.098 300.261 236.229 300.573 236.24Z" fill="black"/>
<path d="M306.206 240.428C306.518 240.417 306.813 240.286 307.03 240.061C307.247 239.837 307.368 239.537 307.368 239.225C307.368 238.913 307.247 238.613 307.03 238.388C306.813 238.164 306.518 238.032 306.206 238.021C305.894 238.032 305.598 238.164 305.381 238.388C305.164 238.613 305.043 238.913 305.043 239.225C305.043 239.537 305.164 239.837 305.381 240.061C305.598 240.286 305.894 240.417 306.206 240.428Z" fill="black"/>
<path d="M309.383 247.072C309.695 247.061 309.99 246.929 310.207 246.705C310.424 246.48 310.545 246.18 310.545 245.868C310.545 245.556 310.424 245.256 310.207 245.031C309.99 244.807 309.695 244.675 309.383 244.665C309.071 244.675 308.775 244.807 308.559 245.031C308.342 245.256 308.22 245.556 308.22 245.868C308.22 246.18 308.342 246.48 308.559 246.705C308.775 246.929 309.071 247.061 309.383 247.072Z" fill="black"/>
<path d="M310.394 254.437C310.706 254.426 311.001 254.294 311.218 254.07C311.435 253.845 311.556 253.545 311.556 253.233C311.556 252.921 311.435 252.621 311.218 252.397C311.001 252.172 310.706 252.041 310.394 252.03C310.082 252.041 309.786 252.172 309.569 252.397C309.352 252.621 309.231 252.921 309.231 253.233C309.231 253.545 309.352 253.845 309.569 254.07C309.786 254.294 310.082 254.426 310.394 254.437Z" fill="black"/>
<path d="M368.529 340.277C368.885 340.264 369.223 340.114 369.471 339.857C369.718 339.6 369.857 339.257 369.857 338.901C369.857 338.544 369.718 338.201 369.471 337.944C369.223 337.688 368.885 337.537 368.529 337.524C368.172 337.537 367.834 337.688 367.586 337.944C367.339 338.201 367.2 338.544 367.2 338.901C367.2 339.257 367.339 339.6 367.586 339.857C367.834 340.114 368.172 340.264 368.529 340.277Z" fill="black"/>
<path d="M376.603 345.333C376.959 345.32 377.297 345.17 377.545 344.913C377.793 344.656 377.931 344.313 377.931 343.957C377.931 343.6 377.793 343.257 377.545 343C377.297 342.744 376.959 342.593 376.603 342.581C376.246 342.593 375.908 342.744 375.661 343C375.413 343.257 375.274 343.6 375.274 343.957C375.274 344.313 375.413 344.656 375.661 344.913C375.908 345.17 376.246 345.32 376.603 345.333Z" fill="black"/>
<path d="M384.493 349.733C384.85 349.721 385.187 349.57 385.435 349.313C385.683 349.057 385.822 348.714 385.822 348.357C385.822 348 385.683 347.657 385.435 347.401C385.187 347.144 384.85 346.994 384.493 346.981C384.136 346.994 383.799 347.144 383.551 347.401C383.303 347.657 383.165 348 383.165 348.357C383.165 348.714 383.303 349.057 383.551 349.313C383.799 349.57 384.136 349.721 384.493 349.733Z" fill="black"/>
<path d="M393.529 353.77C393.886 353.758 394.224 353.607 394.471 353.351C394.719 353.094 394.858 352.751 394.858 352.394C394.858 352.037 394.719 351.695 394.471 351.438C394.224 351.181 393.886 351.031 393.529 351.018C393.173 351.031 392.835 351.181 392.587 351.438C392.34 351.695 392.201 352.037 392.201 352.394C392.201 352.751 392.34 353.094 392.587 353.351C392.835 353.607 393.173 353.758 393.529 353.77Z" fill="black"/>
<path d="M403.174 355.973C403.531 355.96 403.868 355.81 404.116 355.553C404.364 355.296 404.502 354.954 404.502 354.597C404.502 354.24 404.364 353.897 404.116 353.641C403.868 353.384 403.531 353.233 403.174 353.221C402.817 353.233 402.48 353.384 402.232 353.641C401.984 353.897 401.846 354.24 401.846 354.597C401.846 354.954 401.984 355.296 402.232 355.553C402.48 355.81 402.817 355.96 403.174 355.973Z" fill="black"/>
<path d="M413.451 357.166C413.807 357.154 414.145 357.003 414.393 356.747C414.641 356.49 414.779 356.147 414.779 355.79C414.779 355.433 414.641 355.091 414.393 354.834C414.145 354.577 413.807 354.427 413.451 354.414C413.094 354.427 412.757 354.577 412.509 354.834C412.261 355.091 412.123 355.433 412.123 355.79C412.123 356.147 412.261 356.49 412.509 356.747C412.757 357.003 413.094 357.154 413.451 357.166Z" fill="black"/>
<path d="M188.968 335.374C195.565 337.337 202.12 339.414 208.635 341.607C215.158 343.774 221.644 346.047 228.122 348.34C234.588 350.667 241.047 353.017 247.468 355.472C253.897 357.901 260.286 360.446 266.632 363.109C260.035 361.148 253.48 359.071 246.965 356.878C240.442 354.71 233.956 352.438 227.479 350.142C221.013 347.813 214.555 345.463 208.134 343.008C201.704 340.578 195.316 338.033 188.968 335.374Z" fill="black"/>
<path d="M151.455 341.769C158.051 343.732 164.606 345.81 171.121 348.002C177.644 350.17 184.13 352.443 190.608 354.736C197.075 357.063 203.533 359.413 209.954 361.867C216.384 364.296 222.772 366.842 229.119 369.504C222.522 367.543 215.966 365.467 209.452 363.274C202.928 361.106 196.443 358.833 189.965 356.537C183.499 354.208 177.041 351.859 170.62 349.404C164.191 346.974 157.802 344.429 151.455 341.769Z" fill="black"/>
<path d="M191.86 371.8C195.664 372.611 199.409 373.601 203.135 374.655C206.864 375.697 210.558 376.846 214.246 378.016C217.923 379.219 221.592 380.446 225.228 381.778C228.867 383.099 232.485 384.485 236.044 386.052C232.24 385.243 228.494 384.254 224.769 383.2C221.04 382.157 217.346 381.008 213.659 379.836C209.983 378.63 206.313 377.404 202.678 376.071C199.039 374.749 195.421 373.365 191.86 371.8Z" fill="black"/>
<path d="M546.252 391.758C547.935 399.405 548.7 407.225 548.531 415.053C548.436 422.923 547.33 430.748 545.239 438.335C544.142 442.125 542.747 445.822 541.066 449.391C539.374 452.959 537.323 456.346 534.944 459.499C532.588 462.658 529.883 465.541 526.88 468.094L524.595 469.948C523.802 470.525 522.988 471.072 522.188 471.634L520.984 472.47L519.719 473.213L517.179 474.666C523.663 470.413 529.28 464.969 533.735 458.623C538.085 452.267 541.351 445.234 543.4 437.81C545.457 430.366 546.679 422.716 547.044 415.001C547.24 411.138 547.291 407.26 547.153 403.382C547.048 399.495 546.747 395.615 546.252 391.758Z" fill="black"/>
<path d="M281.58 374.469C281.753 379.838 282.218 385.168 282.849 390.459C283.474 395.737 284.456 400.967 285.786 406.113C287.066 411.238 289.022 416.17 291.603 420.779C292.903 423.07 294.479 425.193 296.296 427.099C298.123 429.037 300.226 430.693 302.538 432.015C297.479 429.893 293.211 426.239 290.334 421.567C288.849 419.276 287.576 416.853 286.531 414.331C285.516 411.808 284.65 409.228 283.937 406.605C282.589 401.362 281.729 396.005 281.368 390.604C280.962 385.23 281.032 379.831 281.58 374.469Z" fill="black"/>
<path d="M456.204 415.318C456.773 420.257 457.57 425.138 458.594 429.96C459.593 434.77 460.934 439.503 462.607 444.122C463.427 446.424 464.386 448.675 465.481 450.86C466.541 453.055 467.768 455.166 469.151 457.173C470.524 459.191 472.09 461.07 473.827 462.784C475.597 464.501 477.543 466.027 479.632 467.336C477.323 466.355 475.159 465.059 473.203 463.487C471.246 461.886 469.482 460.063 467.946 458.056C464.901 454.024 462.495 449.547 460.812 444.783C457.461 435.332 455.898 425.34 456.204 415.318L456.204 415.318Z" fill="black"/>
<path d="M373.004 411.959C372.778 416.129 371.882 420.235 370.351 424.12C368.863 428.071 366.722 431.744 364.017 434.984C362.646 436.602 361.12 438.081 359.461 439.401C357.797 440.713 355.997 441.84 354.091 442.765C350.31 444.591 346.186 445.599 341.989 445.724C345.981 444.868 349.824 443.426 353.393 441.444C356.877 439.438 359.979 436.833 362.557 433.748C365.15 430.651 367.311 427.217 368.981 423.539C370.702 419.822 372.049 415.943 373.004 411.959Z" fill="black"/>
</svg>
