<svg width="700" height="550" viewBox="0 0 700 550" fill="none" xmlns="http://www.w3.org/2000/svg">
<path d="M345.616 376.868C345.616 376.868 350.716 346.654 345.616 337.548C340.525 328.451 341.609 307.702 341.609 307.702C341.609 307.702 344.522 300.782 341.609 264.965C338.803 230.386 324.964 213.47 324.015 212.337C324.005 212.337 323.986 212.318 323.976 212.308C323.971 212.298 323.965 212.288 323.957 212.279C323.956 212.279 323.955 212.28 323.953 212.28C323.952 212.28 323.951 212.281 323.95 212.282C323.949 212.283 323.949 212.284 323.948 212.285C323.948 212.286 323.948 212.288 323.948 212.289C323.434 212.618 322.892 212.918 322.322 213.208C316.554 216.063 307.911 216.915 298.979 216.779L247.058 291.549C246.787 310.692 248.026 325.683 248.79 327.367C250.61 331.373 248.79 354.29 248.79 354.29C248.79 354.29 242.964 376.868 246.971 394.704C250.968 412.54 242.597 437.993 242.597 437.993C268.813 460.561 289.562 447.09 296.114 443.809C299.153 442.29 300.866 442.657 301.815 443.48C304.516 445.931 307.785 447.671 311.328 448.541C336.267 454.009 357.268 439.812 357.268 439.812L345.616 376.868ZM248.703 438.225C248.327 438.212 247.971 438.053 247.71 437.782C247.448 437.511 247.302 437.15 247.302 436.773C247.302 436.397 247.448 436.035 247.71 435.765C247.971 435.494 248.327 435.335 248.703 435.322C249.079 435.335 249.436 435.494 249.697 435.765C249.958 436.035 250.104 436.397 250.104 436.773C250.104 437.15 249.958 437.511 249.697 437.782C249.436 438.053 249.079 438.212 248.703 438.225ZM254.975 441.709C254.598 441.696 254.242 441.537 253.981 441.266C253.72 440.995 253.573 440.634 253.573 440.257C253.573 439.881 253.72 439.519 253.981 439.249C254.242 438.978 254.598 438.819 254.975 438.806C255.351 438.819 255.707 438.978 255.968 439.248C256.23 439.519 256.376 439.881 256.376 440.257C256.376 440.634 256.23 440.995 255.968 441.266C255.707 441.537 255.351 441.696 254.975 441.709ZM261.246 445.193C260.87 445.18 260.513 445.021 260.252 444.75C259.991 444.479 259.845 444.118 259.845 443.741C259.845 443.365 259.991 443.003 260.252 442.733C260.513 442.462 260.87 442.303 261.246 442.29C261.622 442.303 261.978 442.462 262.239 442.733C262.5 443.003 262.646 443.365 262.646 443.741C262.646 444.117 262.5 444.479 262.239 444.75C261.978 445.021 261.622 445.179 261.246 445.193V445.193ZM269.259 447.632C268.882 447.618 268.526 447.46 268.265 447.189C268.004 446.918 267.858 446.556 267.858 446.18C267.858 445.804 268.004 445.442 268.265 445.171C268.526 444.901 268.882 444.742 269.259 444.728C269.635 444.742 269.991 444.901 270.252 445.171C270.513 445.442 270.659 445.804 270.659 446.18C270.659 446.556 270.513 446.918 270.252 447.189C269.991 447.459 269.635 447.618 269.259 447.632V447.632ZM278.317 447.283C277.941 447.27 277.585 447.111 277.323 446.84C277.062 446.569 276.916 446.208 276.916 445.832C276.916 445.455 277.062 445.094 277.323 444.823C277.585 444.552 277.941 444.393 278.317 444.38C278.693 444.394 279.049 444.552 279.31 444.823C279.571 445.094 279.717 445.455 279.717 445.832C279.717 446.208 279.571 446.569 279.31 446.84C279.049 447.111 278.693 447.27 278.317 447.283H278.317ZM287.375 444.496C286.999 444.483 286.643 444.324 286.382 444.053C286.121 443.782 285.975 443.421 285.975 443.044C285.975 442.668 286.121 442.307 286.382 442.036C286.643 441.765 286.999 441.606 287.375 441.593C287.751 441.606 288.108 441.765 288.369 442.036C288.63 442.307 288.776 442.668 288.776 443.044C288.776 443.421 288.63 443.782 288.369 444.053C288.108 444.324 287.751 444.483 287.375 444.496V444.496ZM295.388 440.664C295.012 440.65 294.656 440.492 294.395 440.221C294.133 439.95 293.987 439.588 293.987 439.212C293.987 438.836 294.133 438.474 294.395 438.203C294.656 437.933 295.012 437.774 295.388 437.76C295.764 437.774 296.121 437.933 296.382 438.203C296.643 438.474 296.789 438.836 296.789 439.212C296.789 439.588 296.643 439.95 296.382 440.221C296.121 440.491 295.764 440.65 295.388 440.664V440.664ZM304.098 441.012C303.722 440.999 303.366 440.84 303.105 440.569C302.843 440.298 302.697 439.937 302.697 439.56C302.697 439.184 302.843 438.823 303.105 438.552C303.366 438.281 303.722 438.122 304.098 438.109C304.474 438.122 304.83 438.281 305.092 438.552C305.353 438.823 305.499 439.184 305.499 439.56C305.499 439.937 305.353 440.298 305.092 440.569C304.83 440.84 304.474 440.999 304.098 441.012V441.012ZM311.763 445.193C311.387 445.179 311.031 445.021 310.77 444.75C310.508 444.479 310.362 444.118 310.362 443.741C310.362 443.365 310.508 443.003 310.77 442.733C311.031 442.462 311.387 442.303 311.763 442.29C312.139 442.303 312.495 442.462 312.756 442.733C313.017 443.004 313.163 443.365 313.163 443.741C313.163 444.117 313.017 444.479 312.756 444.75C312.495 445.02 312.139 445.179 311.763 445.193V445.193ZM320.473 446.935C320.097 446.921 319.741 446.763 319.48 446.492C319.218 446.221 319.072 445.86 319.072 445.483C319.072 445.107 319.218 444.745 319.48 444.475C319.741 444.204 320.097 444.045 320.473 444.032C320.849 444.045 321.205 444.204 321.466 444.475C321.727 444.746 321.873 445.107 321.873 445.483C321.873 445.859 321.727 446.221 321.466 446.492C321.205 446.762 320.849 446.921 320.473 446.935V446.935ZM329.183 446.935C328.807 446.921 328.451 446.763 328.189 446.492C327.928 446.221 327.782 445.86 327.782 445.483C327.782 445.107 327.928 444.745 328.189 444.475C328.451 444.204 328.807 444.045 329.183 444.032C329.559 444.045 329.915 444.204 330.176 444.475C330.437 444.746 330.583 445.107 330.583 445.483C330.583 445.859 330.437 446.221 330.176 446.492C329.915 446.762 329.559 446.921 329.183 446.935V446.935ZM338.938 445.541C338.562 445.528 338.206 445.369 337.944 445.098C337.683 444.828 337.537 444.466 337.537 444.09C337.537 443.713 337.683 443.352 337.944 443.081C338.206 442.81 338.562 442.651 338.938 442.638C339.314 442.652 339.67 442.81 339.931 443.081C340.192 443.352 340.338 443.713 340.338 444.09C340.338 444.466 340.192 444.827 339.931 445.098C339.67 445.369 339.314 445.528 338.938 445.541V445.541ZM346.952 442.057C346.575 442.044 346.219 441.885 345.958 441.614C345.697 441.344 345.551 440.982 345.551 440.606C345.551 440.229 345.697 439.868 345.958 439.597C346.219 439.326 346.575 439.167 346.952 439.154C347.327 439.168 347.683 439.327 347.945 439.597C348.206 439.868 348.352 440.23 348.352 440.606C348.352 440.982 348.206 441.343 347.945 441.614C347.683 441.885 347.327 442.044 346.952 442.057V442.057ZM353.571 437.877C353.195 437.863 352.839 437.704 352.577 437.434C352.316 437.163 352.17 436.801 352.17 436.425C352.17 436.049 352.316 435.687 352.577 435.416C352.839 435.145 353.195 434.987 353.571 434.973C353.947 434.987 354.303 435.146 354.564 435.417C354.825 435.687 354.971 436.049 354.971 436.425C354.971 436.801 354.825 437.163 354.564 437.433C354.303 437.704 353.947 437.863 353.571 437.877V437.877Z" fill="#020202"/>
<path d="M257.433 184.485C257.091 182.749 256.981 180.976 257.103 179.211C257.152 178.29 257.249 177.373 257.394 176.462C257.401 176.387 257.414 176.313 257.433 176.24C256.245 176.185 255.066 176.016 253.91 175.736C252.513 175.422 251.16 174.935 249.884 174.285L245.152 182.114L246.952 184.582C249.294 183.885 250.929 183.479 250.929 183.479C250.929 183.479 252.12 187.475 257.442 188.724C256.951 187.354 256.948 185.857 257.433 184.485ZM248.355 182.849C247.979 182.836 247.623 182.677 247.361 182.406C247.1 182.136 246.954 181.774 246.954 181.398C246.954 181.022 247.1 180.66 247.361 180.389C247.623 180.118 247.979 179.96 248.355 179.946C248.731 179.96 249.087 180.118 249.348 180.389C249.609 180.66 249.755 181.022 249.755 181.398C249.755 181.774 249.609 182.136 249.348 182.406C249.087 182.677 248.731 182.836 248.355 182.849H248.355ZM254.278 184.417C253.902 184.404 253.546 184.245 253.284 183.974C253.023 183.703 252.877 183.342 252.877 182.966C252.877 182.589 253.023 182.228 253.284 181.957C253.546 181.686 253.902 181.527 254.278 181.514C254.654 181.527 255.01 181.686 255.271 181.957C255.532 182.228 255.678 182.589 255.678 182.966C255.678 183.342 255.532 183.703 255.271 183.974C255.01 184.245 254.654 184.404 254.278 184.417H254.278Z" fill="#020202"/>
<path d="M272.084 160.997C274.319 161.393 276.513 161.995 278.636 162.797C271.649 168.304 259.852 181.446 259.852 181.446C258.84 182.138 258.041 183.101 257.548 184.224C257.762 182.569 257.984 180.953 258.274 179.346C258.449 178.475 258.594 177.594 258.797 176.723C258.999 175.866 259.245 175.02 259.533 174.188C260.055 172.465 260.597 170.743 261.062 168.981C261.551 167.225 261.951 165.445 262.262 163.649C261.386 165.251 260.61 166.906 259.939 168.604C259.242 170.288 258.642 172.001 258.081 173.743C257.887 174.449 257.655 175.156 257.5 175.91C256.416 175.433 255.288 175.06 254.132 174.798C252.745 174.441 251.316 174.269 249.884 174.285C249.884 174.285 248.974 156.816 261.71 146.442C261.71 146.442 266.433 140.626 281.481 138.264C280.804 138.467 275.336 140.693 272.084 160.997Z" fill="#020202"/>
<path d="M309.034 161.908C308.89 161.901 308.738 161.893 308.594 161.893" stroke="#020202" stroke-width="0.75838" stroke-linecap="round" stroke-linejoin="round"/>
<path d="M212.296 138.976C211.307 138.231 210.236 137.602 209.105 137.101C207.985 136.576 206.845 136.095 205.696 135.634C203.391 134.736 201.079 133.836 198.74 133.048L198.917 133.079C198.553 133.091 198.191 133.132 197.835 133.203C197.521 133.282 197.222 133.432 197.212 133.531C197.185 133.737 197.241 133.945 197.366 134.111C197.537 134.397 197.746 134.659 197.986 134.89L201.619 138.051C204.048 140.149 206.431 142.297 208.839 144.418C208.968 144.532 209.055 144.687 209.084 144.856C209.113 145.026 209.083 145.201 208.998 145.351C208.914 145.501 208.781 145.618 208.621 145.682C208.462 145.746 208.285 145.754 208.12 145.703L208.065 145.686C207.065 145.408 206.015 145.356 204.992 145.534C203.949 145.692 202.817 146.098 202.614 146.694C202.35 147.269 202.894 148.351 203.542 149.18C204.233 150.054 205.015 150.851 205.877 151.558L205.882 151.562C206.019 151.676 206.105 151.84 206.121 152.017C206.137 152.194 206.082 152.37 205.968 152.507C205.902 152.586 205.818 152.649 205.724 152.691C205.155 152.925 204.604 153.2 204.076 153.516C203.607 153.821 203.141 154.236 203.161 154.519C203.116 154.789 203.484 155.251 203.978 155.571C204.489 155.908 205.04 156.182 205.617 156.386C205.706 156.419 205.784 156.476 205.843 156.551C205.901 156.625 205.937 156.715 205.946 156.81C205.956 156.904 205.938 156.999 205.896 157.084C205.854 157.169 205.789 157.241 205.708 157.29L205.033 157.704C204.841 157.82 204.678 157.981 204.56 158.172C204.442 158.363 204.368 158.577 204.341 158.799C204.314 159.022 204.336 159.247 204.404 159.46C204.474 159.68 204.59 159.883 204.744 160.055C204.898 160.226 205.086 160.364 205.297 160.457C205.812 160.653 206.339 160.817 206.875 160.947C207.946 161.255 209.071 161.33 210.173 161.165C210.716 161.072 211.215 160.809 211.599 160.414C211.968 159.986 212.209 159.463 212.296 158.905C212.266 159.489 212.072 160.052 211.736 160.531C211.362 161.004 210.841 161.339 210.255 161.483C209.105 161.751 207.911 161.768 206.755 161.532C206.17 161.438 205.592 161.306 205.024 161.136C204.703 161.018 204.411 160.83 204.17 160.587C203.928 160.345 203.742 160.052 203.625 159.73C203.504 159.403 203.455 159.053 203.481 158.705C203.508 158.356 203.609 158.018 203.779 157.713C203.948 157.408 204.184 157.146 204.468 156.944L205.232 156.425L205.322 157.329C204.646 157.127 203.997 156.842 203.39 156.48C203.06 156.283 202.761 156.039 202.501 155.756C202.349 155.595 202.226 155.408 202.14 155.204C202.03 154.98 201.976 154.732 201.984 154.483C201.992 154.236 202.047 153.993 202.148 153.767C202.25 153.576 202.37 153.395 202.505 153.225C202.76 152.938 203.048 152.682 203.363 152.463C203.952 152.081 204.571 151.748 205.215 151.469L205.062 152.602C204.095 151.85 203.214 150.994 202.433 150.051C202.018 149.552 201.671 149.002 201.4 148.413C201.211 148.071 201.1 147.692 201.073 147.302C201.047 146.913 201.107 146.522 201.248 146.158C201.39 145.794 201.61 145.466 201.892 145.196C202.174 144.927 202.513 144.722 202.883 144.598C203.479 144.34 204.105 144.16 204.746 144.06C206.032 143.816 207.357 143.89 208.607 144.277L207.833 145.544C205.449 143.386 203.04 141.255 200.677 139.075L197.121 135.818C196.792 135.48 196.514 135.097 196.296 134.679C196.17 134.445 196.085 134.191 196.044 133.928C195.985 133.599 196.041 133.26 196.204 132.967C196.365 132.737 196.573 132.543 196.814 132.399C197.055 132.255 197.325 132.163 197.604 132.131C198.038 132.062 198.478 132.031 198.917 132.039L198.927 132.039C198.985 132.038 199.041 132.049 199.095 132.07C201.415 132.999 203.714 133.95 205.955 135.049C207.073 135.602 208.182 136.175 209.267 136.791C210.369 137.381 211.388 138.116 212.296 138.976Z" fill="#020202"/>
<path d="M205.47 156.858C207.228 156.89 208.942 157.04 210.641 157.025C211.472 157.044 212.303 156.958 213.113 156.77C213.492 156.683 213.841 156.493 214.121 156.222C214.256 156.067 214.358 155.886 214.419 155.69C214.481 155.494 214.502 155.287 214.479 155.083C214.576 155.297 214.621 155.531 214.611 155.766C214.602 156.001 214.538 156.23 214.424 156.436C214.159 156.844 213.769 157.156 213.313 157.327C212.461 157.646 211.556 157.801 210.647 157.783C208.88 157.783 207.127 157.47 205.47 156.858Z" fill="#020202"/>
<path d="M205.47 152.08C206.562 152.246 207.646 152.376 208.722 152.484C209.787 152.596 210.86 152.622 211.929 152.56C212.96 152.537 213.964 152.232 214.833 151.679C215.235 151.345 215.559 150.926 215.781 150.453C216.003 149.979 216.118 149.463 216.117 148.94C216.227 149.496 216.225 150.068 216.112 150.623C215.971 151.205 215.657 151.731 215.213 152.133C214.295 152.868 213.161 153.283 211.985 153.316C209.747 153.413 207.517 152.99 205.47 152.08Z" fill="#020202"/>
<path d="M228.702 139.413C228.721 138.893 228.151 138.843 228.221 138.448C228.428 138.389 229.261 137.951 229.46 137.875L230.648 137.39L231.836 136.905L232.43 136.663C232.788 136.911 233.13 137.182 233.454 137.473C233.426 137.908 233.372 138.341 233.29 138.769L232.696 139.011L231.508 139.496L230.32 139.981C230.124 140.067 229.366 140.466 229.177 140.568C228.851 140.334 229.079 139.771 228.702 139.413Z" fill="#020202"/>
<path d="M217.788 143.386C219.745 143.114 221.62 142.426 223.288 141.366C222.266 142.051 221.387 142.927 220.698 143.946L215.378 146.076L210.528 148.056L205.688 150.026C204.888 150.366 204.068 150.676 203.278 151.026C202.338 151.046 200.358 151.736 199.368 151.626C199.998 150.856 201.728 149.546 202.408 148.906C203.218 148.596 204.018 148.246 204.828 147.926L209.678 145.946L215.578 143.536H215.588C216.324 143.529 217.058 143.479 217.788 143.386Z" fill="#020202"/>
<path d="M229.458 137.876L229.178 140.566L228.778 140.726C228.616 140.004 228.299 139.324 227.848 138.736C227.808 138.684 227.764 138.634 227.718 138.586L229.458 137.876Z" fill="#020202"/>
<path d="M207.654 161.477C210.97 162.375 213.88 164.38 215.9 167.159C216.398 167.862 216.841 168.603 217.224 169.375C217.595 170.167 217.903 170.936 218.231 171.71L220.18 176.355C222.779 182.548 225.267 188.785 227.755 195.021L229.592 199.71L230.51 202.055C230.797 202.817 231.126 203.564 231.494 204.291C232.929 207.237 234.931 209.872 237.384 212.045C239.836 214.227 242.974 215.482 246.254 215.594C247.907 215.642 249.557 215.436 251.147 214.984C251.946 214.788 252.698 214.436 253.361 213.947C254.023 213.452 254.612 212.842 255.235 212.28C254.665 212.897 254.14 213.552 253.505 214.125C252.849 214.684 252.088 215.106 251.267 215.368C249.655 215.945 247.963 216.272 246.252 216.338C242.753 216.365 239.354 215.166 236.646 212.949C233.967 210.759 231.777 208.033 230.215 204.946C229.811 204.182 229.453 203.395 229.146 202.587L228.211 200.249L226.343 195.574C223.891 189.324 221.44 183.075 219.099 176.781L217.344 172.061C217.05 171.277 216.764 170.476 216.452 169.733C216.116 168.988 215.728 168.267 215.29 167.576C213.481 164.762 210.798 162.619 207.654 161.477Z" fill="#020202"/>
<path d="M321.502 209.823C315.548 211.969 308.329 212.819 301.025 212.925C301.025 212.925 312.1 190.512 311.582 188.164C311.582 188.164 313.739 200.544 321.502 209.823Z" fill="#020202"/>
<path d="M257.433 184.485C257.471 184.398 257.5 184.311 257.548 184.224C257.52 184.388 257.5 184.553 257.481 184.717C257.46 184.641 257.444 184.563 257.433 184.485Z" fill="white"/>
<path d="M262.183 198.61C263.771 198.845 265.133 199.142 266.524 199.296C267.215 199.39 267.9 199.425 268.608 199.456C269.323 199.497 270.031 199.429 270.857 199.448C270.277 200.022 269.554 200.429 268.763 200.63C267.976 200.851 267.152 200.91 266.342 200.802C265.541 200.706 264.763 200.47 264.045 200.103C263.317 199.756 262.68 199.245 262.183 198.61Z" fill="#020202"/>
<path d="M291.809 198.61C293.397 198.845 294.759 199.142 296.15 199.296C296.841 199.39 297.526 199.425 298.234 199.456C298.949 199.497 299.657 199.429 300.483 199.448C299.903 200.022 299.18 200.429 298.389 200.63C297.602 200.851 296.778 200.91 295.968 200.802C295.167 200.706 294.389 200.47 293.671 200.103C292.943 199.756 292.306 199.245 291.809 198.61Z" fill="#020202"/>
<path d="M303.357 144.898C302.082 147.171 300.202 149.047 297.925 150.317C296.715 150.946 295.318 151.115 293.992 150.793C292.668 150.432 291.511 149.622 290.718 148.501C289.926 147.396 289.486 146.077 289.457 144.718C289.425 143.392 289.63 142.072 290.062 140.819C290.503 139.529 291.426 138.46 292.637 137.834C293.835 137.249 295.194 137.081 296.498 137.357L296.382 137.4C296.926 136.761 297.471 136.123 298.029 135.495C297.551 136.186 297.061 136.867 296.568 137.547C296.557 137.562 296.542 137.575 296.524 137.582C296.507 137.59 296.488 137.593 296.468 137.591L296.452 137.59C295.216 137.442 293.964 137.677 292.866 138.262C291.815 138.885 291.033 139.877 290.674 141.045C290.293 142.221 290.124 143.455 290.173 144.69C290.231 145.902 290.628 147.074 291.318 148.073C291.998 149.072 293.005 149.803 294.165 150.142C295.347 150.432 296.592 150.317 297.701 149.815C299.995 148.835 301.763 146.867 303.357 144.898Z" fill="#020202"/>
<path d="M352.383 183.363C352.534 185.464 352.413 187.572 352.359 189.674C352.274 191.779 352.181 193.875 352.037 195.983C351.734 200.238 350.477 204.37 348.36 208.074C347.289 209.942 345.898 211.607 344.251 212.995C342.58 214.389 340.615 215.387 338.503 215.914C336.395 216.43 334.209 216.542 332.059 216.244C329.908 215.969 327.811 215.369 325.841 214.462C325.819 214.452 325.799 214.44 325.78 214.426L324.677 213.582L324.126 213.159L323.851 212.947L323.713 212.841L323.644 212.788C323.644 212.788 323.605 212.755 323.626 212.776C323.652 212.799 323.682 212.818 323.714 212.831L323.563 212.722C320.744 210.198 318.392 207.197 316.615 203.856C314.832 200.543 313.389 197.058 312.309 193.454C310.19 186.272 308.853 178.882 308.32 171.414C308.169 169.552 308.057 167.688 307.983 165.821C307.902 163.939 307.907 162.119 307.69 160.322C307.523 158.547 307.087 156.808 306.397 155.164C306.098 154.396 305.608 153.716 304.973 153.189C304.198 152.526 303.546 151.731 303.047 150.842C302.537 149.938 302.236 148.931 302.168 147.896C302.114 146.867 302.267 145.839 302.617 144.871C302.796 144.413 303.025 143.924 303.22 143.522C303.42 143.131 303.599 142.729 303.754 142.318C304.068 141.52 304.255 140.678 304.308 139.823C304.33 139.419 304.305 139.013 304.233 138.615C304.153 138.258 303.998 137.923 303.778 137.631C303.549 137.336 303.264 137.089 302.939 136.905C302.613 136.722 302.254 136.605 301.883 136.563L296.349 135.997L296.314 135.993C296.208 135.983 296.108 135.941 296.025 135.874C295.852 135.746 295.708 135.583 295.603 135.396C295.497 135.209 295.432 135.001 295.411 134.787C295.385 134.387 295.508 133.991 295.755 133.676C295.938 133.437 296.15 133.223 296.387 133.039C296.603 132.873 296.831 132.724 297.07 132.593L297.387 132.508C297.216 132.508 297.052 132.576 296.932 132.697C296.811 132.818 296.743 132.981 296.743 133.152L296.961 132.669L297.429 132.21L297.893 131.638L298.824 130.49C299.364 129.829 300.069 129.322 300.868 129.022C301.667 128.722 302.531 128.638 303.373 128.78L304.865 128.983L306.359 129.189C306.949 129.262 307.516 129.466 308.017 129.787C308.204 129.923 308.35 130.108 308.44 130.321C308.538 130.568 308.544 130.842 308.459 131.093C308.329 131.441 308.098 131.743 307.796 131.959C307.523 132.157 307.209 132.291 306.877 132.351C306.576 132.4 306.269 132.401 305.968 132.352C305.011 132.214 304.046 132.132 303.079 132.107C302.137 132.118 301.201 132.26 300.297 132.527C299.838 132.662 299.389 132.828 298.952 133.024L297.653 133.598L297.907 133.163C297.904 133.297 297.85 133.425 297.755 133.52C297.66 133.615 297.532 133.67 297.398 133.672L297.732 133.542C297.35 133.91 296.891 134.189 296.388 134.36C296.208 134.416 296.018 134.43 295.832 134.399C295.645 134.369 295.469 134.295 295.316 134.184C295.062 133.97 294.884 133.678 294.81 133.354C294.744 133.082 294.717 132.803 294.728 132.523C294.757 132.271 294.8 132.021 294.856 131.773C294.983 131.314 295.141 130.864 295.328 130.426C296.096 128.754 297.047 127.171 298.164 125.708C298.715 124.969 299.315 124.267 299.959 123.608C300.298 123.264 300.674 122.958 301.079 122.696L301.422 122.51L301.722 122.375L302.331 122.093C303.144 121.715 303.949 121.321 304.742 120.905C305.533 120.431 306.368 120.035 307.235 119.723C309.05 119.17 311.008 119.344 312.697 120.207C313.496 120.658 314.254 121.177 314.962 121.759C315.681 122.322 316.352 122.942 316.97 123.612C317.597 124.281 318.129 125.034 318.55 125.848C318.993 126.662 319.209 127.579 319.177 128.504L318.726 133.901L318.99 128.501C318.989 127.613 318.754 126.741 318.31 125.972C317.882 125.193 317.347 124.477 316.722 123.844C315.475 122.572 314.046 121.491 312.484 120.635C310.902 119.876 309.088 119.759 307.423 120.311C306.601 120.634 305.813 121.035 305.069 121.51C304.276 121.952 303.472 122.372 302.659 122.775L302.046 123.072L301.731 123.219L301.483 123.362C301.136 123.598 300.815 123.869 300.526 124.173C299.919 124.814 299.357 125.494 298.841 126.209C297.789 127.633 296.898 129.168 296.183 130.787C295.812 131.494 295.659 132.295 295.743 133.089C295.767 133.208 295.825 133.317 295.91 133.403C295.938 133.427 295.983 133.439 296.127 133.403C296.474 133.263 296.789 133.055 297.053 132.79L297.388 132.659C297.323 132.659 297.259 132.672 297.199 132.697C297.139 132.722 297.084 132.758 297.038 132.804C296.992 132.85 296.956 132.904 296.931 132.964C296.906 133.024 296.894 133.089 296.894 133.154L297.148 132.719L298.555 132.066C299.02 131.85 299.499 131.666 299.988 131.513C300.983 131.202 302.015 131.029 303.056 131C303.575 130.986 304.094 131.006 304.611 131.061L306.089 131.205C306.278 131.239 306.471 131.239 306.659 131.207C306.816 131.176 306.964 131.11 307.093 131.015C307.195 130.939 307.276 130.839 307.329 130.724C307.332 130.7 307.323 130.745 307.334 130.77C307.338 130.793 307.345 130.775 307.289 130.74C306.464 130.42 305.589 130.243 304.704 130.219L303.248 130.044C302.818 129.971 302.377 129.973 301.947 130.052C301.114 130.206 300.363 130.653 299.831 131.312L298.896 132.476L298.427 133.061L297.84 133.647L298.058 133.164C298.055 133.338 297.985 133.504 297.862 133.627C297.739 133.75 297.573 133.82 297.399 133.823L297.715 133.739C297.536 133.838 297.364 133.951 297.202 134.076C297.062 134.187 296.936 134.313 296.826 134.453C296.743 134.57 296.722 134.649 296.732 134.67C296.713 134.68 296.792 134.785 296.804 134.796L296.48 134.673L302.035 135.212C302.59 135.273 303.126 135.444 303.613 135.717C304.1 135.989 304.527 136.357 304.869 136.797C305.213 137.247 305.456 137.766 305.582 138.319C305.683 138.833 305.721 139.359 305.695 139.883C305.64 140.885 305.428 141.873 305.067 142.81C304.897 143.269 304.701 143.718 304.48 144.154C304.273 144.588 304.112 144.945 303.951 145.349C303.657 146.125 303.536 146.957 303.598 147.784C303.661 148.612 303.904 149.416 304.311 150.139C304.729 150.871 305.27 151.524 305.911 152.069C306.124 152.227 306.321 152.403 306.502 152.596C306.681 152.793 306.846 153.003 306.995 153.224C307.279 153.642 307.527 154.084 307.736 154.545C308.501 156.326 308.989 158.214 309.183 160.142C309.428 162.035 309.415 163.938 309.482 165.766C309.546 167.612 309.648 169.456 309.787 171.298C310.274 178.667 311.554 185.962 313.606 193.056C315.748 200.061 318.929 206.92 324.385 211.899L324.234 211.79C324.289 211.821 324.34 211.857 324.388 211.898L324.436 211.938L324.5 211.988L324.628 212.088L324.883 212.29L325.394 212.693L326.415 213.502L326.354 213.466C330.049 215.29 334.245 215.835 338.283 215.017C340.277 214.553 342.14 213.642 343.731 212.354C345.324 211.043 346.685 209.473 347.755 207.709C349.921 204.131 351.254 200.111 351.656 195.947C351.854 193.863 351.994 191.758 352.143 189.663C352.269 187.565 352.462 185.465 352.383 183.363Z" fill="#020202"/>
<path d="M319.943 159.138C319.285 157.114 318.767 155.048 318.391 152.954C318.013 150.853 317.772 148.731 317.667 146.599C317.553 144.467 317.564 142.329 317.702 140.198L318.071 133.857C318.081 133.695 318.15 133.544 318.265 133.431C318.381 133.318 318.534 133.252 318.695 133.246L318.707 133.245C320.713 133.163 322.723 133.198 324.725 133.35C326.739 133.506 328.735 133.833 330.694 134.327C332.665 134.816 334.568 135.548 336.359 136.505C338.208 137.43 339.817 138.772 341.058 140.425L341.019 140.372C342.746 142.47 344.234 144.752 345.458 147.178C346.661 149.602 347.637 152.134 348.372 154.739C349.098 157.347 349.643 160.002 350.003 162.684C350.368 165.381 350.521 168.102 350.46 170.823L350.347 170.441L357.564 179.771L357.587 179.801C357.655 179.888 357.694 179.994 357.701 180.105C357.733 180.805 357.501 181.492 357.051 182.029C356.696 182.502 356.264 182.911 355.773 183.241C354.785 183.916 353.595 184.229 352.403 184.128C351.816 184.077 351.241 183.93 350.701 183.693C350.142 183.449 349.759 183.21 349.315 183.018C348.457 182.62 347.554 182.329 346.626 182.151C345.753 181.977 344.853 182.005 343.993 182.233C343.606 182.346 343.25 182.544 342.949 182.811C342.53 183.147 342.093 183.461 341.64 183.75C339.897 184.871 338.136 185.873 336.348 186.871L336.339 186.877C336.173 186.969 335.978 186.996 335.793 186.951C335.607 186.907 335.446 186.795 335.339 186.638L330.919 180.08L326.52 173.507C325.813 172.408 324.984 171.418 324.266 170.246C323.569 169.105 322.952 167.916 322.419 166.689C321.375 164.252 320.546 161.728 319.942 159.145L319.941 159.139L319.939 159.125L319.94 159.117C319.941 159.098 319.949 159.079 319.963 159.066C319.977 159.052 319.996 159.045 320.016 159.045C320.035 159.045 320.054 159.052 320.068 159.066C320.082 159.079 320.091 159.098 320.091 159.117L320.092 159.125L320.089 159.105C320.888 161.606 321.878 164.043 323.052 166.392C323.627 167.559 324.281 168.684 325.011 169.76C325.72 170.808 326.634 171.81 327.408 172.892L332.017 179.319L336.605 185.76L335.596 185.527C337.337 184.523 339.091 183.493 340.746 182.395C341.155 182.124 341.573 181.841 341.911 181.564C342.377 181.163 342.923 180.864 343.512 180.687C344.618 180.382 345.78 180.34 346.906 180.562C347.972 180.767 349.007 181.112 349.983 181.589C350.465 181.809 350.949 182.106 351.32 182.27C351.707 182.449 352.122 182.564 352.547 182.608C353.395 182.693 354.246 182.482 354.955 182.011C355.312 181.781 355.628 181.492 355.89 181.158C356.104 180.916 356.242 180.616 356.287 180.296L356.425 180.63L349.444 171.122L349.44 171.117C349.361 171.008 349.322 170.874 349.332 170.739C349.508 168.084 349.472 165.42 349.224 162.77C348.99 160.107 348.533 157.467 347.857 154.88C347.187 152.291 346.24 149.781 345.031 147.394L344.07 145.638C343.734 145.062 343.33 144.528 342.965 143.972L342.403 143.146C342.207 142.877 341.982 142.63 341.769 142.375L340.481 140.854L340.441 140.801C339.203 139.339 337.651 138.175 335.901 137.396C334.146 136.566 332.298 135.947 330.397 135.554C328.493 135.138 326.563 134.854 324.62 134.703C322.67 134.565 320.709 134.505 318.746 134.557L319.381 133.946L318.885 140.278C318.709 142.381 318.59 144.466 318.611 146.57C318.636 148.673 318.771 150.772 319.016 152.861C319.26 154.957 319.619 157.039 320.089 159.097C320.091 159.107 320.091 159.117 320.089 159.127C320.088 159.137 320.084 159.146 320.079 159.154C320.074 159.163 320.067 159.17 320.059 159.176C320.05 159.182 320.041 159.186 320.031 159.188C320.013 159.192 319.994 159.189 319.977 159.18C319.961 159.171 319.949 159.156 319.943 159.138Z" fill="#020202"/>
<path d="M356.997 180.198L349.893 170.781C348.304 170.712 346.712 170.77 345.132 170.955C343.587 171.187 342.058 171.516 340.554 171.942C337.51 172.878 334.521 173.986 331.603 175.262C332.793 174.129 334.131 173.162 335.58 172.388C337.027 171.59 338.555 170.951 340.139 170.481C341.742 170.028 343.398 169.79 345.064 169.775C346.726 169.778 348.369 170.121 349.893 170.781C349.893 170.781 351.258 152.345 340.748 140.616C340.748 140.616 337.622 135.467 326.096 134.161L320.019 159.12V159.129C320.513 160.906 321.104 162.653 321.79 164.365C322.733 166.856 324.012 169.207 325.593 171.352C325.941 171.797 326.299 172.242 326.628 172.717L335.967 186.198C338.228 184.958 340.418 183.595 342.529 182.114C343.893 180.933 346.894 180.749 350.532 182.752C351.104 183.071 351.731 183.278 352.381 183.362C355.139 183.682 357.142 181.32 356.997 180.198ZM337.545 182.849C337.169 182.836 336.813 182.677 336.551 182.406C336.29 182.136 336.144 181.774 336.144 181.398C336.144 181.021 336.29 180.66 336.551 180.389C336.813 180.118 337.169 179.959 337.545 179.946C337.921 179.959 338.277 180.118 338.538 180.389C338.8 180.66 338.946 181.021 338.946 181.398C338.946 181.774 338.8 182.136 338.538 182.406C338.277 182.677 337.921 182.836 337.545 182.849ZM344.164 180.062C343.788 180.049 343.432 179.89 343.171 179.619C342.909 179.348 342.763 178.987 342.763 178.61C342.763 178.234 342.909 177.873 343.171 177.602C343.432 177.331 343.788 177.172 344.164 177.159C344.54 177.172 344.896 177.331 345.158 177.602C345.419 177.873 345.565 178.234 345.565 178.61C345.565 178.987 345.419 179.348 345.158 179.619C344.896 179.89 344.54 180.049 344.164 180.062ZM351.132 181.107C350.756 181.094 350.4 180.935 350.139 180.664C349.877 180.394 349.731 180.032 349.731 179.656C349.731 179.279 349.877 178.918 350.139 178.647C350.4 178.376 350.756 178.217 351.132 178.204C351.508 178.217 351.865 178.376 352.126 178.647C352.387 178.918 352.533 179.279 352.533 179.656C352.533 180.032 352.387 180.394 352.126 180.664C351.865 180.935 351.508 181.094 351.132 181.107Z" fill="#020202"/>
<path d="M335.972 186.197C336.597 186.676 337.153 187.238 337.626 187.868C338.101 188.469 338.52 189.113 338.879 189.79C339.249 190.468 339.547 191.183 339.768 191.923C340.051 192.684 340.123 193.508 339.976 194.307C339.573 193.616 339.096 193.062 338.695 192.423C338.277 191.804 337.892 191.163 337.541 190.503C337.184 189.839 336.87 189.154 336.601 188.45C336.306 187.725 336.095 186.969 335.972 186.197Z" fill="#020202"/>
<path d="M304.544 120.718C303.933 119.79 303.549 118.731 303.422 117.627C303.306 116.492 303.543 115.347 304.1 114.351C304.677 113.353 305.521 112.537 306.537 111.994C307.553 111.451 308.701 111.203 309.851 111.278C311.001 111.337 312.116 111.696 313.084 112.319C314.053 112.942 314.842 113.807 315.373 114.829C315.677 115.94 315.584 117.123 315.109 118.173C314.732 119.208 314.316 120.216 313.879 121.219C314.175 120.167 314.534 119.131 314.801 118.079C315.184 117.102 315.221 116.024 314.906 115.023C314.399 114.116 313.661 113.359 312.768 112.827C311.872 112.291 310.858 111.984 309.815 111.933C308.774 111.853 307.732 112.06 306.801 112.531C305.869 113.002 305.085 113.72 304.534 114.606C304.011 115.54 303.738 116.593 303.739 117.663C303.741 118.734 304.018 119.786 304.544 120.718Z" fill="#020202"/>
<path d="M293.18 150.062C293.384 151.823 293.579 153.576 293.742 155.324L293.744 155.349C293.75 155.406 293.744 155.463 293.727 155.518C293.71 155.572 293.682 155.623 293.646 155.667C293.609 155.711 293.565 155.747 293.514 155.774C293.464 155.801 293.408 155.817 293.351 155.823C293.295 155.828 293.237 155.822 293.183 155.805C293.128 155.788 293.077 155.761 293.033 155.724C292.989 155.688 292.953 155.643 292.926 155.592C292.9 155.542 292.883 155.487 292.878 155.43L292.876 155.395C292.852 153.612 292.86 151.832 292.877 150.062C292.877 150.024 292.892 149.987 292.919 149.959C292.945 149.931 292.982 149.915 293.02 149.913C293.058 149.911 293.096 149.923 293.126 149.948C293.155 149.973 293.174 150.008 293.178 150.046L293.18 150.062Z" fill="#020202"/>
<path d="M294.525 160.552C294.856 162.285 295.146 164.02 295.457 165.751L295.463 165.78C295.483 165.892 295.481 166.008 295.457 166.119C295.433 166.23 295.387 166.336 295.322 166.429C295.257 166.523 295.175 166.603 295.079 166.665C294.983 166.726 294.876 166.768 294.764 166.789C294.652 166.809 294.537 166.807 294.425 166.782C294.314 166.758 294.209 166.712 294.115 166.647C294.022 166.582 293.942 166.499 293.88 166.403C293.819 166.307 293.777 166.2 293.757 166.088C293.754 166.067 293.75 166.045 293.748 166.025C293.561 164.254 293.353 162.487 293.185 160.718C293.169 160.546 293.219 160.373 293.326 160.237C293.433 160.101 293.589 160.011 293.76 159.986C293.932 159.961 294.107 160.003 294.248 160.104C294.389 160.204 294.487 160.355 294.52 160.525L294.525 160.552Z" fill="#020202"/>
<path d="M296.531 170.914L297.751 176.044L297.759 176.08C297.795 176.226 297.8 176.378 297.777 176.527C297.753 176.676 297.7 176.818 297.622 176.947C297.543 177.075 297.439 177.187 297.317 177.275C297.195 177.363 297.057 177.427 296.911 177.462C296.764 177.496 296.612 177.502 296.463 177.478C296.315 177.454 296.172 177.401 296.044 177.322C295.916 177.243 295.804 177.139 295.716 177.017C295.628 176.895 295.565 176.757 295.531 176.61C295.527 176.594 295.522 176.573 295.519 176.556L294.534 171.304C294.485 171.044 294.54 170.774 294.687 170.553C294.834 170.333 295.061 170.178 295.321 170.123C295.58 170.067 295.851 170.115 296.075 170.256C296.3 170.398 296.46 170.621 296.522 170.879L296.531 170.914Z" fill="#020202"/>
<path d="M299.097 181.138L300.586 186.187L300.598 186.227C300.694 186.558 300.656 186.913 300.491 187.216C300.326 187.518 300.047 187.743 299.717 187.841C299.386 187.938 299.03 187.901 298.727 187.736C298.424 187.572 298.199 187.294 298.101 186.963L298.092 186.931L296.713 181.766C296.63 181.453 296.673 181.12 296.833 180.839C296.993 180.558 297.258 180.351 297.57 180.263C297.881 180.175 298.215 180.214 298.498 180.37C298.782 180.526 298.993 180.788 299.085 181.098L299.097 181.138Z" fill="#020202"/>
<path d="M302.209 191.194C302.808 192.844 303.4 194.495 303.969 196.155L303.983 196.197C304.099 196.535 304.076 196.906 303.92 197.228C303.764 197.55 303.487 197.798 303.149 197.916C302.812 198.035 302.441 198.015 302.117 197.862C301.794 197.708 301.544 197.433 301.423 197.096C300.819 195.418 300.238 193.731 299.663 192.043C299.549 191.709 299.572 191.343 299.726 191.025C299.881 190.707 300.154 190.463 300.487 190.345C300.821 190.228 301.187 190.247 301.507 190.398C301.826 190.549 302.073 190.82 302.194 191.152L302.209 191.194Z" fill="#020202"/>
<path d="M305.842 201.071C306.5 202.697 307.175 204.316 307.818 205.951L307.833 205.989C307.95 206.286 307.946 206.617 307.823 206.911C307.7 207.205 307.467 207.44 307.173 207.565C306.88 207.69 306.549 207.696 306.251 207.581C305.954 207.466 305.713 207.24 305.579 206.95C304.834 205.331 304.122 203.697 303.391 202.069C303.247 201.749 303.237 201.385 303.361 201.057C303.486 200.729 303.736 200.463 304.057 200.32C304.377 200.176 304.741 200.165 305.069 200.29C305.397 200.415 305.662 200.665 305.806 200.985L305.824 201.026L305.842 201.071Z" fill="#020202"/>
<path d="M309.901 210.792L312.147 215.566L312.16 215.594C312.26 215.807 312.273 216.051 312.197 216.274C312.121 216.497 311.96 216.681 311.75 216.788C311.541 216.894 311.297 216.915 311.072 216.845C310.847 216.776 310.658 216.621 310.545 216.414L307.983 211.726C307.848 211.478 307.816 211.186 307.896 210.914C307.975 210.642 308.16 210.413 308.408 210.278C308.656 210.142 308.949 210.11 309.22 210.19C309.492 210.27 309.721 210.454 309.856 210.702C309.866 210.72 309.876 210.739 309.884 210.757L309.901 210.792Z" fill="#020202"/>
<path d="M314.552 220.268C315.412 221.803 316.253 223.352 317.13 224.88L317.14 224.898C317.217 225.032 317.238 225.19 317.199 225.339C317.16 225.488 317.064 225.615 316.932 225.694C316.8 225.773 316.642 225.797 316.493 225.761C316.343 225.725 316.214 225.631 316.132 225.5C315.195 223.994 314.222 222.507 313.268 221.006C313.162 220.841 313.127 220.64 313.17 220.448C313.212 220.256 313.329 220.089 313.495 219.983C313.661 219.878 313.862 219.842 314.054 219.885C314.246 219.928 314.413 220.045 314.519 220.211L314.539 220.244L314.552 220.268Z" fill="#020202"/>
<path d="M319.92 229.371L322.916 233.73L322.925 233.743C322.994 233.843 323.02 233.966 322.998 234.085C322.977 234.204 322.909 234.31 322.809 234.379C322.71 234.449 322.587 234.476 322.468 234.455C322.348 234.434 322.242 234.367 322.172 234.268L319.1 229.921C319.025 229.814 318.995 229.682 319.017 229.553C319.039 229.424 319.112 229.309 319.218 229.234C319.325 229.158 319.458 229.128 319.587 229.15C319.716 229.172 319.831 229.245 319.906 229.352L319.908 229.355L319.92 229.371Z" fill="#020202"/>
<path d="M326.107 237.948L329.477 242.023L329.489 242.038C329.534 242.092 329.568 242.155 329.589 242.222C329.609 242.289 329.617 242.36 329.61 242.43C329.603 242.5 329.583 242.568 329.55 242.63C329.517 242.693 329.472 242.748 329.418 242.793C329.364 242.837 329.301 242.871 329.234 242.892C329.167 242.912 329.096 242.92 329.026 242.913C328.956 242.906 328.888 242.886 328.826 242.853C328.763 242.82 328.708 242.775 328.663 242.721L328.656 242.712L325.354 238.534C325.276 238.436 325.24 238.311 325.254 238.186C325.268 238.061 325.33 237.947 325.428 237.868C325.525 237.788 325.65 237.751 325.775 237.764C325.9 237.776 326.015 237.837 326.095 237.934L326.107 237.948Z" fill="#020202"/>
<path d="M333.028 245.94L336.731 249.709L336.75 249.728C336.894 249.876 336.974 250.074 336.972 250.28C336.97 250.487 336.887 250.684 336.74 250.828C336.592 250.973 336.394 251.053 336.188 251.051C335.982 251.05 335.785 250.966 335.64 250.819L335.613 250.791L332.07 246.804C331.958 246.678 331.9 246.514 331.907 246.346C331.915 246.178 331.988 246.02 332.111 245.905C332.233 245.79 332.396 245.728 332.564 245.731C332.732 245.734 332.892 245.803 333.01 245.923L333.028 245.94Z" fill="#020202"/>
<path d="M340.571 253.33L344.54 256.804L344.569 256.829C344.675 256.922 344.763 257.035 344.826 257.162C344.889 257.289 344.926 257.427 344.935 257.568C344.945 257.709 344.927 257.851 344.881 257.985C344.836 258.119 344.765 258.243 344.671 258.35C344.578 258.456 344.465 258.543 344.338 258.606C344.211 258.669 344.073 258.706 343.932 258.715C343.79 258.724 343.649 258.705 343.515 258.66C343.381 258.614 343.257 258.543 343.151 258.449C343.136 258.436 343.119 258.421 343.105 258.407L339.292 254.661C339.121 254.493 339.022 254.265 339.016 254.025C339.011 253.785 339.098 253.553 339.261 253.377C339.424 253.2 339.649 253.095 339.889 253.082C340.128 253.069 340.363 253.149 340.544 253.307L340.571 253.33Z" fill="#020202"/>
<path d="M348.605 260.157L352.767 263.377L352.802 263.404C353.073 263.615 353.25 263.925 353.293 264.266C353.336 264.607 353.243 264.951 353.032 265.223C352.822 265.495 352.512 265.672 352.171 265.716C351.831 265.76 351.486 265.667 351.214 265.457L351.176 265.426L347.073 261.995C346.833 261.794 346.681 261.507 346.65 261.195C346.619 260.884 346.711 260.573 346.907 260.329C347.103 260.085 347.387 259.927 347.698 259.89C348.009 259.853 348.322 259.939 348.57 260.13L348.605 260.157Z" fill="#020202"/>
<path d="M357.028 266.461L361.373 269.423L361.413 269.45C361.729 269.665 361.946 269.997 362.017 270.373C362.089 270.748 362.008 271.137 361.792 271.453C361.577 271.769 361.245 271.986 360.869 272.057C360.494 272.128 360.105 272.047 359.789 271.832L359.764 271.814L355.406 268.704C355.11 268.492 354.909 268.173 354.847 267.814C354.785 267.455 354.867 267.086 355.075 266.788C355.283 266.489 355.601 266.284 355.959 266.218C356.317 266.152 356.686 266.229 356.987 266.434L357.028 266.461Z" fill="#020202"/>
<path d="M365.814 272.237L370.345 274.905L370.388 274.93C370.565 275.034 370.719 275.171 370.843 275.334C370.967 275.497 371.057 275.683 371.108 275.882C371.16 276.08 371.172 276.286 371.143 276.489C371.115 276.692 371.047 276.887 370.943 277.063C370.839 277.24 370.702 277.394 370.538 277.517C370.374 277.64 370.188 277.73 369.99 277.781C369.792 277.832 369.585 277.844 369.382 277.815C369.18 277.786 368.985 277.717 368.808 277.613L368.78 277.596L364.224 274.778C363.888 274.571 363.648 274.239 363.555 273.856C363.462 273.473 363.525 273.068 363.728 272.73C363.932 272.392 364.26 272.148 364.643 272.051C365.025 271.954 365.43 272.012 365.771 272.211L365.814 272.237Z" fill="#020202"/>
<path d="M374.957 277.428L379.625 279.85L379.669 279.873C379.858 279.97 380.026 280.104 380.163 280.267C380.301 280.43 380.404 280.618 380.469 280.821C380.533 281.023 380.557 281.237 380.539 281.449C380.521 281.661 380.461 281.868 380.363 282.057C380.265 282.246 380.131 282.413 379.968 282.55C379.805 282.687 379.616 282.791 379.413 282.855C379.21 282.919 378.997 282.942 378.785 282.924C378.573 282.905 378.366 282.845 378.178 282.746L378.174 282.744L373.425 280.264C373.047 280.066 372.763 279.726 372.636 279.318C372.508 278.911 372.547 278.47 372.745 278.091C372.943 277.713 373.282 277.428 373.69 277.3C374.097 277.172 374.538 277.21 374.917 277.407L374.957 277.428Z" fill="#020202"/>
<path d="M384.363 282.133L389.148 284.322L389.19 284.341C389.567 284.514 389.861 284.829 390.008 285.217C390.154 285.606 390.141 286.036 389.972 286.415C389.802 286.794 389.49 287.091 389.103 287.241C388.716 287.391 388.285 287.382 387.905 287.216L382.997 285.075C382.801 284.99 382.624 284.868 382.476 284.714C382.327 284.561 382.211 284.38 382.133 284.181C382.055 283.983 382.016 283.771 382.02 283.558C382.024 283.344 382.07 283.134 382.155 282.938C382.241 282.743 382.364 282.566 382.517 282.418C382.671 282.27 382.852 282.154 383.051 282.076C383.25 281.998 383.462 281.961 383.675 281.965C383.888 281.969 384.099 282.016 384.294 282.101L384.313 282.11L384.363 282.133Z" fill="#020202"/>
<path d="M393.993 286.373L398.886 288.32L398.923 288.335C399.276 288.476 399.561 288.75 399.714 289.099C399.867 289.447 399.877 289.842 399.741 290.198C399.606 290.554 399.336 290.842 398.989 291C398.643 291.158 398.248 291.174 397.891 291.044L392.866 289.214C392.677 289.145 392.504 289.04 392.356 288.905C392.207 288.769 392.087 288.606 392.002 288.424C391.917 288.242 391.869 288.045 391.86 287.844C391.851 287.643 391.882 287.443 391.951 287.254C392.019 287.065 392.125 286.892 392.261 286.744C392.396 286.596 392.56 286.476 392.742 286.391C392.925 286.306 393.122 286.259 393.322 286.25C393.523 286.242 393.724 286.273 393.912 286.342L393.948 286.356L393.993 286.373Z" fill="#020202"/>
<path d="M403.83 290.146L408.816 291.87L408.846 291.88C409.155 291.987 409.409 292.21 409.555 292.502C409.701 292.794 409.726 293.131 409.626 293.442C409.526 293.752 409.309 294.011 409.02 294.164C408.731 294.316 408.395 294.349 408.082 294.255L402.963 292.729C402.616 292.625 402.325 292.389 402.153 292.071C401.981 291.753 401.943 291.38 402.046 291.033C402.149 290.687 402.386 290.396 402.704 290.224C403.022 290.052 403.395 290.013 403.742 290.117L403.792 290.133L403.83 290.146Z" fill="#020202"/>
<path d="M413.845 293.479L418.905 295.011L418.926 295.017C419.164 295.089 419.364 295.251 419.484 295.468C419.605 295.684 419.636 295.94 419.572 296.179C419.508 296.419 419.353 296.624 419.14 296.751C418.927 296.879 418.673 296.918 418.431 296.862L413.237 295.642C413.093 295.609 412.958 295.547 412.838 295.461C412.718 295.375 412.616 295.266 412.538 295.14C412.461 295.015 412.408 294.875 412.384 294.729C412.361 294.584 412.366 294.435 412.399 294.291C412.433 294.147 412.495 294.011 412.581 293.892C412.667 293.772 412.776 293.67 412.902 293.592C413.027 293.514 413.167 293.462 413.312 293.438C413.458 293.415 413.607 293.42 413.751 293.453C413.773 293.459 413.795 293.464 413.816 293.471L413.845 293.479Z" fill="#020202"/>
<path d="M423.999 296.424C425.709 296.856 427.42 297.287 429.126 297.749L429.139 297.752C429.286 297.792 429.413 297.887 429.492 298.018C429.571 298.149 429.597 298.305 429.564 298.454C429.531 298.603 429.442 298.734 429.316 298.819C429.189 298.905 429.034 298.938 428.884 298.912C427.134 298.615 425.39 298.286 423.644 297.958C423.543 297.939 423.446 297.9 423.359 297.843C423.272 297.787 423.198 297.714 423.139 297.628C423.081 297.543 423.04 297.447 423.019 297.346C422.998 297.244 422.996 297.14 423.015 297.038C423.035 296.937 423.074 296.84 423.13 296.753C423.187 296.666 423.26 296.592 423.345 296.533C423.43 296.475 423.527 296.434 423.628 296.413C423.729 296.392 423.833 296.39 423.935 296.41C423.95 296.412 423.965 296.416 423.98 296.419L423.999 296.424Z" fill="#020202"/>
<path d="M434.28 299L438.5 299.966C438.519 299.97 438.538 299.978 438.554 299.989C438.571 300.001 438.585 300.015 438.595 300.032C438.606 300.048 438.614 300.067 438.617 300.087C438.621 300.106 438.621 300.126 438.617 300.146C438.608 300.183 438.586 300.215 438.556 300.237C438.525 300.259 438.487 300.269 438.449 300.265L434.146 299.716C434.051 299.704 433.964 299.654 433.905 299.577C433.846 299.501 433.82 299.404 433.832 299.308C433.844 299.213 433.894 299.126 433.97 299.066C434.046 299.007 434.143 298.981 434.239 298.992L434.273 298.999L434.28 299Z" fill="#020202"/>
<path d="M283.664 449.317C283.587 450.085 283.653 450.861 283.859 451.605C284.017 452.382 284.242 453.149 284.466 453.912C284.93 455.437 285.506 456.93 286.062 458.427C286.691 459.975 287.102 461.603 287.286 463.263C287.453 464.995 287.206 466.741 286.565 468.358C286.528 468.447 286.475 468.529 286.408 468.599L286.384 468.623L286.375 468.633L286.56 468.356L286.405 468.734C286.344 468.881 286.242 469.008 286.111 469.098C285.979 469.188 285.824 469.237 285.665 469.24L285.618 469.24L285.608 469.241L286.384 468.757C286.101 469.355 285.758 469.923 285.361 470.453C285.159 470.72 284.943 470.976 284.712 471.218C284.467 471.481 284.199 471.722 283.913 471.939L284.312 471.22C284.261 473.114 284.184 475.006 284.108 476.899C284.026 478.791 283.973 480.684 283.866 482.575C283.85 482.835 283.737 483.08 283.548 483.26C283.359 483.44 283.109 483.542 282.848 483.545C279.491 483.573 276.104 483.561 272.732 483.47L262.613 483.241L262.579 483.24C262.447 483.237 262.32 483.183 262.226 483.089C262.132 482.995 262.078 482.869 262.075 482.736C262.044 481.439 262.02 480.141 261.966 478.845C261.915 477.549 261.884 476.252 261.813 474.957L262.294 475.283L259.558 476.175L259.6 476.158C256.978 477.382 254.294 478.466 251.557 479.405C248.83 480.381 246.054 481.216 243.241 481.905C240.417 482.625 237.544 483.132 234.644 483.422C231.718 483.707 228.772 483.706 225.846 483.42L225.968 483.427L225.958 483.427L225.935 483.427C225.899 483.428 225.863 483.425 225.826 483.419C224.261 483.218 222.712 482.912 221.187 482.503C220.394 482.328 219.619 482.078 218.872 481.758C218.006 481.419 217.224 480.896 216.58 480.225C216.385 480.013 216.224 479.773 216.101 479.513C216.035 479.373 215.974 479.23 215.917 479.086C215.878 478.93 215.848 478.772 215.828 478.612C215.761 478.013 215.866 477.406 216.129 476.864C216.564 476.045 217.162 475.325 217.887 474.747C219.135 473.723 220.495 472.845 221.941 472.129C224.733 470.677 227.697 469.585 230.762 468.878C232.316 468.516 233.768 468.275 235.224 467.91C236.668 467.568 238.156 467.185 239.53 466.751L239.888 466.689C239.745 466.683 239.603 466.715 239.476 466.781L239.948 466.67L239.968 466.671L239.632 466.725C241.889 466.013 244.086 465.123 246.202 464.063C248.293 462.989 250.244 461.661 252.009 460.108C253.764 458.542 255.186 456.639 256.192 454.513C257.215 452.36 257.661 449.978 257.487 447.6L257.486 447.587C257.483 447.558 257.491 447.53 257.509 447.507C257.527 447.484 257.553 447.469 257.581 447.465C257.61 447.46 257.639 447.467 257.663 447.483C257.687 447.5 257.703 447.525 257.709 447.553C258.159 450.005 257.928 452.533 257.043 454.863C256.149 457.21 254.773 459.344 253.003 461.126C251.252 462.912 249.256 464.44 247.074 465.663C244.902 466.862 242.638 467.887 240.304 468.728C240.216 468.761 240.122 468.779 240.028 468.781L239.968 468.782L239.948 468.783L240.42 468.672C240.254 468.752 240.073 468.797 239.889 468.804L240.246 468.742C238.733 469.281 237.288 469.729 235.777 470.128C234.284 470.53 232.733 470.821 231.327 471.178C228.464 471.904 225.69 472.944 223.056 474.28C221.772 474.921 220.552 475.683 219.413 476.555C218.931 476.915 218.523 477.364 218.21 477.879C218.044 478.311 218.046 478.388 218.304 478.757C218.725 479.18 219.226 479.514 219.779 479.738C220.427 480.03 221.101 480.261 221.792 480.426C223.202 480.837 224.638 481.154 226.09 481.374L225.958 481.366L225.968 481.366L226.001 481.366C226.031 481.367 226.061 481.369 226.09 481.373C228.883 481.746 231.705 481.852 234.519 481.692C237.358 481.558 240.185 481.224 242.978 480.692C245.79 480.169 248.566 479.476 251.294 478.617C254.02 477.749 256.692 476.721 259.296 475.535L259.301 475.533L259.339 475.518L262.062 474.59C262.154 474.559 262.254 474.565 262.34 474.608C262.427 474.65 262.493 474.725 262.524 474.817C262.535 474.849 262.541 474.882 262.543 474.916C262.615 476.211 262.728 477.504 262.82 478.798C262.91 480.092 263.029 481.384 263.142 482.677L262.604 482.172L272.724 481.765C276.098 481.616 279.458 481.545 282.848 481.508L281.831 482.478C281.904 480.586 282.03 478.696 282.128 476.804C282.232 474.913 282.335 473.022 282.464 471.133L282.465 471.112C282.475 470.973 282.516 470.838 282.585 470.718C282.654 470.597 282.749 470.493 282.864 470.414C283.059 470.271 283.243 470.114 283.414 469.943C283.603 469.756 283.782 469.559 283.95 469.353C284.289 468.931 284.584 468.477 284.832 467.997L284.848 467.966C284.92 467.828 285.029 467.711 285.163 467.631C285.298 467.551 285.452 467.51 285.608 467.512L285.618 467.513L284.832 468.019L284.976 467.697L284.993 467.661C285.034 467.571 285.091 467.489 285.162 467.42L285.172 467.41L284.992 467.675C285.611 466.318 285.905 464.835 285.851 463.344C285.768 461.796 285.473 460.268 284.974 458.801C284.479 457.259 284.092 455.682 283.749 454.095C283.593 453.297 283.438 452.5 283.35 451.687C283.304 451.279 283.281 450.869 283.28 450.459C283.257 450.029 283.322 449.6 283.472 449.196C283.482 449.171 283.502 449.152 283.526 449.141C283.55 449.129 283.578 449.128 283.603 449.136C283.629 449.144 283.65 449.161 283.664 449.184C283.677 449.207 283.682 449.234 283.676 449.261L283.664 449.317Z" fill="#020202"/>
<path d="M257.598 450.79C259.631 451.78 261.754 452.572 263.94 453.154C266.084 453.736 268.288 454.066 270.509 454.137C272.725 454.239 274.944 454.061 277.115 453.608C278.216 453.398 279.305 453.126 280.375 452.793C281.467 452.495 282.496 452.02 283.612 451.691C282.665 452.353 281.676 452.952 280.651 453.485C279.608 454.003 278.52 454.429 277.402 454.757C276.281 455.105 275.133 455.357 273.97 455.509C273.39 455.612 272.798 455.592 272.212 455.639L271.331 455.685L270.45 455.652C268.101 455.57 265.781 455.105 263.581 454.277C261.389 453.493 259.36 452.31 257.598 450.79Z" fill="#020202"/>
<path d="M272.688 482.257L274.028 482.607L262.608 482.707L262.178 474.937L259.448 475.846C259.448 475.846 243.318 483.716 227.978 482.596C227.308 482.546 226.638 482.477 225.968 482.397H225.958C224.958 482.277 223.958 482.107 222.968 481.887C222.018 481.685 221.083 481.422 220.168 481.096C219.968 481.026 219.788 480.957 219.618 480.887C219.299 480.76 218.988 480.613 218.688 480.447C214.738 478.307 218.168 475.507 222.148 473.387C225.437 471.658 228.956 470.409 232.598 469.677C234.802 469.231 236.982 468.67 239.128 467.997C239.388 467.917 239.638 467.837 239.888 467.747C239.909 467.744 239.93 467.738 239.948 467.727H239.968C242.492 467.841 244.94 468.621 247.065 469.987C249.191 471.353 250.916 473.258 252.068 475.507C265.868 469.517 270.788 472.137 271.878 472.967C270.435 473.75 269.155 474.802 268.108 476.067C267.645 476.754 267.441 477.584 267.532 478.408C267.624 479.232 268.005 479.997 268.608 480.567C269.007 480.901 269.452 481.177 269.928 481.387C270.818 481.764 271.742 482.055 272.688 482.257Z" fill="#020202"/>
<path d="M283.448 468.996C284.168 468.786 284.888 468.586 285.608 468.376C285.099 469.472 284.338 470.431 283.388 471.176L282.838 482.526L278.618 482.566C277.618 482.446 276.608 482.286 275.618 482.096C275.158 482.006 274.708 481.916 274.258 481.806L272.918 481.426C272.025 481.221 271.154 480.93 270.318 480.556C269.929 480.389 269.568 480.163 269.248 479.886C268.965 479.609 268.749 479.271 268.618 478.896C268.487 478.522 268.447 478.122 268.501 477.729C268.555 477.336 268.701 476.962 268.928 476.636C270.117 475.262 271.547 474.117 273.148 473.256C274.751 472.311 276.419 471.479 278.138 470.766C279.861 470.042 281.636 469.451 283.448 468.996Z" fill="#020202"/>
<path d="M286.588 463.977C286.6 465.365 286.324 466.74 285.778 468.017L285.768 468.027C283.08 468.478 280.434 469.154 277.858 470.047C276.064 470.697 274.333 471.51 272.688 472.477C272.598 472.527 272.508 472.587 272.418 472.637C275.798 466.727 285.998 460.077 285.998 460.077C286.028 460.197 286.068 460.317 286.098 460.437C286.208 460.857 286.298 461.257 286.368 461.647L286.538 462.927C286.548 463.057 286.558 463.177 286.568 463.297L286.588 463.977Z" fill="#020202"/>
<path d="M309.079 447.551C309.486 449.657 309.365 451.832 308.727 453.881C308.433 454.919 308.031 455.923 307.528 456.877C307.006 457.823 306.401 458.72 305.722 459.56C305.396 459.991 305.05 460.406 304.683 460.803L303.525 461.932C302.744 462.675 301.909 463.358 301.028 463.979L300.379 464.462C300.153 464.607 299.919 464.735 299.689 464.873L298.3 465.685C297.381 466.233 296.423 466.714 295.435 467.125C293.488 467.991 291.49 468.737 289.452 469.358C287.422 469.913 285.305 470.402 283.307 470.85C279.304 471.667 275.454 473.111 271.901 475.127C271.043 475.613 270.256 476.213 269.56 476.912C268.912 477.608 268.566 478.396 269.085 479.068C269.721 479.789 270.539 480.327 271.453 480.626C272.409 480.998 273.392 481.296 274.394 481.518C278.453 482.369 282.624 482.558 286.744 482.075C290.859 481.582 294.918 480.693 298.863 479.421C302.798 478.19 306.643 476.686 310.368 474.918C310.403 474.9 310.439 474.885 310.476 474.872L310.494 474.866L313.206 473.928C313.359 473.875 313.522 473.858 313.683 473.878C313.843 473.898 313.997 473.955 314.132 474.044C314.267 474.133 314.38 474.252 314.462 474.392C314.544 474.531 314.592 474.688 314.604 474.849L314.606 474.878L315.128 482.641L313.969 481.555C317.34 481.477 320.713 481.426 324.085 481.401C327.457 481.349 330.83 481.385 334.202 481.376L333.063 482.471C333.161 480.58 333.311 478.692 333.434 476.803L333.821 471.135C333.831 470.993 333.871 470.856 333.939 470.731C334.007 470.607 334.102 470.498 334.216 470.414L334.226 470.406C334.889 469.889 335.454 469.257 335.892 468.54C336.349 467.785 336.692 466.967 336.912 466.112C337.338 464.325 337.33 462.462 336.888 460.679L336.527 459.317L336.103 457.917C335.831 456.977 335.587 456.03 335.359 455.078C335.141 454.123 334.94 453.163 334.8 452.189C334.726 451.701 334.681 451.209 334.664 450.716C334.618 450.203 334.679 449.686 334.843 449.198C334.854 449.172 334.874 449.152 334.899 449.14C334.924 449.129 334.953 449.127 334.979 449.136C335.006 449.145 335.028 449.164 335.041 449.189C335.054 449.213 335.057 449.242 335.05 449.269L335.036 449.319C334.959 449.772 334.964 450.234 335.051 450.684C335.116 451.155 335.219 451.625 335.323 452.092C335.543 453.026 335.824 453.948 336.121 454.864C336.425 455.778 336.756 456.684 337.094 457.588L337.604 458.944L338.083 460.37C338.703 462.34 338.841 464.429 338.487 466.463C338.297 467.508 337.934 468.514 337.412 469.439C336.875 470.406 336.157 471.26 335.296 471.954L335.701 471.226L335.54 476.904C335.48 478.797 335.447 480.691 335.363 482.582C335.35 482.874 335.226 483.149 335.017 483.353C334.808 483.556 334.529 483.673 334.238 483.678L334.223 483.678C330.851 483.729 327.479 483.824 324.106 483.832C320.734 483.868 317.362 483.877 313.989 483.857L313.96 483.857C313.668 483.855 313.388 483.741 313.178 483.539C312.968 483.337 312.843 483.062 312.829 482.77L312.48 474.997L313.88 475.947L311.147 476.825L311.273 476.773C303.53 480.197 295.26 482.277 286.819 482.922C282.613 483.288 278.376 483.056 274.236 482.232C273.195 482.016 272.167 481.738 271.16 481.399C270.071 481.074 269.086 480.47 268.302 479.648C268.095 479.391 267.942 479.094 267.853 478.776C267.773 478.445 267.767 478.1 267.836 477.765C267.979 477.167 268.264 476.612 268.668 476.148C269.392 475.312 270.229 474.58 271.154 473.973C274.721 471.592 278.685 469.868 282.86 468.883C284.934 468.414 286.877 467.909 288.888 467.42C290.852 466.85 292.782 466.168 294.668 465.375C295.621 465.018 296.548 464.591 297.439 464.099L298.781 463.376C299.003 463.253 299.231 463.139 299.449 463.01L300.072 462.578C300.932 462.047 301.753 461.453 302.526 460.801L303.673 459.811C304.037 459.462 304.382 459.095 304.708 458.711C306.08 457.222 307.162 455.489 307.898 453.602C308.668 451.699 308.995 449.646 308.856 447.598L308.855 447.586C308.852 447.557 308.861 447.529 308.879 447.506C308.896 447.483 308.922 447.468 308.95 447.464C308.979 447.459 309.008 447.466 309.032 447.482C309.055 447.498 309.072 447.523 309.079 447.551L309.079 447.551Z" fill="#020202"/>
<path d="M308.967 450.79C311 451.78 313.124 452.572 315.309 453.154C317.453 453.736 319.658 454.066 321.879 454.137C324.094 454.239 326.314 454.061 328.485 453.608C329.586 453.398 330.674 453.126 331.745 452.793C332.837 452.495 333.866 452.02 334.981 451.691C334.035 452.353 333.046 452.952 332.021 453.485C330.977 454.003 329.89 454.429 328.771 454.757C327.651 455.105 326.503 455.357 325.339 455.509C324.76 455.612 324.168 455.592 323.582 455.639L322.701 455.685L321.82 455.652C319.47 455.57 317.15 455.105 314.95 454.277C312.758 453.493 310.73 452.31 308.967 450.79Z" fill="#020202"/>
<path d="M290.594 467.686C293.248 467.678 295.852 468.403 298.118 469.783C300.385 471.162 302.226 473.141 303.437 475.502C319.43 468.562 323.495 473.175 323.495 473.175C326.539 467.139 337.363 460.074 337.363 460.074L337.363 460.078C339.599 467.839 334.76 471.178 334.76 471.178L334.208 482.53L313.982 482.705L313.546 474.933L310.817 475.843C310.817 475.843 290.949 485.54 274.342 481.882C264.48 479.704 268.564 476.027 273.519 473.385C276.808 471.655 280.328 470.407 283.971 469.678C286.461 469.179 288.917 468.526 291.326 467.723H291.336" fill="#020202"/>
<path d="M296.417 129.237C297.23 128.572 298.067 127.947 298.929 127.363L299.576 126.926C299.812 126.772 300.061 126.64 300.321 126.533C300.848 126.324 301.409 126.217 301.975 126.219C304.062 126.201 306.146 126.328 308.215 126.598C306.146 126.869 304.062 126.995 301.975 126.977C301.499 126.966 301.024 127.042 300.575 127.202C300.111 127.388 299.664 127.61 299.236 127.867C298.321 128.365 297.382 128.822 296.417 129.237Z" fill="#020202"/>
<path d="M304.379 121.487C305.028 121.405 305.681 121.37 306.335 121.384C306.659 121.381 306.981 121.405 307.304 121.416C307.654 121.439 308 121.505 308.334 121.614C308.663 121.73 308.978 121.885 309.27 122.076C309.537 122.259 309.81 122.429 310.07 122.624C310.604 123.001 311.109 123.417 311.582 123.868C310.96 123.668 310.353 123.423 309.767 123.133C309.472 122.999 309.191 122.839 308.903 122.693C308.646 122.544 308.374 122.423 308.092 122.332C307.814 122.233 307.526 122.165 307.233 122.129C306.914 122.076 306.594 122.037 306.276 121.97C305.633 121.856 304.999 121.694 304.379 121.487Z" fill="#020202"/>
<path d="M299.169 125.096C299.815 124.769 300.481 124.485 301.164 124.246C301.849 123.984 302.553 123.776 303.269 123.621C303.657 123.571 304.049 123.574 304.436 123.629C304.814 123.703 305.147 123.767 305.501 123.857C306.207 124.018 306.901 124.227 307.578 124.482C306.855 124.517 306.131 124.503 305.41 124.441C304.737 124.336 304.053 124.312 303.375 124.372C303.037 124.426 302.702 124.5 302.373 124.592C302.022 124.667 301.674 124.754 301.32 124.814C300.61 124.956 299.891 125.05 299.169 125.096Z" fill="#020202"/>
<path d="M444.145 328.441C443.835 326.577 443.744 324.684 443.874 322.799C443.914 322.081 444.001 321.366 444.135 320.66C438.28 319.886 432.425 319.112 426.57 318.221L417.773 316.886C414.841 316.392 411.908 315.947 408.986 315.405L408.966 325.17L444.842 331.238C444.521 330.33 444.288 329.393 444.145 328.441ZM438.474 300.114L408.986 315.405C411.947 315.628 414.899 315.937 417.861 316.199L426.716 317.137C432.542 317.747 438.358 318.483 444.164 319.208L452.168 315.066C454.917 313.673 457.655 312.25 460.423 310.895L468.707 306.802C471.494 305.485 474.252 304.121 477.059 302.843L438.474 300.114ZM429.919 311.815C430.183 312.227 430.513 312.593 430.896 312.898C431.723 313.561 432.651 314.087 433.644 314.457C435.711 315.251 437.896 315.696 440.109 315.773C442.356 315.882 444.606 315.604 446.758 314.95C447.837 314.614 448.852 314.097 449.758 313.421C450.202 313.071 450.587 312.653 450.9 312.182C451.123 311.82 451.277 311.42 451.355 311.002C451.293 311.427 451.145 311.836 450.919 312.202C450.616 312.682 450.233 313.108 449.787 313.46C448.897 314.176 447.897 314.745 446.826 315.144C444.678 315.968 442.408 316.426 440.109 316.499C437.78 316.611 435.449 316.32 433.219 315.637C432.063 315.268 430.977 314.709 430.006 313.982C429.499 313.582 429.061 313.102 428.709 312.56C428.312 311.976 428.099 311.287 428.099 310.581C428.099 309.875 428.312 309.185 428.709 308.602C429.061 308.057 429.503 307.576 430.015 307.179C430.98 306.45 432.064 305.894 433.219 305.534C435.448 304.846 437.78 304.555 440.109 304.672C442.408 304.742 444.678 305.196 446.826 306.018C447.897 306.417 448.897 306.985 449.787 307.702C450.233 308.057 450.616 308.486 450.919 308.969C451.146 309.331 451.295 309.737 451.355 310.16C451.276 309.742 451.122 309.342 450.9 308.979C450.584 308.511 450.2 308.093 449.758 307.74C448.852 307.065 447.837 306.547 446.758 306.211C444.607 305.553 442.357 305.274 440.109 305.389C437.896 305.461 435.71 305.906 433.644 306.705C432.649 307.07 431.721 307.597 430.896 308.263C430.513 308.568 430.183 308.934 429.919 309.347C429.679 309.713 429.551 310.142 429.551 310.581C429.551 311.019 429.679 311.448 429.919 311.815V311.815ZM469.036 307.44L460.945 311.902C458.246 313.402 455.516 314.824 452.807 316.295L444.629 320.592C444.6 320.612 444.561 320.621 444.532 320.641C444.738 321.332 444.894 322.037 444.997 322.75C445.306 324.614 445.396 326.508 445.268 328.393C445.226 329.353 445.083 330.307 444.842 331.238L477.059 317.041V302.843C474.407 304.421 471.707 305.911 469.036 307.44H469.036Z" fill="#020202"/>
<path d="M441.387 300.116C441.07 299.114 440.827 298.091 440.661 297.054C440.65 296.991 440.651 296.927 440.665 296.865C440.679 296.803 440.704 296.744 440.741 296.692C440.777 296.64 440.823 296.596 440.877 296.562C440.931 296.528 440.99 296.505 441.053 296.494L441.083 296.489L441.205 296.476C443.624 296.219 446.062 296.194 448.485 296.404L448.591 296.413C448.739 296.425 448.877 296.496 448.973 296.61C449.069 296.724 449.115 296.871 449.103 297.019L449.103 297.021C449.007 298.304 448.8 299.577 448.485 300.824C448.17 299.577 447.964 298.304 447.868 297.021L448.485 297.639C446.062 297.849 443.624 297.824 441.205 297.567L441.749 296.99C441.705 298.039 441.584 299.084 441.387 300.116Z" fill="#020202"/>
<path d="M461.772 301.309C461.455 300.307 461.213 299.284 461.046 298.247C461.035 298.184 461.036 298.12 461.05 298.058C461.064 297.996 461.09 297.938 461.126 297.886C461.162 297.834 461.209 297.789 461.262 297.755C461.316 297.721 461.375 297.698 461.438 297.687L461.469 297.682L461.59 297.669C464.009 297.412 466.447 297.387 468.87 297.597L468.976 297.606C469.05 297.612 469.121 297.633 469.187 297.667C469.252 297.701 469.31 297.747 469.358 297.803C469.405 297.86 469.441 297.925 469.464 297.995C469.486 298.065 469.494 298.139 469.488 298.213L469.488 298.215C469.392 299.498 469.186 300.77 468.871 302.017C468.555 300.77 468.349 299.498 468.253 298.215L468.87 298.832C466.447 299.042 464.009 299.017 461.59 298.76L462.134 298.183C462.09 299.232 461.969 300.277 461.772 301.309Z" fill="#020202"/>
<path d="M408.98 317.702C404.964 318.371 400.975 319.175 397.036 320.122C393.114 320.997 389.287 322.259 385.614 323.89C383.873 324.606 382.329 325.726 381.11 327.159C380.875 327.459 380.706 327.804 380.612 328.173C380.518 328.541 380.503 328.925 380.566 329.301C380.773 330.12 381.189 330.871 381.774 331.481C383.05 332.889 384.598 334.024 386.325 334.817C388.125 335.638 389.988 336.313 391.897 336.836C395.786 337.926 399.739 338.773 403.733 339.374C407.738 340.017 411.78 340.493 415.834 340.806C423.951 341.371 432.093 341.499 440.224 341.188C448.352 340.884 456.462 340.389 464.555 339.702C468.598 339.351 472.633 338.92 476.648 338.383C480.66 337.84 484.665 337.251 488.61 336.443C490.583 336.049 492.542 335.605 494.457 335.06C496.344 334.559 498.176 333.869 499.925 333.001C500.694 332.633 501.376 332.105 501.924 331.452C502.022 331.329 502.099 331.19 502.151 331.041C502.211 330.846 502.257 330.647 502.288 330.445C502.345 330.238 502.372 330.025 502.368 329.811C502.382 329.601 502.384 329.39 502.376 329.179C502.245 328.297 501.936 327.451 501.468 326.692C501 325.933 500.383 325.276 499.654 324.762C496.634 322.383 492.763 320.932 488.923 319.781C485.027 318.648 481.061 317.771 477.05 317.156C477.036 317.154 477.021 317.149 477.008 317.142C476.995 317.134 476.984 317.124 476.975 317.112C476.966 317.1 476.959 317.087 476.955 317.072C476.952 317.058 476.951 317.043 476.953 317.028C476.957 317 476.972 316.974 476.993 316.956C477.015 316.938 477.043 316.929 477.072 316.929C479.114 317.041 481.145 317.263 483.171 317.553C485.196 317.84 487.219 318.187 489.217 318.669C491.231 319.133 493.213 319.722 495.153 320.433C497.151 321.137 499.037 322.124 500.754 323.364C501.651 324.027 502.439 324.826 503.088 325.733C503.775 326.698 504.21 327.819 504.353 328.995C504.411 329.586 504.393 330.182 504.3 330.768C504.262 331.07 504.202 331.369 504.119 331.661C504.017 331.998 503.864 332.317 503.665 332.608C502.962 333.567 502.051 334.355 501 334.911C499.137 335.93 497.162 336.731 495.116 337.297C493.122 337.898 491.114 338.385 489.1 338.819C481.049 340.365 472.905 341.373 464.721 341.836C456.567 342.404 448.396 342.566 440.236 342.434C432.075 342.311 423.925 342.014 415.785 341.542C407.649 341.036 399.468 340.574 391.405 338.665C389.365 338.183 387.375 337.508 385.462 336.65C384.471 336.198 383.528 335.648 382.646 335.009C381.769 334.359 380.965 333.618 380.247 332.796C379.437 331.909 378.876 330.822 378.623 329.647C378.522 329.015 378.551 328.368 378.708 327.747C378.866 327.126 379.148 326.543 379.538 326.035C380.979 324.362 382.815 323.074 384.878 322.288C388.716 320.748 392.709 319.631 396.788 318.955C398.799 318.566 400.827 318.287 402.856 318.04C404.884 317.793 406.915 317.585 408.956 317.476C408.987 317.474 409.016 317.484 409.039 317.505C409.061 317.525 409.075 317.553 409.076 317.583C409.077 317.611 409.068 317.639 409.051 317.661C409.033 317.683 409.008 317.697 408.98 317.702Z" fill="#020202"/>
<path d="M280.369 139.636C280.438 137.67 280.695 135.821 280.899 133.959C281.014 133.032 281.095 132.107 281.199 131.175L281.424 128.323C282.184 130.149 282.433 132.146 282.145 134.102C282.027 135.069 281.825 136.024 281.541 136.956C281.269 137.897 280.875 138.798 280.369 139.636Z" fill="#020202"/>
<path d="M297.035 126.734C295.244 128.687 292.909 130.06 290.331 130.675C287.753 131.29 285.05 131.12 282.57 130.185C280.072 129.174 277.973 127.373 276.596 125.056C276.25 124.483 275.955 123.881 275.714 123.257L275.402 122.351C275.288 122.061 275.161 121.735 275.066 121.412C274.733 120.127 274.601 118.799 274.675 117.475C274.948 112.302 275.995 107.2 277.781 102.338C278.844 99.9732 280.077 97.6884 281.472 95.5023C282.828 93.2806 284.402 91.2004 286.173 89.2932C286.234 89.2282 286.312 89.1805 286.397 89.155C286.483 89.1294 286.574 89.1269 286.661 89.1477C286.748 89.1685 286.828 89.2119 286.893 89.2734C286.957 89.3349 287.005 89.4124 287.03 89.4982L287.035 89.5144C287.662 91.6442 288.434 93.7285 289.347 95.7524C290.227 97.7844 291.28 99.7373 292.493 101.59C293.681 103.428 295.167 105.055 296.89 106.405C298.6 107.737 300.723 108.429 302.889 108.36L302.617 108.501C303.193 107.836 303.873 107.267 304.629 106.816C305.026 106.582 305.467 106.431 305.925 106.372C306.166 106.342 306.411 106.361 306.645 106.426C306.88 106.492 307.099 106.603 307.29 106.753C307.933 107.373 308.352 108.189 308.481 109.073C308.65 109.9 308.751 110.74 308.782 111.584C308.782 111.591 308.781 111.599 308.779 111.605C308.776 111.612 308.773 111.618 308.768 111.624C308.763 111.629 308.757 111.633 308.751 111.636C308.744 111.639 308.737 111.641 308.73 111.641C308.716 111.642 308.703 111.637 308.693 111.628C308.682 111.619 308.675 111.607 308.673 111.593C308.579 110.767 308.416 109.95 308.186 109.151C308.014 108.375 307.596 107.675 306.995 107.154C306.674 106.977 306.307 106.901 305.942 106.938C305.577 106.974 305.232 107.121 304.952 107.359C304.291 107.806 303.705 108.354 303.214 108.983C303.183 109.022 303.143 109.055 303.099 109.079C303.055 109.103 303.006 109.119 302.956 109.124L302.941 109.125C300.574 109.296 298.223 108.621 296.309 107.219C294.433 105.858 292.826 104.161 291.57 102.214C290.297 100.318 289.204 98.3087 288.304 96.2104C287.406 94.1193 286.652 91.9686 286.05 89.7736L286.911 89.9948C285.145 91.8283 283.55 93.8197 282.147 95.9439C280.67 98.0267 279.354 100.22 278.212 102.504C276.256 107.252 275.261 112.341 275.284 117.476C275.277 118.727 275.461 119.971 275.83 121.166C275.931 121.455 276.051 121.724 276.187 122.026L276.547 122.928C276.778 123.5 277.059 124.051 277.386 124.575C278.046 125.623 278.859 126.568 279.797 127.377C280.715 128.208 281.767 128.878 282.908 129.359C285.238 130.29 287.789 130.524 290.25 130.032C292.751 129.537 295.07 128.37 296.958 126.657C296.968 126.647 296.982 126.642 296.996 126.643C297.01 126.643 297.023 126.649 297.033 126.659C297.043 126.669 297.048 126.682 297.049 126.696C297.049 126.71 297.044 126.723 297.035 126.734L297.035 126.734Z" fill="#020202"/>
<path d="M276.721 106.167C276.471 104.326 276.428 102.462 276.594 100.611C276.732 98.7346 277.125 96.8858 277.762 95.1156C278.369 93.2571 279.565 91.6468 281.169 90.5281C282.004 90.0089 282.96 89.7166 283.943 89.6802C284.886 89.6869 285.821 89.8644 286.701 90.2041C285.804 90.076 284.893 90.078 283.996 90.2101C283.143 90.3637 282.338 90.7131 281.643 91.2307C280.305 92.3559 279.312 93.8359 278.778 95.5004C278.165 97.1934 277.714 98.9407 277.432 100.719C277.132 102.51 276.889 104.326 276.721 106.167Z" fill="#020202"/>
<path d="M281.532 108.216C281.955 108.201 282.355 108.023 282.649 107.719C282.942 107.415 283.106 107.009 283.106 106.586C283.106 106.164 282.942 105.757 282.649 105.453C282.355 105.149 281.955 104.971 281.532 104.957C281.11 104.971 280.709 105.149 280.416 105.453C280.122 105.757 279.958 106.164 279.958 106.586C279.958 107.009 280.122 107.415 280.416 107.719C280.709 108.023 281.11 108.201 281.532 108.216Z" fill="#020202"/>
<path d="M291.245 110.088C291.667 110.074 292.067 109.896 292.361 109.592C292.655 109.287 292.819 108.881 292.819 108.459C292.819 108.036 292.655 107.63 292.361 107.326C292.067 107.022 291.667 106.844 291.245 106.829C290.822 106.844 290.422 107.022 290.128 107.326C289.835 107.63 289.67 108.036 289.67 108.459C289.67 108.881 289.835 109.287 290.128 109.592C290.422 109.896 290.822 110.074 291.245 110.088Z" fill="#020202"/>
<path d="M278.224 102.055C278.688 101.703 279.233 101.473 279.809 101.388C280.379 101.287 280.963 101.286 281.534 101.386C282.689 101.563 283.731 102.182 284.438 103.112C283.854 103.018 283.351 102.868 282.841 102.759C282.338 102.64 281.845 102.538 281.349 102.455C280.855 102.353 280.354 102.301 279.841 102.232L278.224 102.055Z" fill="#020202"/>
<path d="M290.544 104.151C290.933 103.841 291.396 103.637 291.887 103.558C292.369 103.466 292.863 103.46 293.347 103.541C293.837 103.609 294.307 103.777 294.728 104.035C295.149 104.294 295.512 104.637 295.794 105.043C295.282 105.001 294.854 104.9 294.423 104.83C293.996 104.754 293.585 104.672 293.169 104.612C292.335 104.457 291.517 104.364 290.544 104.151Z" fill="#020202"/>
<path d="M281.697 110.803C282.267 111.538 283.029 112.101 283.898 112.431C284.325 112.602 284.76 112.748 285.203 112.869C285.701 112.987 286.191 113.132 286.673 113.303C286.189 113.55 285.658 113.69 285.115 113.713C284.559 113.735 284.003 113.641 283.486 113.436C282.948 113.22 282.481 112.86 282.134 112.397C281.959 112.174 281.83 111.918 281.755 111.644C281.68 111.37 281.66 111.084 281.697 110.803Z" fill="#020202"/>
<path d="M284.991 123.194C285.451 123.278 285.923 123.262 286.376 123.147C286.829 123.032 287.251 122.821 287.616 122.528C288.292 121.918 288.709 121.072 288.781 120.164C288.874 119.311 288.644 118.454 288.137 117.762C287.627 117.139 286.909 116.722 286.115 116.587C285.322 116.453 284.506 116.61 283.82 117.031C283.114 117.517 282.614 118.249 282.418 119.083C282.185 119.964 282.298 120.9 282.734 121.699C282.981 122.095 283.31 122.434 283.7 122.692C284.089 122.95 284.53 123.121 284.991 123.194ZM284.991 123.194C284.043 123.052 283.187 122.546 282.606 121.783C282.025 120.975 281.766 119.98 281.88 118.992C281.973 117.948 282.464 116.979 283.25 116.286C283.677 115.953 284.168 115.713 284.692 115.58C285.216 115.448 285.763 115.427 286.296 115.517C286.829 115.608 287.338 115.809 287.789 116.107C288.24 116.405 288.624 116.795 288.916 117.25C289.428 118.164 289.571 119.239 289.314 120.255C289.094 121.224 288.521 122.077 287.707 122.648C286.908 123.177 285.933 123.373 284.991 123.194Z" fill="#020202"/>
<path d="M287.553 102.616C287.975 102.601 288.376 102.423 288.669 102.119C288.963 101.815 289.127 101.409 289.127 100.986C289.127 100.563 288.963 100.157 288.669 99.853C288.376 99.5489 287.975 99.3708 287.553 99.3562C287.13 99.3708 286.73 99.5489 286.436 99.853C286.143 100.157 285.979 100.563 285.979 100.986C285.979 101.409 286.143 101.815 286.436 102.119C286.73 102.423 287.13 102.601 287.553 102.616Z" fill="#B21919"/>
<path d="M264.637 144.847C264.34 141.067 264.516 137.264 265.163 133.528C265.494 131.663 265.971 129.828 266.358 127.982C266.564 127.062 266.719 126.131 266.896 125.204C267.103 124.284 267.244 123.349 267.42 122.42C267.767 120.563 268.15 118.707 268.65 116.883L269.398 114.145C269.656 113.234 269.975 112.343 270.268 111.443C271.499 107.863 273.017 104.389 274.808 101.054C274.812 101.048 274.816 101.042 274.822 101.038C274.827 101.033 274.834 101.03 274.841 101.028C274.847 101.025 274.855 101.025 274.862 101.025C274.869 101.026 274.876 101.028 274.882 101.032C274.893 101.038 274.902 101.048 274.907 101.06C274.911 101.072 274.912 101.085 274.908 101.097C273.759 104.703 272.477 108.225 271.367 111.811C270.143 115.357 269.094 118.956 267.999 122.557C267.464 124.362 267.032 126.195 266.704 128.048C266.528 128.972 266.444 129.912 266.337 130.847C266.222 131.78 266.146 132.718 266.059 133.653C265.634 137.382 265.139 141.091 264.746 144.846C264.745 144.86 264.739 144.874 264.728 144.883C264.717 144.893 264.703 144.898 264.689 144.897C264.676 144.896 264.664 144.89 264.654 144.881C264.645 144.872 264.639 144.86 264.637 144.847Z" fill="#020202"/>
<path d="M286.635 88.335C286.266 87.3469 285.714 86.4373 285.007 85.6537C284.691 85.285 284.294 84.9948 283.846 84.8058C283.399 84.6168 282.914 84.5342 282.429 84.5646C281.444 84.7151 280.516 85.1244 279.741 85.7506C278.913 86.3877 278.137 87.0894 277.419 87.849C275.923 89.3782 274.568 91.0387 273.369 92.8107C272.746 93.6882 272.267 94.6549 271.728 95.5825C271.198 96.5156 270.727 97.4812 270.318 98.4736C268.588 102.373 267.341 106.468 266.604 110.67C265.822 114.867 265.816 119.172 266.588 123.371L266.589 123.378C266.592 123.391 266.589 123.405 266.582 123.417C266.575 123.428 266.564 123.437 266.551 123.441C266.538 123.445 266.524 123.443 266.512 123.437C266.5 123.431 266.49 123.421 266.485 123.408C265.067 119.254 264.714 114.811 265.46 110.485C266.197 106.179 267.659 102.029 269.784 98.2119C270.293 97.2544 270.825 96.3126 271.396 95.3939C271.969 94.4769 272.483 93.5254 273.073 92.6198C274.167 90.7396 275.397 88.9414 276.752 87.2392C277.464 86.3855 278.279 85.6233 279.179 84.9699C280.104 84.2521 281.218 83.8191 282.386 83.7236C282.982 83.722 283.57 83.8625 284.101 84.1336C284.632 84.4047 285.091 84.7985 285.44 85.2824C286.103 86.1762 286.548 87.2123 286.741 88.3084C286.742 88.3154 286.742 88.3226 286.74 88.3296C286.739 88.3366 286.736 88.3432 286.732 88.3491C286.728 88.355 286.723 88.3601 286.717 88.364C286.711 88.3679 286.705 88.3706 286.698 88.372C286.685 88.3737 286.671 88.371 286.66 88.3643C286.649 88.3576 286.64 88.3472 286.635 88.335Z" fill="#020202"/>
<path d="M285.303 85.6311C285.245 84.698 285.305 83.7613 285.484 82.8436C285.644 81.9083 285.954 81.005 286.403 80.1688C286.859 79.3093 287.506 78.5655 288.294 77.994C289.099 77.4309 290.02 77.0544 290.988 76.892C292.894 76.6653 294.826 76.8696 296.642 77.4897C298.433 78.0511 300.161 78.8 301.795 79.7237C305.056 81.5573 307.972 83.9475 310.409 86.7864C315.301 92.4158 318.856 99.0792 320.807 106.277C321.822 109.895 322.258 113.65 322.1 117.404C321.511 120.995 321.587 124.664 322.325 128.228C322.741 129.977 323.496 131.628 324.549 133.086C325.618 134.561 327.089 135.697 328.787 136.359L328.793 136.361C328.807 136.365 328.817 136.375 328.824 136.387C328.83 136.4 328.831 136.414 328.827 136.427C328.823 136.441 328.814 136.452 328.802 136.459C328.79 136.466 328.776 136.468 328.763 136.465C326.926 135.977 325.286 134.934 324.066 133.477C322.83 132.023 321.927 130.316 321.422 128.476C320.305 124.832 320.523 120.93 320.955 117.307C321.158 113.672 320.808 110.028 319.916 106.499C319.094 102.922 317.882 99.4471 316.302 96.1351C314.699 92.8207 312.606 89.7668 310.092 87.0766C307.547 84.4459 304.598 82.2393 301.355 80.5405C299.75 79.6921 298.081 78.9683 296.364 78.3755C294.686 77.7614 292.893 77.5302 291.114 77.6989C290.25 77.8063 289.42 78.1004 288.681 78.5607C287.944 79.0429 287.327 79.6875 286.877 80.445C285.965 82.0232 285.461 83.8044 285.412 85.6267C285.412 85.6339 285.411 85.641 285.408 85.6476C285.405 85.6542 285.401 85.6603 285.396 85.6654C285.391 85.6705 285.386 85.6746 285.379 85.6775C285.372 85.6803 285.365 85.6818 285.358 85.6819C285.345 85.6813 285.332 85.6759 285.321 85.6666C285.311 85.6573 285.305 85.6447 285.303 85.6311Z" fill="#020202"/>
<path d="M288.849 82.9858C290.375 83.1017 291.853 83.5751 293.162 84.3679C294.492 85.1508 295.678 86.1556 296.669 87.3388C297.628 88.5361 298.406 89.8684 298.977 91.2928C299.253 91.9991 299.488 92.7209 299.68 93.4546C299.821 94.1997 299.961 94.9403 300.05 95.684C299.721 94.9992 299.483 94.2986 299.175 93.626C298.836 92.9675 298.572 92.2827 298.208 91.6495C297.872 91.0064 297.501 90.3822 297.097 89.7795C296.709 89.1725 296.287 88.5884 295.831 88.0303C294.91 86.9244 293.86 85.9328 292.703 85.0767C291.525 84.1992 290.227 83.4951 288.849 82.9858Z" fill="#020202"/>
<path d="M269.129 139.633C269.818 137.468 270.699 135.435 271.54 133.39C271.977 132.375 272.381 131.352 272.786 130.331C273.211 129.31 273.529 128.248 273.734 127.162C273.954 128.295 273.907 129.463 273.598 130.575C273.336 131.68 272.983 132.761 272.543 133.808C271.684 135.901 270.535 137.862 269.129 139.633Z" fill="#020202"/>
<path d="M281.392 135.016C282.32 136.591 283.47 138.024 284.807 139.27C285.464 139.819 286.22 140.237 287.034 140.503C287.918 140.755 288.832 140.884 289.751 140.886C288.863 141.377 287.844 141.578 286.836 141.462C285.795 141.331 284.814 140.905 284.006 140.235C283.239 139.571 282.613 138.758 282.168 137.845C281.715 136.966 281.451 136.003 281.392 135.016Z" fill="#020202"/>
<path d="M301.7 147.021C301.699 147.021 301.698 147.022 301.698 147.022C301.697 147.022 301.696 147.023 301.695 147.024C301.694 147.024 301.694 147.025 301.693 147.026C301.693 147.027 301.693 147.028 301.693 147.029" stroke="#020202" stroke-width="0.75838" stroke-linecap="round" stroke-linejoin="round"/>
<path d="M295.491 150.703C284.396 157.958 274.239 166.556 265.254 176.302C263.006 178.726 260.839 181.221 258.752 183.785C257.777 184.862 257.807 186.418 258.042 188.013C258.279 189.608 258.609 191.266 258.783 192.948C258.971 194.638 259.008 196.341 258.895 198.037C258.751 199.73 258.469 201.407 258.052 203.054C257.301 206.277 256.385 209.462 255.704 212.704C252.783 225.644 250.699 238.758 249.466 251.966C248.796 258.565 248.364 265.187 248.049 271.81C247.738 278.431 247.521 285.068 247.534 291.682L246.493 291.305C252.897 283.364 259.128 275.28 265.187 267.054C271.216 258.817 277.169 250.523 282.787 242.004C288.421 233.499 293.871 224.865 298.803 215.935C301.283 211.482 303.646 206.955 305.792 202.33C307.988 197.723 309.897 192.984 311.51 188.142C311.516 188.123 311.529 188.107 311.547 188.098C311.564 188.089 311.585 188.087 311.604 188.092C311.623 188.098 311.639 188.111 311.648 188.129C311.658 188.146 311.66 188.167 311.655 188.186C308.839 198.036 304.517 207.396 299.77 216.458C294.961 225.502 289.682 234.29 284.067 242.849C278.427 251.391 272.59 259.804 266.429 267.976C260.281 276.156 254.012 284.241 247.398 292.06L247.388 292.072C247.31 292.164 247.205 292.23 247.088 292.26C246.971 292.29 246.848 292.284 246.735 292.241C246.622 292.198 246.525 292.122 246.457 292.022C246.389 291.922 246.354 291.803 246.357 291.683C246.613 278.375 247.619 265.129 248.964 251.916C249.274 248.61 249.725 245.32 250.066 242.017C250.492 238.724 250.874 235.425 251.371 232.141C251.863 228.857 252.299 225.563 252.881 222.291C253.391 219.007 254.035 215.746 254.675 212.484C254.972 210.847 255.343 209.226 255.714 207.605L256.829 202.741C257.214 201.166 257.471 199.563 257.597 197.947C257.692 196.329 257.643 194.707 257.452 193.098C257.276 191.478 256.927 189.882 256.704 188.191C256.562 187.315 256.537 186.423 256.631 185.54C256.695 185.07 256.813 184.609 256.983 184.165C257.173 183.725 257.43 183.318 257.746 182.958C259.872 180.393 262.081 177.9 264.372 175.477C268.944 170.632 273.84 166.103 279.026 161.922C284.191 157.728 289.669 153.934 295.412 150.574C295.429 150.564 295.449 150.561 295.468 150.566C295.488 150.571 295.504 150.583 295.515 150.6C295.525 150.617 295.528 150.637 295.524 150.657C295.52 150.676 295.508 150.693 295.491 150.704L295.491 150.703Z" fill="#020202"/>
<path d="M320.016 159.125L320.015 159.118V159.117C320.345 156.987 320.767 154.885 321.2 152.786C321.637 150.689 322.113 148.603 322.587 146.518L324.072 140.283C324.562 138.211 325.082 136.124 325.536 134.073L325.768 134.622C324.754 133.857 323.676 133.181 322.546 132.602C321.981 132.308 321.391 132.064 320.784 131.872C320.172 131.669 319.53 131.576 318.886 131.597H318.885L318.878 131.596L318.885 131.595C320.202 131.324 321.57 131.449 322.816 131.953C324.083 132.393 325.294 132.978 326.427 133.696C326.511 133.749 326.577 133.824 326.619 133.913C326.662 134.002 326.677 134.102 326.665 134.2L326.659 134.246C326.383 136.415 325.968 138.509 325.51 140.613C325.06 142.713 324.535 144.795 323.99 146.869C323.426 148.939 322.826 150.999 322.173 153.043C321.511 155.085 320.815 157.116 320.016 159.118V159.117L320.016 159.125Z" fill="#020202"/>
<path d="M347.909 208.872C348.743 220.469 349.638 232.056 350.595 243.632C351.597 255.205 352.647 266.771 353.87 278.314C354.459 284.088 355.148 289.85 355.866 295.605C356.564 301.364 357.369 307.106 358.28 312.83C359.165 318.557 360.16 324.267 361.402 329.915C362.53 335.573 364.083 341.139 366.048 346.564L366.061 346.599C366.108 346.721 366.116 346.854 366.085 346.981C365.448 349.566 364.653 352.11 363.703 354.598C362.769 357.092 361.608 359.495 360.234 361.777C358.907 364.114 357.088 366.135 354.902 367.699C353.782 368.453 352.491 368.915 351.146 369.042C349.817 369.132 348.486 368.898 347.267 368.361C348.483 368.829 349.799 368.978 351.089 368.794C352.379 368.61 353.601 368.1 354.638 367.311C356.672 365.7 358.332 363.666 359.502 361.351C360.723 359.052 361.753 356.657 362.584 354.19C363.44 351.733 364.145 349.226 364.694 346.683L364.73 347.1C360.331 336.176 358.102 324.647 356.127 313.179C354.226 301.68 352.823 290.118 351.686 278.537C350.549 266.955 349.682 255.355 349.086 243.736C348.435 232.125 348.013 220.5 347.909 208.872Z" fill="#020202"/>
<path d="M433.378 341.813C433.378 341.813 430.195 447.257 381.052 474.195C381.052 478.894 408.092 482.703 441.448 482.703C474.804 482.703 501.845 478.894 501.845 474.195C501.845 474.195 447.393 459.404 451.397 341.537" fill="#020202"/>
<path d="M349.74 366.688C350.117 366.675 350.473 366.516 350.735 366.246C350.996 365.975 351.143 365.613 351.143 365.236C351.143 364.86 350.996 364.498 350.735 364.227C350.473 363.956 350.117 363.798 349.74 363.785C349.364 363.798 349.007 363.956 348.746 364.227C348.484 364.498 348.338 364.86 348.338 365.236C348.338 365.613 348.484 365.975 348.746 366.246C349.007 366.516 349.364 366.675 349.74 366.688Z" fill="black"/>
<path d="M355.083 362.507C355.459 362.494 355.815 362.335 356.077 362.065C356.339 361.794 356.485 361.432 356.485 361.055C356.485 360.679 356.339 360.317 356.077 360.046C355.815 359.775 355.459 359.617 355.083 359.604C354.706 359.617 354.35 359.775 354.088 360.046C353.826 360.317 353.68 360.679 353.68 361.055C353.68 361.432 353.826 361.794 354.088 362.065C354.35 362.335 354.706 362.494 355.083 362.507Z" fill="black"/>
<path d="M358.799 357.397C359.175 357.384 359.532 357.226 359.793 356.955C360.055 356.684 360.201 356.322 360.201 355.946C360.201 355.569 360.055 355.207 359.793 354.936C359.532 354.666 359.175 354.507 358.799 354.494C358.422 354.507 358.066 354.666 357.804 354.936C357.543 355.207 357.396 355.569 357.396 355.946C357.396 356.322 357.543 356.684 357.804 356.955C358.066 357.226 358.422 357.384 358.799 357.397Z" fill="black"/>
<path d="M361.121 350.662C361.498 350.649 361.854 350.49 362.116 350.219C362.378 349.948 362.524 349.586 362.524 349.21C362.524 348.833 362.378 348.472 362.116 348.201C361.854 347.93 361.498 347.771 361.121 347.758C360.745 347.771 360.389 347.93 360.127 348.201C359.865 348.472 359.719 348.833 359.719 349.21C359.719 349.586 359.865 349.948 360.127 350.219C360.389 350.49 360.745 350.649 361.121 350.662Z" fill="black"/>
<path d="M404.439 322.325C404.815 322.312 405.172 322.154 405.434 321.883C405.695 321.612 405.841 321.25 405.841 320.874C405.841 320.497 405.695 320.135 405.434 319.864C405.172 319.594 404.815 319.435 404.439 319.422C404.063 319.435 403.706 319.594 403.444 319.864C403.183 320.135 403.037 320.497 403.037 320.874C403.037 321.25 403.183 321.612 403.444 321.883C403.706 322.154 404.063 322.312 404.439 322.325Z" fill="black"/>
<path d="M395.496 324.764C395.873 324.751 396.229 324.592 396.491 324.322C396.753 324.051 396.899 323.689 396.899 323.312C396.899 322.936 396.753 322.574 396.491 322.303C396.229 322.032 395.873 321.874 395.496 321.861C395.12 321.874 394.764 322.032 394.502 322.303C394.24 322.574 394.094 322.936 394.094 323.312C394.094 323.689 394.24 324.051 394.502 324.322C394.764 324.592 395.12 324.751 395.496 324.764Z" fill="black"/>
<path d="M386.554 328.596C386.931 328.583 387.287 328.425 387.549 328.154C387.81 327.883 387.957 327.521 387.957 327.145C387.957 326.768 387.81 326.406 387.549 326.136C387.287 325.865 386.931 325.706 386.554 325.693C386.178 325.706 385.821 325.865 385.56 326.136C385.298 326.406 385.152 326.768 385.152 327.145C385.152 327.521 385.298 327.883 385.56 328.154C385.821 328.425 386.178 328.583 386.554 328.596Z" fill="black"/>
<path d="M390.038 333.938C390.414 333.925 390.771 333.767 391.033 333.496C391.294 333.225 391.441 332.863 391.441 332.487C391.441 332.11 391.294 331.748 391.033 331.478C390.771 331.207 390.414 331.048 390.038 331.035C389.662 331.048 389.305 331.207 389.044 331.478C388.782 331.748 388.636 332.11 388.636 332.487C388.636 332.863 388.782 333.225 389.044 333.496C389.305 333.767 389.662 333.925 390.038 333.938Z" fill="black"/>
<path d="M400.258 337.423C400.634 337.41 400.991 337.251 401.252 336.98C401.514 336.709 401.66 336.348 401.66 335.971C401.66 335.594 401.514 335.233 401.252 334.962C400.991 334.691 400.634 334.532 400.258 334.519C399.882 334.532 399.525 334.691 399.263 334.962C399.002 335.233 398.855 335.594 398.855 335.971C398.855 336.348 399.002 336.709 399.263 336.98C399.525 337.251 399.882 337.41 400.258 337.423Z" fill="black"/>
<path d="M412.104 339.281C412.48 339.268 412.836 339.109 413.098 338.838C413.36 338.567 413.506 338.206 413.506 337.829C413.506 337.453 413.36 337.091 413.098 336.82C412.836 336.549 412.48 336.39 412.104 336.377C411.727 336.39 411.371 336.549 411.109 336.82C410.847 337.091 410.701 337.453 410.701 337.829C410.701 338.206 410.847 338.567 411.109 338.838C411.371 339.109 411.727 339.268 412.104 339.281Z" fill="black"/>
<path d="M424.182 339.861C424.558 339.848 424.914 339.69 425.176 339.419C425.438 339.148 425.584 338.786 425.584 338.41C425.584 338.033 425.438 337.671 425.176 337.401C424.914 337.13 424.558 336.971 424.182 336.958C423.805 336.971 423.449 337.13 423.187 337.401C422.926 337.671 422.779 338.033 422.779 338.41C422.779 338.786 422.926 339.148 423.187 339.419C423.449 339.69 423.805 339.848 424.182 339.861Z" fill="black"/>
<path d="M436.259 340.094C436.636 340.081 436.992 339.922 437.254 339.651C437.516 339.38 437.662 339.018 437.662 338.642C437.662 338.265 437.516 337.903 437.254 337.633C436.992 337.362 436.636 337.203 436.259 337.19C435.883 337.203 435.526 337.362 435.265 337.633C435.003 337.903 434.857 338.265 434.857 338.642C434.857 339.018 435.003 339.38 435.265 339.651C435.526 339.922 435.883 340.081 436.259 340.094Z" fill="black"/>
<path d="M449.034 339.281C449.41 339.268 449.767 339.109 450.028 338.838C450.29 338.567 450.436 338.206 450.436 337.829C450.436 337.453 450.29 337.091 450.028 336.82C449.767 336.549 449.41 336.39 449.034 336.377C448.657 336.39 448.301 336.549 448.039 336.82C447.778 337.091 447.631 337.453 447.631 337.829C447.631 338.206 447.778 338.567 448.039 338.838C448.301 339.109 448.657 339.268 449.034 339.281Z" fill="black"/>
<path d="M461.228 338.352C461.604 338.339 461.961 338.18 462.222 337.909C462.484 337.638 462.63 337.276 462.63 336.9C462.63 336.523 462.484 336.162 462.222 335.891C461.961 335.62 461.604 335.461 461.228 335.448C460.851 335.461 460.495 335.62 460.233 335.891C459.971 336.162 459.825 336.523 459.825 336.9C459.825 337.276 459.971 337.638 460.233 337.909C460.495 338.18 460.851 338.339 461.228 338.352Z" fill="black"/>
<path d="M474.118 337.539C474.495 337.526 474.851 337.367 475.113 337.096C475.374 336.825 475.521 336.463 475.521 336.087C475.521 335.71 475.374 335.349 475.113 335.078C474.851 334.807 474.495 334.648 474.118 334.635C473.742 334.648 473.385 334.807 473.124 335.078C472.862 335.349 472.716 335.71 472.716 336.087C472.716 336.463 472.862 336.825 473.124 337.096C473.385 337.367 473.742 337.526 474.118 337.539Z" fill="black"/>
<path d="M486.544 335.216C486.921 335.203 487.277 335.044 487.539 334.774C487.801 334.503 487.947 334.141 487.947 333.764C487.947 333.388 487.801 333.026 487.539 332.755C487.277 332.484 486.921 332.326 486.544 332.313C486.168 332.326 485.812 332.484 485.55 332.755C485.288 333.026 485.142 333.388 485.142 333.764C485.142 334.141 485.288 334.503 485.55 334.774C485.812 335.044 486.168 335.203 486.544 335.216Z" fill="black"/>
<path d="M496.648 332.429C497.024 332.416 497.381 332.257 497.642 331.986C497.904 331.715 498.05 331.354 498.05 330.977C498.05 330.601 497.904 330.239 497.642 329.968C497.381 329.697 497.024 329.538 496.648 329.525C496.272 329.538 495.915 329.697 495.653 329.968C495.392 330.239 495.246 330.601 495.246 330.977C495.246 331.354 495.392 331.715 495.653 331.986C495.915 332.257 496.272 332.416 496.648 332.429Z" fill="black"/>
<path d="M496.3 326.854C496.676 326.841 497.033 326.683 497.294 326.412C497.556 326.141 497.702 325.779 497.702 325.403C497.702 325.026 497.556 324.664 497.294 324.394C497.033 324.123 496.676 323.964 496.3 323.951C495.923 323.964 495.567 324.123 495.305 324.394C495.044 324.664 494.897 325.026 494.897 325.403C494.897 325.779 495.044 326.141 495.305 326.412C495.567 326.683 495.923 326.841 496.3 326.854Z" fill="black"/>
<path d="M488.751 323.603C489.127 323.59 489.484 323.431 489.746 323.16C490.007 322.889 490.153 322.528 490.153 322.151C490.153 321.775 490.007 321.413 489.746 321.142C489.484 320.871 489.127 320.712 488.751 320.699C488.375 320.712 488.018 320.871 487.757 321.142C487.495 321.413 487.349 321.775 487.349 322.151C487.349 322.528 487.495 322.889 487.757 323.16C488.018 323.431 488.375 323.59 488.751 323.603Z" fill="black"/>
<path d="M477.719 320.583C478.095 320.57 478.452 320.412 478.713 320.141C478.975 319.87 479.121 319.508 479.121 319.132C479.121 318.755 478.975 318.393 478.713 318.122C478.452 317.852 478.095 317.693 477.719 317.68C477.342 317.693 476.986 317.852 476.724 318.122C476.463 318.393 476.316 318.755 476.316 319.132C476.316 319.508 476.463 319.87 476.724 320.141C476.986 320.412 477.342 320.57 477.719 320.583Z" fill="black"/>
<path d="M242.6 72.4033C244.708 75.4712 246.596 78.6499 248.489 81.8251L251.274 86.6185L254.021 91.449C252.798 90.0469 251.667 88.5675 250.634 87.0199C249.583 85.4884 248.604 83.911 247.656 82.3167C245.754 79.1271 244.065 75.8154 242.6 72.4033Z" fill="black"/>
<path d="M257.449 67.2935C258.733 70.2776 259.849 73.3315 260.791 76.4408C261.776 79.5371 262.583 82.6868 263.21 85.8746C261.924 82.8913 260.808 79.8372 259.868 76.7273C258.885 73.6304 258.078 70.4808 257.449 67.2935Z" fill="black"/>
<path d="M233.454 82.9858C235.929 84.8441 238.292 86.8465 240.531 88.9828C242.801 91.087 244.943 93.3247 246.946 95.684C244.469 93.8274 242.106 91.8248 239.868 89.687C237.601 87.5812 235.459 85.3436 233.454 82.9858Z" fill="black"/>
<path d="M250.928 191.936C248.408 189.239 245.994 186.445 243.596 183.636C241.226 180.803 238.926 177.91 236.695 174.958C234.436 172.012 232.35 168.937 230.447 165.749C229.47 164.137 228.632 162.444 227.943 160.689C227.58 159.769 227.336 158.806 227.218 157.824C227.183 157.337 227.178 156.849 227.203 156.361L227.236 154.972C227.239 154.837 227.28 154.705 227.354 154.592L227.379 154.555C227.793 153.791 228.053 152.954 228.144 152.09C228.276 151.144 228.357 150.19 228.386 149.235C228.438 147.293 228.384 145.35 228.223 143.415L228.222 143.406C228.219 143.366 228.219 143.325 228.222 143.285C228.3 142.52 228.263 141.748 228.112 140.993C228.036 140.63 227.922 140.277 227.77 139.938C227.63 139.627 227.45 139.335 227.233 139.071L227.194 139.029C226.413 138.162 225.379 137.564 224.238 137.318C223.043 137.032 221.812 136.93 220.587 137.015C219.341 137.102 218.112 137.352 216.931 137.758C215.752 138.131 214.657 138.731 213.708 139.523C213.509 139.742 213.271 139.938 213.098 140.173C212.924 140.411 212.766 140.659 212.625 140.917C212.485 141.129 212.405 141.376 212.395 141.63C212.385 141.885 212.445 142.137 212.568 142.36C212.956 142.772 213.476 143.034 214.038 143.102C214.655 143.226 215.285 143.277 215.915 143.253C218.5 143.317 221.052 142.664 223.288 141.366C221.119 142.867 218.56 143.703 215.924 143.774C215.259 143.837 214.589 143.822 213.927 143.728C213.186 143.674 212.491 143.35 211.972 142.818C211.712 142.49 211.581 142.077 211.605 141.659C211.627 141.284 211.719 140.916 211.875 140.574C212.031 140.256 212.21 139.95 212.409 139.658C212.624 139.382 212.854 139.117 213.098 138.867C214.11 137.953 215.291 137.246 216.574 136.785C217.831 136.302 219.146 135.985 220.485 135.843C221.844 135.691 223.219 135.764 224.554 136.058C225.972 136.348 227.263 137.077 228.241 138.144L228.203 138.102C228.541 138.472 228.821 138.892 229.033 139.346C229.234 139.773 229.389 140.219 229.495 140.679C229.697 141.573 229.757 142.494 229.673 143.407L229.673 143.278C229.851 145.273 229.92 147.277 229.878 149.28C229.853 150.296 229.773 151.309 229.637 152.317C229.525 153.421 229.17 154.487 228.597 155.438L228.74 155.021L228.698 156.397C228.672 156.83 228.673 157.264 228.7 157.698C228.802 158.548 229.011 159.381 229.322 160.179C229.98 161.859 230.764 163.488 231.667 165.05C233.457 168.227 235.521 171.272 237.608 174.296C239.708 177.315 241.92 180.26 244.152 183.191C246.36 186.143 248.657 189.027 250.928 191.936Z" fill="#020202"/>
<path d="M223.618 141.156C222.799 141.99 222.073 142.911 221.454 143.902C220.888 144.847 220.47 145.872 220.215 146.944C219.961 148.018 219.868 149.124 219.94 150.225C220.029 151.394 220.222 152.552 220.518 153.687C219.665 152.764 219.064 151.637 218.772 150.414C218.444 149.162 218.433 147.847 218.74 146.59C219.036 145.327 219.645 144.158 220.512 143.193C221.341 142.243 222.416 141.538 223.618 141.156Z" fill="#020202"/>
</svg>
